%TF.GenerationSoftware,KiCad,Pcbnew,(6.0.10)*%
%TF.CreationDate,2023-05-01T12:45:21+05:45*%
%TF.ProjectId,arduino,61726475-696e-46f2-9e6b-696361645f70,rev?*%
%TF.SameCoordinates,Original*%
%TF.FileFunction,Soldermask,Top*%
%TF.FilePolarity,Negative*%
%FSLAX46Y46*%
G04 Gerber Fmt 4.6, Leading zero omitted, Abs format (unit mm)*
G04 Created by KiCad (PCBNEW (6.0.10)) date 2023-05-01 12:45:21*
%MOMM*%
%LPD*%
G01*
G04 APERTURE LIST*
G04 Aperture macros list*
%AMRoundRect*
0 Rectangle with rounded corners*
0 $1 Rounding radius*
0 $2 $3 $4 $5 $6 $7 $8 $9 X,Y pos of 4 corners*
0 Add a 4 corners polygon primitive as box body*
4,1,4,$2,$3,$4,$5,$6,$7,$8,$9,$2,$3,0*
0 Add four circle primitives for the rounded corners*
1,1,$1+$1,$2,$3*
1,1,$1+$1,$4,$5*
1,1,$1+$1,$6,$7*
1,1,$1+$1,$8,$9*
0 Add four rect primitives between the rounded corners*
20,1,$1+$1,$2,$3,$4,$5,0*
20,1,$1+$1,$4,$5,$6,$7,0*
20,1,$1+$1,$6,$7,$8,$9,0*
20,1,$1+$1,$8,$9,$2,$3,0*%
G04 Aperture macros list end*
%ADD10RoundRect,0.100000X0.100000X-0.130000X0.100000X0.130000X-0.100000X0.130000X-0.100000X-0.130000X0*%
%ADD11O,0.800000X0.800000*%
%ADD12R,1.300000X0.450000*%
%ADD13O,1.800000X1.150000*%
%ADD14O,2.000000X1.450000*%
%ADD15RoundRect,0.135000X0.135000X0.185000X-0.135000X0.185000X-0.135000X-0.185000X0.135000X-0.185000X0*%
%ADD16R,1.200000X1.400000*%
%ADD17RoundRect,0.140000X-0.170000X0.140000X-0.170000X-0.140000X0.170000X-0.140000X0.170000X0.140000X0*%
%ADD18R,1.700000X1.700000*%
%ADD19O,1.700000X1.700000*%
%ADD20RoundRect,0.140000X-0.140000X-0.170000X0.140000X-0.170000X0.140000X0.170000X-0.140000X0.170000X0*%
%ADD21RoundRect,0.135000X-0.185000X0.135000X-0.185000X-0.135000X0.185000X-0.135000X0.185000X0.135000X0*%
%ADD22RoundRect,0.135000X-0.135000X-0.185000X0.135000X-0.185000X0.135000X0.185000X-0.135000X0.185000X0*%
%ADD23C,2.200000*%
%ADD24RoundRect,0.225000X-0.225000X-0.250000X0.225000X-0.250000X0.225000X0.250000X-0.225000X0.250000X0*%
%ADD25RoundRect,0.135000X0.185000X-0.135000X0.185000X0.135000X-0.185000X0.135000X-0.185000X-0.135000X0*%
%ADD26RoundRect,0.140000X0.140000X0.170000X-0.140000X0.170000X-0.140000X-0.170000X0.140000X-0.170000X0*%
%ADD27RoundRect,0.250000X-0.475000X0.250000X-0.475000X-0.250000X0.475000X-0.250000X0.475000X0.250000X0*%
%ADD28R,0.800000X1.000000*%
%ADD29C,0.900000*%
%ADD30R,1.500000X0.700000*%
%ADD31RoundRect,0.250000X-0.250000X-0.475000X0.250000X-0.475000X0.250000X0.475000X-0.250000X0.475000X0*%
%ADD32R,2.000000X1.500000*%
%ADD33R,2.000000X3.800000*%
%ADD34RoundRect,0.100000X-0.100000X0.130000X-0.100000X-0.130000X0.100000X-0.130000X0.100000X0.130000X0*%
%ADD35RoundRect,0.075000X-0.662500X-0.075000X0.662500X-0.075000X0.662500X0.075000X-0.662500X0.075000X0*%
%ADD36RoundRect,0.075000X-0.075000X-0.662500X0.075000X-0.662500X0.075000X0.662500X-0.075000X0.662500X0*%
G04 APERTURE END LIST*
D10*
%TO.C,D1*%
X114175000Y-94670000D03*
X114175000Y-94000000D03*
%TD*%
D11*
%TO.C,J4*%
X119100000Y-83900000D03*
X119100000Y-78900000D03*
D12*
X118000000Y-82700000D03*
X118000000Y-82050000D03*
X118000000Y-81400000D03*
X118000000Y-80750000D03*
X118000000Y-80100000D03*
D13*
X121850000Y-85275000D03*
D14*
X118050000Y-77675000D03*
D13*
X121850000Y-77525000D03*
D14*
X118050000Y-85125000D03*
%TD*%
D15*
%TO.C,R2*%
X95400000Y-94975000D03*
X94380000Y-94975000D03*
%TD*%
D16*
%TO.C,Y1*%
X88700000Y-80100000D03*
X88700000Y-82300000D03*
X90400000Y-82300000D03*
X90400000Y-80100000D03*
%TD*%
D17*
%TO.C,C12*%
X96750000Y-84930000D03*
X96750000Y-85890000D03*
%TD*%
D18*
%TO.C,J3*%
X112630000Y-69400000D03*
D19*
X110090000Y-69400000D03*
X107550000Y-69400000D03*
X105010000Y-69400000D03*
%TD*%
D17*
%TO.C,C13*%
X95200000Y-87540000D03*
X95200000Y-88500000D03*
%TD*%
%TO.C,C6*%
X96750000Y-79400000D03*
X96750000Y-80360000D03*
%TD*%
D20*
%TO.C,C5*%
X98300000Y-88600000D03*
X99260000Y-88600000D03*
%TD*%
D21*
%TO.C,R5*%
X113425000Y-80215000D03*
X113425000Y-81235000D03*
%TD*%
D22*
%TO.C,R3*%
X97405000Y-94990000D03*
X98425000Y-94990000D03*
%TD*%
D23*
%TO.C,H1*%
X85750000Y-70600000D03*
%TD*%
%TO.C,H3*%
X85750000Y-96200000D03*
%TD*%
D24*
%TO.C,C4*%
X99200000Y-75350000D03*
X100750000Y-75350000D03*
%TD*%
D25*
%TO.C,R4*%
X91525000Y-76570000D03*
X91525000Y-75550000D03*
%TD*%
D26*
%TO.C,C10*%
X105955000Y-88450000D03*
X104995000Y-88450000D03*
%TD*%
D17*
%TO.C,C7*%
X92400000Y-83590000D03*
X92400000Y-84550000D03*
%TD*%
D27*
%TO.C,C2*%
X112450000Y-94150000D03*
X112450000Y-96050000D03*
%TD*%
D21*
%TO.C,R1*%
X114200000Y-95890000D03*
X114200000Y-96910000D03*
%TD*%
D20*
%TO.C,C8*%
X99540000Y-76860000D03*
X100500000Y-76860000D03*
%TD*%
D26*
%TO.C,C11*%
X96880000Y-83800000D03*
X95920000Y-83800000D03*
%TD*%
D28*
%TO.C,SW1*%
X84605000Y-74550000D03*
D29*
X83495000Y-76700000D03*
D28*
X82395000Y-74550000D03*
D29*
X83495000Y-79700000D03*
D28*
X82395000Y-81850000D03*
X84605000Y-81850000D03*
D30*
X85255000Y-75950000D03*
X85255000Y-78950000D03*
X85255000Y-80450000D03*
%TD*%
D17*
%TO.C,C9*%
X108400000Y-79520000D03*
X108400000Y-80480000D03*
%TD*%
D19*
%TO.C,J1*%
X92210000Y-69400000D03*
X94750000Y-69400000D03*
X97290000Y-69400000D03*
D18*
X99830000Y-69400000D03*
%TD*%
D23*
%TO.C,H2*%
X119150000Y-70600000D03*
%TD*%
D18*
%TO.C,J2*%
X91870000Y-97620000D03*
D19*
X94410000Y-97620000D03*
X96950000Y-97620000D03*
X99490000Y-97620000D03*
%TD*%
D31*
%TO.C,C1*%
X110000000Y-89100000D03*
X111900000Y-89100000D03*
%TD*%
D32*
%TO.C,U1*%
X110100000Y-91550000D03*
X110100000Y-93850000D03*
D33*
X103800000Y-93850000D03*
D32*
X110100000Y-96150000D03*
%TD*%
D23*
%TO.C,H4*%
X119150000Y-96200000D03*
%TD*%
D17*
%TO.C,C3*%
X92400000Y-81320000D03*
X92400000Y-82280000D03*
%TD*%
D34*
%TO.C,FB1*%
X95200000Y-85650000D03*
X95200000Y-86320000D03*
%TD*%
D35*
%TO.C,U2*%
X98387500Y-79850000D03*
X98387500Y-80350000D03*
X98387500Y-80850000D03*
X98387500Y-81350000D03*
X98387500Y-81850000D03*
X98387500Y-82350000D03*
X98387500Y-82850000D03*
X98387500Y-83350000D03*
X98387500Y-83850000D03*
X98387500Y-84350000D03*
X98387500Y-84850000D03*
X98387500Y-85350000D03*
D36*
X99800000Y-86762500D03*
X100300000Y-86762500D03*
X100800000Y-86762500D03*
X101300000Y-86762500D03*
X101800000Y-86762500D03*
X102300000Y-86762500D03*
X102800000Y-86762500D03*
X103300000Y-86762500D03*
X103800000Y-86762500D03*
X104300000Y-86762500D03*
X104800000Y-86762500D03*
X105300000Y-86762500D03*
D35*
X106712500Y-85350000D03*
X106712500Y-84850000D03*
X106712500Y-84350000D03*
X106712500Y-83850000D03*
X106712500Y-83350000D03*
X106712500Y-82850000D03*
X106712500Y-82350000D03*
X106712500Y-81850000D03*
X106712500Y-81350000D03*
X106712500Y-80850000D03*
X106712500Y-80350000D03*
X106712500Y-79850000D03*
D36*
X105300000Y-78437500D03*
X104800000Y-78437500D03*
X104300000Y-78437500D03*
X103800000Y-78437500D03*
X103300000Y-78437500D03*
X102800000Y-78437500D03*
X102300000Y-78437500D03*
X101800000Y-78437500D03*
X101300000Y-78437500D03*
X100800000Y-78437500D03*
X100300000Y-78437500D03*
X99800000Y-78437500D03*
%TD*%
M02*
