%TF.GenerationSoftware,KiCad,Pcbnew,(6.0.10)*%
%TF.CreationDate,2023-05-01T12:45:21+05:45*%
%TF.ProjectId,arduino,61726475-696e-46f2-9e6b-696361645f70,rev?*%
%TF.SameCoordinates,Original*%
%TF.FileFunction,Copper,L1,Top*%
%TF.FilePolarity,Positive*%
%FSLAX46Y46*%
G04 Gerber Fmt 4.6, Leading zero omitted, Abs format (unit mm)*
G04 Created by KiCad (PCBNEW (6.0.10)) date 2023-05-01 12:45:21*
%MOMM*%
%LPD*%
G01*
G04 APERTURE LIST*
G04 Aperture macros list*
%AMRoundRect*
0 Rectangle with rounded corners*
0 $1 Rounding radius*
0 $2 $3 $4 $5 $6 $7 $8 $9 X,Y pos of 4 corners*
0 Add a 4 corners polygon primitive as box body*
4,1,4,$2,$3,$4,$5,$6,$7,$8,$9,$2,$3,0*
0 Add four circle primitives for the rounded corners*
1,1,$1+$1,$2,$3*
1,1,$1+$1,$4,$5*
1,1,$1+$1,$6,$7*
1,1,$1+$1,$8,$9*
0 Add four rect primitives between the rounded corners*
20,1,$1+$1,$2,$3,$4,$5,0*
20,1,$1+$1,$4,$5,$6,$7,0*
20,1,$1+$1,$6,$7,$8,$9,0*
20,1,$1+$1,$8,$9,$2,$3,0*%
G04 Aperture macros list end*
%TA.AperFunction,SMDPad,CuDef*%
%ADD10RoundRect,0.100000X0.100000X-0.130000X0.100000X0.130000X-0.100000X0.130000X-0.100000X-0.130000X0*%
%TD*%
%TA.AperFunction,SMDPad,CuDef*%
%ADD11R,1.300000X0.450000*%
%TD*%
%TA.AperFunction,ComponentPad*%
%ADD12O,1.800000X1.150000*%
%TD*%
%TA.AperFunction,ComponentPad*%
%ADD13O,2.000000X1.450000*%
%TD*%
%TA.AperFunction,SMDPad,CuDef*%
%ADD14RoundRect,0.135000X0.135000X0.185000X-0.135000X0.185000X-0.135000X-0.185000X0.135000X-0.185000X0*%
%TD*%
%TA.AperFunction,SMDPad,CuDef*%
%ADD15R,1.200000X1.400000*%
%TD*%
%TA.AperFunction,SMDPad,CuDef*%
%ADD16RoundRect,0.140000X-0.170000X0.140000X-0.170000X-0.140000X0.170000X-0.140000X0.170000X0.140000X0*%
%TD*%
%TA.AperFunction,ComponentPad*%
%ADD17R,1.700000X1.700000*%
%TD*%
%TA.AperFunction,ComponentPad*%
%ADD18O,1.700000X1.700000*%
%TD*%
%TA.AperFunction,SMDPad,CuDef*%
%ADD19RoundRect,0.140000X-0.140000X-0.170000X0.140000X-0.170000X0.140000X0.170000X-0.140000X0.170000X0*%
%TD*%
%TA.AperFunction,SMDPad,CuDef*%
%ADD20RoundRect,0.135000X-0.185000X0.135000X-0.185000X-0.135000X0.185000X-0.135000X0.185000X0.135000X0*%
%TD*%
%TA.AperFunction,SMDPad,CuDef*%
%ADD21RoundRect,0.135000X-0.135000X-0.185000X0.135000X-0.185000X0.135000X0.185000X-0.135000X0.185000X0*%
%TD*%
%TA.AperFunction,SMDPad,CuDef*%
%ADD22RoundRect,0.225000X-0.225000X-0.250000X0.225000X-0.250000X0.225000X0.250000X-0.225000X0.250000X0*%
%TD*%
%TA.AperFunction,SMDPad,CuDef*%
%ADD23RoundRect,0.135000X0.185000X-0.135000X0.185000X0.135000X-0.185000X0.135000X-0.185000X-0.135000X0*%
%TD*%
%TA.AperFunction,SMDPad,CuDef*%
%ADD24RoundRect,0.140000X0.140000X0.170000X-0.140000X0.170000X-0.140000X-0.170000X0.140000X-0.170000X0*%
%TD*%
%TA.AperFunction,SMDPad,CuDef*%
%ADD25RoundRect,0.250000X-0.475000X0.250000X-0.475000X-0.250000X0.475000X-0.250000X0.475000X0.250000X0*%
%TD*%
%TA.AperFunction,SMDPad,CuDef*%
%ADD26R,0.800000X1.000000*%
%TD*%
%TA.AperFunction,SMDPad,CuDef*%
%ADD27R,1.500000X0.700000*%
%TD*%
%TA.AperFunction,SMDPad,CuDef*%
%ADD28RoundRect,0.250000X-0.250000X-0.475000X0.250000X-0.475000X0.250000X0.475000X-0.250000X0.475000X0*%
%TD*%
%TA.AperFunction,SMDPad,CuDef*%
%ADD29R,2.000000X1.500000*%
%TD*%
%TA.AperFunction,SMDPad,CuDef*%
%ADD30R,2.000000X3.800000*%
%TD*%
%TA.AperFunction,SMDPad,CuDef*%
%ADD31RoundRect,0.100000X-0.100000X0.130000X-0.100000X-0.130000X0.100000X-0.130000X0.100000X0.130000X0*%
%TD*%
%TA.AperFunction,SMDPad,CuDef*%
%ADD32RoundRect,0.075000X-0.662500X-0.075000X0.662500X-0.075000X0.662500X0.075000X-0.662500X0.075000X0*%
%TD*%
%TA.AperFunction,SMDPad,CuDef*%
%ADD33RoundRect,0.075000X-0.075000X-0.662500X0.075000X-0.662500X0.075000X0.662500X-0.075000X0.662500X0*%
%TD*%
%TA.AperFunction,ViaPad*%
%ADD34C,0.800000*%
%TD*%
%TA.AperFunction,Conductor*%
%ADD35C,0.300000*%
%TD*%
%TA.AperFunction,Conductor*%
%ADD36C,0.500000*%
%TD*%
%TA.AperFunction,Conductor*%
%ADD37C,0.200000*%
%TD*%
G04 APERTURE END LIST*
D10*
%TO.P,D1,1,K*%
%TO.N,/PWR_LED_K*%
X114175000Y-94670000D03*
%TO.P,D1,2,A*%
%TO.N,+3.3V*%
X114175000Y-94000000D03*
%TD*%
D11*
%TO.P,J4,1,VBUS*%
%TO.N,VBUS*%
X118000000Y-82700000D03*
%TO.P,J4,2,D-*%
%TO.N,/USB_D-*%
X118000000Y-82050000D03*
%TO.P,J4,3,D+*%
%TO.N,/USB_D+*%
X118000000Y-81400000D03*
%TO.P,J4,4,ID*%
%TO.N,unconnected-(J4-Pad4)*%
X118000000Y-80750000D03*
%TO.P,J4,5,GND*%
%TO.N,GND*%
X118000000Y-80100000D03*
D12*
%TO.P,J4,6,Shield*%
%TO.N,unconnected-(J4-Pad6)*%
X121850000Y-85275000D03*
D13*
X118050000Y-77675000D03*
D12*
X121850000Y-77525000D03*
D13*
X118050000Y-85125000D03*
%TD*%
D14*
%TO.P,R2,1*%
%TO.N,+3.3V*%
X95400000Y-94975000D03*
%TO.P,R2,2*%
%TO.N,/I2C2_SCL*%
X94380000Y-94975000D03*
%TD*%
D15*
%TO.P,Y1,1,1*%
%TO.N,/HSE_IN*%
X88700000Y-80100000D03*
%TO.P,Y1,2,2*%
%TO.N,GND*%
X88700000Y-82300000D03*
%TO.P,Y1,3,3*%
%TO.N,/HSE_OUT*%
X90400000Y-82300000D03*
%TO.P,Y1,4,4*%
%TO.N,GND*%
X90400000Y-80100000D03*
%TD*%
D16*
%TO.P,C12,1*%
%TO.N,+3.3VA*%
X96750000Y-84930000D03*
%TO.P,C12,2*%
%TO.N,GND*%
X96750000Y-85890000D03*
%TD*%
D17*
%TO.P,J3,1,Pin_1*%
%TO.N,+3.3V*%
X112630000Y-69400000D03*
D18*
%TO.P,J3,2,Pin_2*%
%TO.N,/SWDIO*%
X110090000Y-69400000D03*
%TO.P,J3,3,Pin_3*%
%TO.N,/SWCLK*%
X107550000Y-69400000D03*
%TO.P,J3,4,Pin_4*%
%TO.N,GND*%
X105010000Y-69400000D03*
%TD*%
D16*
%TO.P,C13,1*%
%TO.N,/Ferrite_cap*%
X95200000Y-87540000D03*
%TO.P,C13,2*%
%TO.N,GND*%
X95200000Y-88500000D03*
%TD*%
%TO.P,C6,1*%
%TO.N,+3.3V*%
X96750000Y-79400000D03*
%TO.P,C6,2*%
%TO.N,GND*%
X96750000Y-80360000D03*
%TD*%
D19*
%TO.P,C5,1*%
%TO.N,/NRST*%
X98300000Y-88600000D03*
%TO.P,C5,2*%
%TO.N,GND*%
X99260000Y-88600000D03*
%TD*%
D20*
%TO.P,R5,1*%
%TO.N,+3.3V*%
X113425000Y-80215000D03*
%TO.P,R5,2*%
%TO.N,/USB_D+*%
X113425000Y-81235000D03*
%TD*%
D21*
%TO.P,R3,1*%
%TO.N,+3.3V*%
X97405000Y-94990000D03*
%TO.P,R3,2*%
%TO.N,/I2C2_SDA*%
X98425000Y-94990000D03*
%TD*%
D22*
%TO.P,C4,1*%
%TO.N,+3.3V*%
X99200000Y-75350000D03*
%TO.P,C4,2*%
%TO.N,GND*%
X100750000Y-75350000D03*
%TD*%
D23*
%TO.P,R4,1*%
%TO.N,Net-(R4-Pad1)*%
X91525000Y-76570000D03*
%TO.P,R4,2*%
%TO.N,/BOOT0*%
X91525000Y-75550000D03*
%TD*%
D24*
%TO.P,C10,1*%
%TO.N,+3.3V*%
X105955000Y-88450000D03*
%TO.P,C10,2*%
%TO.N,GND*%
X104995000Y-88450000D03*
%TD*%
D16*
%TO.P,C7,1*%
%TO.N,/HSE_OUT*%
X92400000Y-83590000D03*
%TO.P,C7,2*%
%TO.N,GND*%
X92400000Y-84550000D03*
%TD*%
D25*
%TO.P,C2,1*%
%TO.N,+3.3V*%
X112450000Y-94150000D03*
%TO.P,C2,2*%
%TO.N,GND*%
X112450000Y-96050000D03*
%TD*%
D20*
%TO.P,R1,1*%
%TO.N,/PWR_LED_K*%
X114200000Y-95890000D03*
%TO.P,R1,2*%
%TO.N,GND*%
X114200000Y-96910000D03*
%TD*%
D19*
%TO.P,C8,1*%
%TO.N,+3.3V*%
X99540000Y-76860000D03*
%TO.P,C8,2*%
%TO.N,GND*%
X100500000Y-76860000D03*
%TD*%
D24*
%TO.P,C11,1*%
%TO.N,+3.3VA*%
X96880000Y-83800000D03*
%TO.P,C11,2*%
%TO.N,GND*%
X95920000Y-83800000D03*
%TD*%
D26*
%TO.P,SW1,*%
%TO.N,*%
X84605000Y-74550000D03*
X82395000Y-74550000D03*
X82395000Y-81850000D03*
X84605000Y-81850000D03*
D27*
%TO.P,SW1,1,A*%
%TO.N,GND*%
X85255000Y-75950000D03*
%TO.P,SW1,2,B*%
%TO.N,Net-(R4-Pad1)*%
X85255000Y-78950000D03*
%TO.P,SW1,3,C*%
%TO.N,+3.3V*%
X85255000Y-80450000D03*
%TD*%
D16*
%TO.P,C9,1*%
%TO.N,+3.3V*%
X108400000Y-79520000D03*
%TO.P,C9,2*%
%TO.N,GND*%
X108400000Y-80480000D03*
%TD*%
D18*
%TO.P,J1,4,Pin_4*%
%TO.N,GND*%
X92210000Y-69400000D03*
%TO.P,J1,3,Pin_3*%
%TO.N,/USART1_RX*%
X94750000Y-69400000D03*
%TO.P,J1,2,Pin_2*%
%TO.N,/USART1_TX*%
X97290000Y-69400000D03*
D17*
%TO.P,J1,1,Pin_1*%
%TO.N,+3.3V*%
X99830000Y-69400000D03*
%TD*%
%TO.P,J2,1,Pin_1*%
%TO.N,+3.3V*%
X91870000Y-97620000D03*
D18*
%TO.P,J2,2,Pin_2*%
%TO.N,/I2C2_SCL*%
X94410000Y-97620000D03*
%TO.P,J2,3,Pin_3*%
%TO.N,/I2C2_SDA*%
X96950000Y-97620000D03*
%TO.P,J2,4,Pin_4*%
%TO.N,GND*%
X99490000Y-97620000D03*
%TD*%
D28*
%TO.P,C1,1*%
%TO.N,VBUS*%
X110000000Y-89100000D03*
%TO.P,C1,2*%
%TO.N,GND*%
X111900000Y-89100000D03*
%TD*%
D29*
%TO.P,U1,3,VI*%
%TO.N,VBUS*%
X110100000Y-91550000D03*
%TO.P,U1,2,VO*%
%TO.N,+3.3V*%
X110100000Y-93850000D03*
D30*
X103800000Y-93850000D03*
D29*
%TO.P,U1,1,GND*%
%TO.N,GND*%
X110100000Y-96150000D03*
%TD*%
D16*
%TO.P,C3,1*%
%TO.N,/HSE_IN*%
X92400000Y-81320000D03*
%TO.P,C3,2*%
%TO.N,GND*%
X92400000Y-82280000D03*
%TD*%
D31*
%TO.P,FB1,1*%
%TO.N,+3.3VA*%
X95200000Y-85650000D03*
%TO.P,FB1,2*%
%TO.N,/Ferrite_cap*%
X95200000Y-86320000D03*
%TD*%
D32*
%TO.P,U2,1,VBAT*%
%TO.N,+3.3V*%
X98387500Y-79850000D03*
%TO.P,U2,2,PC13*%
%TO.N,unconnected-(U2-Pad2)*%
X98387500Y-80350000D03*
%TO.P,U2,3,PC14*%
%TO.N,unconnected-(U2-Pad3)*%
X98387500Y-80850000D03*
%TO.P,U2,4,PC15*%
%TO.N,unconnected-(U2-Pad4)*%
X98387500Y-81350000D03*
%TO.P,U2,5,PD0*%
%TO.N,/HSE_IN*%
X98387500Y-81850000D03*
%TO.P,U2,6,PD1*%
%TO.N,/HSE_OUT*%
X98387500Y-82350000D03*
%TO.P,U2,7,NRST*%
%TO.N,/NRST*%
X98387500Y-82850000D03*
%TO.P,U2,8,VSSA*%
%TO.N,GND*%
X98387500Y-83350000D03*
%TO.P,U2,9,VDDA*%
%TO.N,+3.3VA*%
X98387500Y-83850000D03*
%TO.P,U2,10,PA0*%
%TO.N,unconnected-(U2-Pad10)*%
X98387500Y-84350000D03*
%TO.P,U2,11,PA1*%
%TO.N,unconnected-(U2-Pad11)*%
X98387500Y-84850000D03*
%TO.P,U2,12,PA2*%
%TO.N,unconnected-(U2-Pad12)*%
X98387500Y-85350000D03*
D33*
%TO.P,U2,13,PA3*%
%TO.N,unconnected-(U2-Pad13)*%
X99800000Y-86762500D03*
%TO.P,U2,14,PA4*%
%TO.N,unconnected-(U2-Pad14)*%
X100300000Y-86762500D03*
%TO.P,U2,15,PA5*%
%TO.N,unconnected-(U2-Pad15)*%
X100800000Y-86762500D03*
%TO.P,U2,16,PA6*%
%TO.N,unconnected-(U2-Pad16)*%
X101300000Y-86762500D03*
%TO.P,U2,17,PA7*%
%TO.N,unconnected-(U2-Pad17)*%
X101800000Y-86762500D03*
%TO.P,U2,18,PB0*%
%TO.N,unconnected-(U2-Pad18)*%
X102300000Y-86762500D03*
%TO.P,U2,19,PB1*%
%TO.N,unconnected-(U2-Pad19)*%
X102800000Y-86762500D03*
%TO.P,U2,20,PB2*%
%TO.N,unconnected-(U2-Pad20)*%
X103300000Y-86762500D03*
%TO.P,U2,21,PB10*%
%TO.N,/I2C2_SCL*%
X103800000Y-86762500D03*
%TO.P,U2,22,PB11*%
%TO.N,/I2C2_SDA*%
X104300000Y-86762500D03*
%TO.P,U2,23,VSS*%
%TO.N,GND*%
X104800000Y-86762500D03*
%TO.P,U2,24,VDD*%
%TO.N,+3.3V*%
X105300000Y-86762500D03*
D32*
%TO.P,U2,25,PB12*%
%TO.N,unconnected-(U2-Pad25)*%
X106712500Y-85350000D03*
%TO.P,U2,26,PB13*%
%TO.N,unconnected-(U2-Pad26)*%
X106712500Y-84850000D03*
%TO.P,U2,27,PB14*%
%TO.N,unconnected-(U2-Pad27)*%
X106712500Y-84350000D03*
%TO.P,U2,28,PB15*%
%TO.N,unconnected-(U2-Pad28)*%
X106712500Y-83850000D03*
%TO.P,U2,29,PA8*%
%TO.N,unconnected-(U2-Pad29)*%
X106712500Y-83350000D03*
%TO.P,U2,30,PA9*%
%TO.N,unconnected-(U2-Pad30)*%
X106712500Y-82850000D03*
%TO.P,U2,31,PA10*%
%TO.N,unconnected-(U2-Pad31)*%
X106712500Y-82350000D03*
%TO.P,U2,32,PA11*%
%TO.N,/USB_D-*%
X106712500Y-81850000D03*
%TO.P,U2,33,PA12*%
%TO.N,/USB_D+*%
X106712500Y-81350000D03*
%TO.P,U2,34,PA13*%
%TO.N,/SWDIO*%
X106712500Y-80850000D03*
%TO.P,U2,35,VSS*%
%TO.N,GND*%
X106712500Y-80350000D03*
%TO.P,U2,36,VDD*%
%TO.N,+3.3V*%
X106712500Y-79850000D03*
D33*
%TO.P,U2,37,PA14*%
%TO.N,/SWCLK*%
X105300000Y-78437500D03*
%TO.P,U2,38,PA15*%
%TO.N,unconnected-(U2-Pad38)*%
X104800000Y-78437500D03*
%TO.P,U2,39,PB3*%
%TO.N,unconnected-(U2-Pad39)*%
X104300000Y-78437500D03*
%TO.P,U2,40,PB4*%
%TO.N,unconnected-(U2-Pad40)*%
X103800000Y-78437500D03*
%TO.P,U2,41,PB5*%
%TO.N,unconnected-(U2-Pad41)*%
X103300000Y-78437500D03*
%TO.P,U2,42,PB6*%
%TO.N,/USART1_TX*%
X102800000Y-78437500D03*
%TO.P,U2,43,PB7*%
%TO.N,/USART1_RX*%
X102300000Y-78437500D03*
%TO.P,U2,44,BOOT0*%
%TO.N,/BOOT0*%
X101800000Y-78437500D03*
%TO.P,U2,45,PB8*%
%TO.N,unconnected-(U2-Pad45)*%
X101300000Y-78437500D03*
%TO.P,U2,46,PB9*%
%TO.N,unconnected-(U2-Pad46)*%
X100800000Y-78437500D03*
%TO.P,U2,47,VSS*%
%TO.N,GND*%
X100300000Y-78437500D03*
%TO.P,U2,48,VDD*%
%TO.N,+3.3V*%
X99800000Y-78437500D03*
%TD*%
D34*
%TO.N,GND*%
X93500000Y-82125000D03*
X93400000Y-84475000D03*
X94725000Y-83825000D03*
%TO.N,+3.3V*%
X114075000Y-91150000D03*
X114175000Y-87500000D03*
X114825000Y-83700000D03*
X114800000Y-80700500D03*
X93625000Y-93500000D03*
X95242477Y-93517477D03*
X99200000Y-92400000D03*
X100425000Y-93675000D03*
%TO.N,GND*%
X113050000Y-97300000D03*
X111875000Y-97325000D03*
X110700000Y-97975000D03*
X109400000Y-97975000D03*
X114200000Y-97900000D03*
X113225000Y-88700000D03*
X113225000Y-89775000D03*
X95625000Y-80325000D03*
X90400000Y-78625000D03*
X104800000Y-85350000D03*
X94100000Y-88500000D03*
X100300000Y-79825000D03*
X119550000Y-80000000D03*
X88725000Y-83675000D03*
X100200000Y-88600000D03*
X96025000Y-86825000D03*
X87050000Y-75275000D03*
X109400000Y-80550000D03*
X99704362Y-83611409D03*
%TD*%
D35*
%TO.N,unconnected-(J4-Pad6)*%
X120725000Y-85175000D02*
X120825000Y-85275000D01*
X121850000Y-85275000D02*
X120825000Y-85275000D01*
X120725000Y-77525000D02*
X118200000Y-77525000D01*
X120725000Y-77525000D02*
X120725000Y-85175000D01*
X121850000Y-77525000D02*
X120725000Y-77525000D01*
X120825000Y-85275000D02*
X118200000Y-85275000D01*
X118200000Y-85275000D02*
X118050000Y-85125000D01*
X118200000Y-77525000D02*
X118050000Y-77675000D01*
%TO.N,/PWR_LED_K*%
X114175000Y-95865000D02*
X114200000Y-95890000D01*
X114175000Y-94670000D02*
X114175000Y-95865000D01*
%TO.N,+3.3V*%
X113875000Y-93125000D02*
X113125000Y-93125000D01*
X114175000Y-93425000D02*
X113875000Y-93125000D01*
X114175000Y-94030000D02*
X114175000Y-93425000D01*
D36*
X113125000Y-92100000D02*
X113125000Y-93125000D01*
X114075000Y-91150000D02*
X113125000Y-92100000D01*
D35*
X112525000Y-93125000D02*
X113125000Y-93125000D01*
X112450000Y-93200000D02*
X112525000Y-93125000D01*
X112450000Y-94150000D02*
X112450000Y-93200000D01*
X100600000Y-93850000D02*
X103800000Y-93850000D01*
X100425000Y-93675000D02*
X100600000Y-93850000D01*
X97400000Y-93200000D02*
X97400000Y-93525000D01*
X99200000Y-92400000D02*
X98200000Y-92400000D01*
X98200000Y-92400000D02*
X97400000Y-93200000D01*
%TO.N,/I2C2_SDA*%
X104300000Y-88635661D02*
X98425000Y-94510661D01*
X104300000Y-86762500D02*
X104300000Y-88635661D01*
X98425000Y-94510661D02*
X98425000Y-94990000D01*
X98425000Y-94990000D02*
X98425000Y-96145000D01*
X98425000Y-96145000D02*
X96950000Y-97620000D01*
D36*
%TO.N,GND*%
X92555000Y-82125000D02*
X92400000Y-82280000D01*
X93500000Y-82125000D02*
X92555000Y-82125000D01*
%TO.N,+3.3V*%
X114825000Y-86850000D02*
X114175000Y-87500000D01*
X114825000Y-83700000D02*
X114825000Y-86850000D01*
D35*
%TO.N,GND*%
X118100000Y-80000000D02*
X119550000Y-80000000D01*
X118000000Y-80100000D02*
X118100000Y-80000000D01*
D37*
%TO.N,/USB_D+*%
X106762499Y-81399999D02*
X118000000Y-81400000D01*
X106712500Y-81350000D02*
X106762499Y-81399999D01*
%TO.N,/USB_D-*%
X117324999Y-82050000D02*
X118000000Y-82050000D01*
X117124999Y-81850000D02*
X117324999Y-82050000D01*
X106712500Y-81850000D02*
X117124999Y-81850000D01*
D36*
%TO.N,GND*%
X94725000Y-83825000D02*
X94750000Y-83800000D01*
X94750000Y-83800000D02*
X95920000Y-83800000D01*
X92475000Y-84475000D02*
X92400000Y-84550000D01*
X93400000Y-84475000D02*
X92475000Y-84475000D01*
%TO.N,+3.3V*%
X108840000Y-79080000D02*
X108400000Y-79520000D01*
X112630000Y-79080000D02*
X108840000Y-79080000D01*
X112630000Y-79080000D02*
X112630000Y-79420000D01*
X112630000Y-69400000D02*
X112630000Y-79080000D01*
D35*
X105955000Y-89345000D02*
X105955000Y-88450000D01*
X103800000Y-93850000D02*
X103800000Y-91500000D01*
X103800000Y-91500000D02*
X105955000Y-89345000D01*
D36*
X87875000Y-89600000D02*
X92012500Y-93737500D01*
X87875000Y-83520000D02*
X87875000Y-89600000D01*
X85255000Y-80900000D02*
X87875000Y-83520000D01*
X85255000Y-80450000D02*
X85255000Y-80900000D01*
X99200000Y-75350000D02*
X98825000Y-75350000D01*
X98825000Y-75350000D02*
X96250000Y-77925000D01*
X96250000Y-77925000D02*
X96750000Y-78425000D01*
X95925000Y-77600000D02*
X96250000Y-77925000D01*
X88350000Y-77600000D02*
X95925000Y-77600000D01*
X96750000Y-78425000D02*
X96750000Y-79400000D01*
X85255000Y-80450000D02*
X85500000Y-80450000D01*
X85500000Y-80450000D02*
X88350000Y-77600000D01*
X112150000Y-67675000D02*
X101555000Y-67675000D01*
X112630000Y-68155000D02*
X112150000Y-67675000D01*
X101555000Y-67675000D02*
X99830000Y-69400000D01*
X112630000Y-69400000D02*
X112630000Y-68155000D01*
X112630000Y-79420000D02*
X113425000Y-80215000D01*
X114314500Y-80215000D02*
X114800000Y-80700500D01*
X113425000Y-80215000D02*
X114314500Y-80215000D01*
D35*
X91850000Y-93900000D02*
X91870000Y-93920000D01*
X91870000Y-93920000D02*
X91870000Y-97620000D01*
X92250000Y-93500000D02*
X91850000Y-93900000D01*
X93625000Y-93500000D02*
X92250000Y-93500000D01*
X95242477Y-94817477D02*
X95400000Y-94975000D01*
X95242477Y-93517477D02*
X95242477Y-94817477D01*
X95250000Y-93525000D02*
X95242477Y-93517477D01*
X97400000Y-93525000D02*
X95250000Y-93525000D01*
X97400000Y-93525000D02*
X97400000Y-94985000D01*
X97400000Y-94985000D02*
X97405000Y-94990000D01*
D36*
%TO.N,GND*%
X88700000Y-82300000D02*
X88700000Y-83650000D01*
X85255000Y-75950000D02*
X86375000Y-75950000D01*
D35*
X100300000Y-77500000D02*
X100600000Y-77200000D01*
D36*
X96410000Y-85890000D02*
X96050000Y-86250000D01*
X95660000Y-80360000D02*
X95625000Y-80325000D01*
X109400000Y-80550000D02*
X108470000Y-80550000D01*
X108470000Y-80550000D02*
X108400000Y-80480000D01*
X88700000Y-83650000D02*
X88725000Y-83675000D01*
X100750000Y-76610000D02*
X100500000Y-76860000D01*
X96050000Y-86250000D02*
X96025000Y-86275000D01*
D35*
X104800000Y-86762500D02*
X104800000Y-88255000D01*
X98387500Y-83350000D02*
X99442953Y-83350000D01*
D36*
X99260000Y-88600000D02*
X100200000Y-88600000D01*
D35*
X106712500Y-80350000D02*
X108270000Y-80350000D01*
X100600000Y-77200000D02*
X100600000Y-76960000D01*
X104800000Y-88255000D02*
X104995000Y-88450000D01*
X100300000Y-78437500D02*
X100300000Y-77500000D01*
D36*
X86375000Y-75950000D02*
X87050000Y-75275000D01*
D35*
X99442953Y-83350000D02*
X99704362Y-83611409D01*
D36*
X100750000Y-75350000D02*
X100750000Y-76610000D01*
D35*
X100300000Y-78437500D02*
X100300000Y-79825000D01*
D36*
X90400000Y-80100000D02*
X90400000Y-78625000D01*
X95200000Y-88500000D02*
X94100000Y-88500000D01*
D35*
X108270000Y-80350000D02*
X108400000Y-80480000D01*
X100600000Y-76960000D02*
X100500000Y-76860000D01*
D36*
X96025000Y-86275000D02*
X96025000Y-86825000D01*
X96750000Y-85890000D02*
X96410000Y-85890000D01*
D35*
X104800000Y-86762500D02*
X104800000Y-85350000D01*
D36*
X96750000Y-80360000D02*
X95660000Y-80360000D01*
D35*
%TO.N,+3.3V*%
X105300000Y-87175000D02*
X105955000Y-87830000D01*
X107550000Y-79850000D02*
X107880000Y-79520000D01*
X97400000Y-79400000D02*
X96750000Y-79400000D01*
X107880000Y-79520000D02*
X108400000Y-79520000D01*
D36*
X99200000Y-75350000D02*
X99200000Y-76520000D01*
D35*
X99540000Y-77540000D02*
X99540000Y-76860000D01*
X99800000Y-78437500D02*
X99800000Y-77800000D01*
X98387500Y-79850000D02*
X97850000Y-79850000D01*
D36*
X99200000Y-76520000D02*
X99540000Y-76860000D01*
D35*
X97850000Y-79850000D02*
X97400000Y-79400000D01*
X99800000Y-77800000D02*
X99540000Y-77540000D01*
X105955000Y-87830000D02*
X105955000Y-88450000D01*
X105300000Y-86762500D02*
X105300000Y-87175000D01*
X106712500Y-79850000D02*
X107550000Y-79850000D01*
%TO.N,/HSE_IN*%
X92400000Y-81320000D02*
X92330000Y-81250000D01*
X89050000Y-81250000D02*
X88700000Y-80900000D01*
X96720000Y-81320000D02*
X92400000Y-81320000D01*
X97250000Y-81850000D02*
X96720000Y-81320000D01*
X98387500Y-81850000D02*
X97250000Y-81850000D01*
X92330000Y-81250000D02*
X89050000Y-81250000D01*
X88700000Y-80900000D02*
X88700000Y-80100000D01*
%TO.N,/NRST*%
X98300000Y-86776041D02*
X98300000Y-88600000D01*
X101000000Y-84076041D02*
X98300000Y-86776041D01*
X98387500Y-82850000D02*
X100225000Y-82850000D01*
X101000000Y-83625000D02*
X101000000Y-84076041D01*
X100225000Y-82850000D02*
X101000000Y-83625000D01*
%TO.N,/HSE_OUT*%
X93660000Y-82940000D02*
X93000000Y-83600000D01*
X92410000Y-83600000D02*
X92400000Y-83590000D01*
X93000000Y-83600000D02*
X92410000Y-83600000D01*
X91690000Y-83590000D02*
X90400000Y-82300000D01*
X92400000Y-83590000D02*
X91690000Y-83590000D01*
X96958959Y-82940000D02*
X93660000Y-82940000D01*
X97548959Y-82350000D02*
X96958959Y-82940000D01*
X98387500Y-82350000D02*
X97548959Y-82350000D01*
%TO.N,+3.3VA*%
X95950000Y-84930000D02*
X95200000Y-85680000D01*
X96750000Y-84930000D02*
X95950000Y-84930000D01*
X96930000Y-83850000D02*
X96880000Y-83800000D01*
X98387500Y-83850000D02*
X96930000Y-83850000D01*
X96880000Y-83800000D02*
X96880000Y-84800000D01*
X96880000Y-84800000D02*
X96750000Y-84930000D01*
%TO.N,/USART1_TX*%
X104125000Y-76225000D02*
X104125000Y-72225000D01*
X104125000Y-72225000D02*
X102800000Y-70900000D01*
X98075000Y-70900000D02*
X97290000Y-70115000D01*
X97290000Y-70115000D02*
X97290000Y-69400000D01*
X102800000Y-77550000D02*
X104125000Y-76225000D01*
X102800000Y-70900000D02*
X98075000Y-70900000D01*
X102800000Y-78437500D02*
X102800000Y-77550000D01*
%TO.N,/USART1_RX*%
X103075000Y-72800000D02*
X102200000Y-71925000D01*
X102300000Y-76600000D02*
X103075000Y-75825000D01*
X102300000Y-78437500D02*
X102300000Y-76600000D01*
X95650000Y-71925000D02*
X94750000Y-71025000D01*
X102200000Y-71925000D02*
X95650000Y-71925000D01*
X103075000Y-75825000D02*
X103075000Y-72800000D01*
X94750000Y-71025000D02*
X94750000Y-69400000D01*
%TO.N,/I2C2_SCL*%
X103800000Y-87825000D02*
X101550000Y-90075000D01*
X103800000Y-86762500D02*
X103800000Y-87825000D01*
X94380000Y-97590000D02*
X94410000Y-97620000D01*
X94375000Y-94970000D02*
X94380000Y-94975000D01*
X94380000Y-94975000D02*
X94380000Y-97590000D01*
X101550000Y-90075000D02*
X97625000Y-90075000D01*
X97625000Y-90075000D02*
X94375000Y-93325000D01*
X94375000Y-93325000D02*
X94375000Y-94970000D01*
%TO.N,/SWDIO*%
X105625000Y-80601041D02*
X105625000Y-79475000D01*
X105873959Y-80850000D02*
X105625000Y-80601041D01*
X105625000Y-79475000D02*
X110090000Y-75010000D01*
X110090000Y-75010000D02*
X110090000Y-69400000D01*
X106712500Y-80850000D02*
X105873959Y-80850000D01*
%TO.N,/SWCLK*%
X107550000Y-74700000D02*
X107550000Y-69400000D01*
X105300000Y-78437500D02*
X105300000Y-76950000D01*
X105300000Y-76950000D02*
X107550000Y-74700000D01*
%TO.N,Net-(R4-Pad1)*%
X91525000Y-76570000D02*
X87005000Y-76570000D01*
X85255000Y-78320000D02*
X85255000Y-78950000D01*
X87005000Y-76570000D02*
X85255000Y-78320000D01*
%TO.N,/BOOT0*%
X93975000Y-73100000D02*
X91525000Y-75550000D01*
X100975000Y-73100000D02*
X93975000Y-73100000D01*
X101800000Y-78437500D02*
X101800000Y-73925000D01*
X101800000Y-73925000D02*
X100975000Y-73100000D01*
%TO.N,/Ferrite_cap*%
X95200000Y-86320000D02*
X95200000Y-87540000D01*
%TD*%
%TA.AperFunction,Conductor*%
%TO.N,GND*%
G36*
X113764845Y-88091050D02*
G01*
X113823110Y-88106072D01*
X113915235Y-88156092D01*
X114024600Y-88184783D01*
X114072005Y-88197220D01*
X114072007Y-88197220D01*
X114079233Y-88199116D01*
X114162178Y-88200419D01*
X114241290Y-88201662D01*
X114241293Y-88201662D01*
X114248760Y-88201779D01*
X114371209Y-88173735D01*
X114406738Y-88165598D01*
X114406739Y-88165598D01*
X114414029Y-88163928D01*
X114420708Y-88160569D01*
X114420713Y-88160567D01*
X114520940Y-88110158D01*
X114577554Y-88096939D01*
X114945990Y-88099609D01*
X115012885Y-88119779D01*
X115036498Y-88139816D01*
X116067407Y-89264444D01*
X116098197Y-89327164D01*
X116100000Y-89348234D01*
X116100000Y-98081503D01*
X116080315Y-98148542D01*
X116072828Y-98158965D01*
X115637230Y-98703462D01*
X115579979Y-98743514D01*
X115540402Y-98750000D01*
X108822092Y-98750000D01*
X108755053Y-98730315D01*
X108709298Y-98677511D01*
X108698107Y-98627922D01*
X108650863Y-95580690D01*
X108669506Y-95513356D01*
X108691056Y-95487365D01*
X108914444Y-95282593D01*
X108977164Y-95251803D01*
X108998234Y-95250000D01*
X113063891Y-95250000D01*
X113130464Y-95269386D01*
X113317573Y-95388456D01*
X113363563Y-95441055D01*
X113375000Y-95493070D01*
X113375000Y-96275000D01*
X113625000Y-96500000D01*
X114800000Y-96500000D01*
X114800000Y-96178836D01*
X114807005Y-96137750D01*
X114815114Y-96114659D01*
X114815116Y-96114652D01*
X114817618Y-96107526D01*
X114820500Y-96077038D01*
X114820500Y-95702962D01*
X114817618Y-95672474D01*
X114815116Y-95665348D01*
X114815114Y-95665341D01*
X114807005Y-95642250D01*
X114800000Y-95601164D01*
X114800000Y-90975000D01*
X114792143Y-90966072D01*
X114792143Y-90966071D01*
X114740880Y-90907818D01*
X114717974Y-90869731D01*
X114702989Y-90830073D01*
X114702987Y-90830070D01*
X114700345Y-90823077D01*
X114636150Y-90729673D01*
X114608549Y-90689513D01*
X114608546Y-90689510D01*
X114604312Y-90683349D01*
X114477721Y-90570560D01*
X114471113Y-90567062D01*
X114471107Y-90567057D01*
X114434819Y-90547843D01*
X114399755Y-90520175D01*
X114317626Y-90426848D01*
X114250000Y-90350000D01*
X111626362Y-90350000D01*
X111559323Y-90330315D01*
X111538681Y-90313681D01*
X111211319Y-89986319D01*
X111177834Y-89924996D01*
X111175000Y-89898638D01*
X111175000Y-88546885D01*
X111194685Y-88479846D01*
X111206020Y-88464844D01*
X111442159Y-88197220D01*
X111512619Y-88117365D01*
X111571734Y-88080120D01*
X111606495Y-88075409D01*
X113764845Y-88091050D01*
G37*
%TD.AperFunction*%
%TD*%
%TA.AperFunction,Conductor*%
%TO.N,VBUS*%
G36*
X117031872Y-82349815D02*
G01*
X117078439Y-82403976D01*
X117098061Y-82448153D01*
X117177287Y-82527241D01*
X117187758Y-82531870D01*
X117187759Y-82531871D01*
X117271147Y-82568737D01*
X117271149Y-82568738D01*
X117279673Y-82572506D01*
X117305354Y-82575500D01*
X118694646Y-82575500D01*
X118698300Y-82575065D01*
X118698302Y-82575065D01*
X118703266Y-82574474D01*
X118720846Y-82572382D01*
X118823153Y-82526939D01*
X118838242Y-82511823D01*
X118899538Y-82478286D01*
X118969234Y-82483210D01*
X119025203Y-82525033D01*
X119049676Y-82590476D01*
X119050000Y-82599429D01*
X119050000Y-82798638D01*
X119030315Y-82865677D01*
X119013681Y-82886319D01*
X118936475Y-82963525D01*
X118875152Y-82997010D01*
X118848417Y-82999843D01*
X110692829Y-82975054D01*
X110692828Y-82975054D01*
X110675000Y-82975000D01*
X110675000Y-88175000D01*
X110700000Y-90175000D01*
X111199541Y-90609384D01*
X111232366Y-90637927D01*
X111270038Y-90696771D01*
X111275000Y-90731498D01*
X111275000Y-92227855D01*
X111255315Y-92294894D01*
X111243679Y-92310236D01*
X111111995Y-92458381D01*
X111052744Y-92495409D01*
X111019316Y-92500000D01*
X109189088Y-92500000D01*
X109117979Y-92477585D01*
X108952891Y-92362024D01*
X108909258Y-92307453D01*
X108900000Y-92260439D01*
X108900000Y-88078235D01*
X108919685Y-88011196D01*
X108938595Y-87988335D01*
X109387075Y-87562279D01*
X109387075Y-87562278D01*
X109400000Y-87550000D01*
X109400000Y-82745871D01*
X109419685Y-82678832D01*
X109429852Y-82665173D01*
X109663016Y-82393148D01*
X109721590Y-82355058D01*
X109756828Y-82349846D01*
X109908574Y-82349435D01*
X116964780Y-82330312D01*
X117031872Y-82349815D01*
G37*
%TD.AperFunction*%
%TD*%
%TA.AperFunction,Conductor*%
%TO.N,+3.3V*%
G36*
X104860771Y-91769685D02*
G01*
X104887052Y-91792345D01*
X104994320Y-91914937D01*
X105023651Y-91978352D01*
X105025000Y-91996592D01*
X105025000Y-92750000D01*
X105175000Y-92950000D01*
X111089437Y-92950000D01*
X111155157Y-92968848D01*
X111266720Y-93038575D01*
X111313136Y-93090799D01*
X111325000Y-93143727D01*
X111325000Y-93300000D01*
X111525000Y-93450000D01*
X113060912Y-93450000D01*
X113132021Y-93472415D01*
X113297109Y-93587976D01*
X113340742Y-93642547D01*
X113350000Y-93689561D01*
X113350000Y-94548638D01*
X113330315Y-94615677D01*
X113313681Y-94636319D01*
X113136480Y-94813520D01*
X113075157Y-94847005D01*
X113048410Y-94849838D01*
X107392384Y-94832108D01*
X105125000Y-94825000D01*
X105000000Y-95000000D01*
X105000000Y-95677855D01*
X104980315Y-95744894D01*
X104968679Y-95760236D01*
X104836995Y-95908381D01*
X104777744Y-95945409D01*
X104744316Y-95950000D01*
X102817546Y-95950000D01*
X102750507Y-95930315D01*
X102741417Y-95923880D01*
X102598273Y-95812546D01*
X102557441Y-95755849D01*
X102550405Y-95713845D01*
X102574688Y-92047112D01*
X102594816Y-91980204D01*
X102606517Y-91964981D01*
X102763057Y-91791048D01*
X102822535Y-91754387D01*
X102855225Y-91750000D01*
X104793732Y-91750000D01*
X104860771Y-91769685D01*
G37*
%TD.AperFunction*%
%TD*%
M02*
