%TF.GenerationSoftware,KiCad,Pcbnew,(6.0.10)*%
%TF.CreationDate,2023-05-01T12:45:21+05:45*%
%TF.ProjectId,arduino,61726475-696e-46f2-9e6b-696361645f70,rev?*%
%TF.SameCoordinates,Original*%
%TF.FileFunction,Copper,L2,Bot*%
%TF.FilePolarity,Positive*%
%FSLAX46Y46*%
G04 Gerber Fmt 4.6, Leading zero omitted, Abs format (unit mm)*
G04 Created by KiCad (PCBNEW (6.0.10)) date 2023-05-01 12:45:21*
%MOMM*%
%LPD*%
G01*
G04 APERTURE LIST*
%TA.AperFunction,ComponentPad*%
%ADD10O,1.800000X1.150000*%
%TD*%
%TA.AperFunction,ComponentPad*%
%ADD11O,2.000000X1.450000*%
%TD*%
%TA.AperFunction,ComponentPad*%
%ADD12R,1.700000X1.700000*%
%TD*%
%TA.AperFunction,ComponentPad*%
%ADD13O,1.700000X1.700000*%
%TD*%
%TA.AperFunction,ViaPad*%
%ADD14C,0.800000*%
%TD*%
%TA.AperFunction,Conductor*%
%ADD15C,0.300000*%
%TD*%
%TA.AperFunction,Conductor*%
%ADD16C,0.500000*%
%TD*%
G04 APERTURE END LIST*
D10*
%TO.P,J4,6,Shield*%
%TO.N,unconnected-(J4-Pad6)*%
X121850000Y-85275000D03*
D11*
X118050000Y-77675000D03*
D10*
X121850000Y-77525000D03*
D11*
X118050000Y-85125000D03*
%TD*%
D12*
%TO.P,J3,1,Pin_1*%
%TO.N,+3.3V*%
X112630000Y-69400000D03*
D13*
%TO.P,J3,2,Pin_2*%
%TO.N,/SWDIO*%
X110090000Y-69400000D03*
%TO.P,J3,3,Pin_3*%
%TO.N,/SWCLK*%
X107550000Y-69400000D03*
%TO.P,J3,4,Pin_4*%
%TO.N,GND*%
X105010000Y-69400000D03*
%TD*%
%TO.P,J1,4,Pin_4*%
%TO.N,GND*%
X92210000Y-69400000D03*
%TO.P,J1,3,Pin_3*%
%TO.N,/USART1_RX*%
X94750000Y-69400000D03*
%TO.P,J1,2,Pin_2*%
%TO.N,/USART1_TX*%
X97290000Y-69400000D03*
D12*
%TO.P,J1,1,Pin_1*%
%TO.N,+3.3V*%
X99830000Y-69400000D03*
%TD*%
%TO.P,J2,1,Pin_1*%
%TO.N,+3.3V*%
X91870000Y-97620000D03*
D13*
%TO.P,J2,2,Pin_2*%
%TO.N,/I2C2_SCL*%
X94410000Y-97620000D03*
%TO.P,J2,3,Pin_3*%
%TO.N,/I2C2_SDA*%
X96950000Y-97620000D03*
%TO.P,J2,4,Pin_4*%
%TO.N,GND*%
X99490000Y-97620000D03*
%TD*%
D14*
%TO.N,GND*%
X93500000Y-82125000D03*
X93400000Y-84475000D03*
X94725000Y-83825000D03*
%TO.N,+3.3V*%
X114075000Y-91150000D03*
X114175000Y-87500000D03*
X114825000Y-83700000D03*
X114800000Y-80700500D03*
X93625000Y-93500000D03*
X95242477Y-93517477D03*
X99200000Y-92400000D03*
X100425000Y-93675000D03*
%TO.N,GND*%
X113050000Y-97300000D03*
X111875000Y-97325000D03*
X110700000Y-97975000D03*
X109400000Y-97975000D03*
X114200000Y-97900000D03*
X113225000Y-88700000D03*
X113225000Y-89775000D03*
X95625000Y-80325000D03*
X90400000Y-78625000D03*
X104800000Y-85350000D03*
X94100000Y-88500000D03*
X100300000Y-79825000D03*
X119550000Y-80000000D03*
X88725000Y-83675000D03*
X100200000Y-88600000D03*
X96025000Y-86825000D03*
X87050000Y-75275000D03*
X109400000Y-80550000D03*
X99704362Y-83611409D03*
%TD*%
D15*
%TO.N,+3.3V*%
X99200000Y-92450000D02*
X99200000Y-92400000D01*
X100425000Y-93675000D02*
X99200000Y-92450000D01*
D16*
X114800000Y-83675000D02*
X114800000Y-80700500D01*
X114825000Y-83700000D02*
X114800000Y-83675000D01*
X114175000Y-87500000D02*
X114175000Y-91050000D01*
X114175000Y-91050000D02*
X114075000Y-91150000D01*
D15*
X93642477Y-93517477D02*
X93625000Y-93500000D01*
X95242477Y-93517477D02*
X93642477Y-93517477D01*
%TD*%
%TA.AperFunction,Conductor*%
%TO.N,GND*%
G36*
X119134391Y-66702384D02*
G01*
X119150000Y-66705136D01*
X119160684Y-66703252D01*
X119166593Y-66703252D01*
X119184555Y-66702098D01*
X119360530Y-66710234D01*
X119504084Y-66716871D01*
X119515473Y-66717926D01*
X119860864Y-66766106D01*
X119872108Y-66768208D01*
X120041840Y-66808129D01*
X120211565Y-66848048D01*
X120222581Y-66851182D01*
X120553231Y-66962005D01*
X120563911Y-66966143D01*
X120882909Y-67106994D01*
X120893162Y-67112099D01*
X121197815Y-67281789D01*
X121207542Y-67287811D01*
X121392680Y-67414634D01*
X121495250Y-67484896D01*
X121504390Y-67491799D01*
X121772666Y-67714573D01*
X121781130Y-67722289D01*
X122027711Y-67968870D01*
X122035427Y-67977334D01*
X122258201Y-68245610D01*
X122265104Y-68254750D01*
X122455955Y-68533357D01*
X122462185Y-68542452D01*
X122468211Y-68552185D01*
X122512344Y-68631419D01*
X122637901Y-68856838D01*
X122643006Y-68867091D01*
X122783857Y-69186089D01*
X122787995Y-69196769D01*
X122898818Y-69527419D01*
X122901952Y-69538435D01*
X122913199Y-69586253D01*
X122967648Y-69817752D01*
X122981791Y-69877885D01*
X122983894Y-69889136D01*
X123030137Y-70220644D01*
X123032073Y-70234520D01*
X123033129Y-70245916D01*
X123036142Y-70311068D01*
X123047902Y-70565445D01*
X123046748Y-70583407D01*
X123046748Y-70589316D01*
X123044864Y-70600000D01*
X123046748Y-70610683D01*
X123047616Y-70615606D01*
X123049500Y-70637139D01*
X123049500Y-76864565D01*
X123029815Y-76931604D01*
X122977011Y-76977359D01*
X122907853Y-76987303D01*
X122844297Y-76958278D01*
X122830789Y-76944602D01*
X122786655Y-76892376D01*
X122786653Y-76892374D01*
X122782322Y-76887249D01*
X122696756Y-76821829D01*
X122636544Y-76775793D01*
X122636541Y-76775791D01*
X122631207Y-76771713D01*
X122565047Y-76740862D01*
X122464891Y-76694159D01*
X122458807Y-76691322D01*
X122452262Y-76689859D01*
X122452259Y-76689858D01*
X122340522Y-76664882D01*
X122273166Y-76649826D01*
X122267335Y-76649500D01*
X121477483Y-76649500D01*
X121335891Y-76664882D01*
X121155604Y-76725555D01*
X120992553Y-76823526D01*
X120987676Y-76828138D01*
X120860406Y-76948491D01*
X120854342Y-76954225D01*
X120850569Y-76959777D01*
X120850568Y-76959778D01*
X120752480Y-77104112D01*
X120747422Y-77111554D01*
X120744930Y-77117784D01*
X120744928Y-77117788D01*
X120730993Y-77152628D01*
X120676779Y-77288173D01*
X120675683Y-77294796D01*
X120675682Y-77294798D01*
X120647043Y-77467797D01*
X120645711Y-77475840D01*
X120655667Y-77665801D01*
X120706181Y-77849193D01*
X120794898Y-78017460D01*
X120799229Y-78022585D01*
X120799231Y-78022588D01*
X120890554Y-78130654D01*
X120917678Y-78162751D01*
X120958016Y-78193592D01*
X121063456Y-78274207D01*
X121063459Y-78274209D01*
X121068793Y-78278287D01*
X121074882Y-78281126D01*
X121074883Y-78281127D01*
X121212568Y-78345330D01*
X121241193Y-78358678D01*
X121247738Y-78360141D01*
X121247741Y-78360142D01*
X121316915Y-78375604D01*
X121426834Y-78400174D01*
X121432665Y-78400500D01*
X122222517Y-78400500D01*
X122364109Y-78385118D01*
X122392380Y-78375604D01*
X122538025Y-78326589D01*
X122538024Y-78326589D01*
X122544396Y-78324445D01*
X122707447Y-78226474D01*
X122840303Y-78100839D01*
X122902536Y-78069081D01*
X122972061Y-78076010D01*
X123026804Y-78119427D01*
X123049500Y-78190936D01*
X123049500Y-84614565D01*
X123029815Y-84681604D01*
X122977011Y-84727359D01*
X122907853Y-84737303D01*
X122844297Y-84708278D01*
X122830789Y-84694602D01*
X122786655Y-84642376D01*
X122786653Y-84642374D01*
X122782322Y-84637249D01*
X122697231Y-84572192D01*
X122636544Y-84525793D01*
X122636541Y-84525791D01*
X122631207Y-84521713D01*
X122604307Y-84509169D01*
X122464891Y-84444159D01*
X122458807Y-84441322D01*
X122452262Y-84439859D01*
X122452259Y-84439858D01*
X122340522Y-84414882D01*
X122273166Y-84399826D01*
X122267335Y-84399500D01*
X121477483Y-84399500D01*
X121335891Y-84414882D01*
X121155604Y-84475555D01*
X120992553Y-84573526D01*
X120854342Y-84704225D01*
X120850569Y-84709777D01*
X120850568Y-84709778D01*
X120801120Y-84782540D01*
X120747422Y-84861554D01*
X120744930Y-84867784D01*
X120744928Y-84867788D01*
X120724926Y-84917797D01*
X120676779Y-85038173D01*
X120645711Y-85225840D01*
X120655667Y-85415801D01*
X120706181Y-85599193D01*
X120794898Y-85767460D01*
X120799229Y-85772585D01*
X120799231Y-85772588D01*
X120913345Y-85907624D01*
X120917678Y-85912751D01*
X120958016Y-85943592D01*
X121063456Y-86024207D01*
X121063459Y-86024209D01*
X121068793Y-86028287D01*
X121074882Y-86031126D01*
X121074883Y-86031127D01*
X121235109Y-86105841D01*
X121241193Y-86108678D01*
X121247738Y-86110141D01*
X121247741Y-86110142D01*
X121339890Y-86130740D01*
X121426834Y-86150174D01*
X121432665Y-86150500D01*
X122222517Y-86150500D01*
X122364109Y-86135118D01*
X122544396Y-86074445D01*
X122707447Y-85976474D01*
X122840303Y-85850839D01*
X122902536Y-85819081D01*
X122972061Y-85826010D01*
X123026804Y-85869427D01*
X123049500Y-85940936D01*
X123049500Y-96162861D01*
X123047616Y-96184391D01*
X123044864Y-96200000D01*
X123046748Y-96210684D01*
X123046748Y-96216593D01*
X123047902Y-96234555D01*
X123044778Y-96302125D01*
X123034971Y-96514262D01*
X123033130Y-96554076D01*
X123032074Y-96565473D01*
X123004809Y-96760935D01*
X122983896Y-96910856D01*
X122981792Y-96922108D01*
X122941871Y-97091840D01*
X122901952Y-97261565D01*
X122898818Y-97272581D01*
X122787995Y-97603231D01*
X122783857Y-97613911D01*
X122643006Y-97932909D01*
X122637901Y-97943162D01*
X122519953Y-98154921D01*
X122468214Y-98247810D01*
X122462189Y-98257542D01*
X122283564Y-98518302D01*
X122265104Y-98545250D01*
X122258201Y-98554390D01*
X122035427Y-98822666D01*
X122027711Y-98831130D01*
X121781130Y-99077711D01*
X121772666Y-99085427D01*
X121504390Y-99308201D01*
X121495250Y-99315104D01*
X121207542Y-99512189D01*
X121197815Y-99518211D01*
X121057029Y-99596628D01*
X120893162Y-99687901D01*
X120882909Y-99693006D01*
X120563911Y-99833857D01*
X120553231Y-99837995D01*
X120222581Y-99948818D01*
X120211565Y-99951952D01*
X120041840Y-99991871D01*
X119872108Y-100031792D01*
X119860864Y-100033894D01*
X119515473Y-100082074D01*
X119504084Y-100083129D01*
X119360530Y-100089766D01*
X119184555Y-100097902D01*
X119166593Y-100096748D01*
X119160684Y-100096748D01*
X119150000Y-100094864D01*
X119139316Y-100096748D01*
X119139315Y-100096748D01*
X119134387Y-100097617D01*
X119112854Y-100099501D01*
X102446081Y-100099614D01*
X85782382Y-100099726D01*
X85760851Y-100097842D01*
X85745243Y-100095090D01*
X85734558Y-100096974D01*
X85728168Y-100096974D01*
X85710732Y-100098082D01*
X85529659Y-100089458D01*
X85380456Y-100082353D01*
X85368717Y-100081231D01*
X85013085Y-100030103D01*
X85001507Y-100027872D01*
X84652335Y-99943166D01*
X84641023Y-99939845D01*
X84301501Y-99822337D01*
X84290546Y-99817952D01*
X84284740Y-99815301D01*
X83963708Y-99668692D01*
X83953237Y-99663294D01*
X83642087Y-99483653D01*
X83632160Y-99477274D01*
X83339488Y-99268864D01*
X83330212Y-99261569D01*
X83058683Y-99026288D01*
X83050143Y-99018145D01*
X82811041Y-98767382D01*
X82802211Y-98758121D01*
X82794484Y-98749204D01*
X82790002Y-98743504D01*
X82706763Y-98637657D01*
X82610026Y-98514646D01*
X90719500Y-98514646D01*
X90722618Y-98540846D01*
X90768061Y-98643153D01*
X90847287Y-98722241D01*
X90857758Y-98726870D01*
X90857759Y-98726871D01*
X90941147Y-98763737D01*
X90941149Y-98763738D01*
X90949673Y-98767506D01*
X90975354Y-98770500D01*
X92764646Y-98770500D01*
X92768300Y-98770065D01*
X92768302Y-98770065D01*
X92773266Y-98769474D01*
X92790846Y-98767382D01*
X92893153Y-98721939D01*
X92972241Y-98642713D01*
X93017506Y-98540327D01*
X93020500Y-98514646D01*
X93020500Y-97800300D01*
X93040185Y-97733261D01*
X93092989Y-97687506D01*
X93162147Y-97677562D01*
X93225703Y-97706587D01*
X93263477Y-97765365D01*
X93268234Y-97792190D01*
X93268423Y-97795072D01*
X93268425Y-97795082D01*
X93268796Y-97800749D01*
X93320845Y-98005690D01*
X93323219Y-98010841D01*
X93323221Y-98010845D01*
X93360908Y-98092594D01*
X93409369Y-98197714D01*
X93412647Y-98202352D01*
X93511768Y-98342605D01*
X93531405Y-98370391D01*
X93682865Y-98517937D01*
X93687588Y-98521093D01*
X93687592Y-98521096D01*
X93758663Y-98568584D01*
X93858677Y-98635411D01*
X94052953Y-98718878D01*
X94088277Y-98726871D01*
X94253638Y-98764289D01*
X94253642Y-98764290D01*
X94259186Y-98765544D01*
X94385315Y-98770500D01*
X94464789Y-98773623D01*
X94464791Y-98773623D01*
X94470470Y-98773846D01*
X94476090Y-98773031D01*
X94476092Y-98773031D01*
X94674103Y-98744320D01*
X94674104Y-98744320D01*
X94679730Y-98743504D01*
X94698588Y-98737103D01*
X94874565Y-98677367D01*
X94874568Y-98677366D01*
X94879955Y-98675537D01*
X94884916Y-98672759D01*
X94884922Y-98672756D01*
X94991530Y-98613052D01*
X95064442Y-98572219D01*
X95085880Y-98554390D01*
X95222645Y-98440644D01*
X95227012Y-98437012D01*
X95230644Y-98432645D01*
X95358584Y-98278813D01*
X95358585Y-98278811D01*
X95362219Y-98274442D01*
X95434877Y-98144702D01*
X95462756Y-98094922D01*
X95462759Y-98094916D01*
X95465537Y-98089955D01*
X95481232Y-98043721D01*
X95531675Y-97895118D01*
X95533504Y-97889730D01*
X95535726Y-97874404D01*
X95557820Y-97722033D01*
X95586921Y-97658512D01*
X95640225Y-97624346D01*
X95720974Y-97624346D01*
X95774347Y-97658736D01*
X95803296Y-97722327D01*
X95804271Y-97731707D01*
X95808796Y-97800749D01*
X95860845Y-98005690D01*
X95863219Y-98010841D01*
X95863221Y-98010845D01*
X95900908Y-98092594D01*
X95949369Y-98197714D01*
X95952647Y-98202352D01*
X96051768Y-98342605D01*
X96071405Y-98370391D01*
X96222865Y-98517937D01*
X96227588Y-98521093D01*
X96227592Y-98521096D01*
X96298663Y-98568584D01*
X96398677Y-98635411D01*
X96592953Y-98718878D01*
X96628277Y-98726871D01*
X96793638Y-98764289D01*
X96793642Y-98764290D01*
X96799186Y-98765544D01*
X96925315Y-98770500D01*
X97004789Y-98773623D01*
X97004791Y-98773623D01*
X97010470Y-98773846D01*
X97016090Y-98773031D01*
X97016092Y-98773031D01*
X97214103Y-98744320D01*
X97214104Y-98744320D01*
X97219730Y-98743504D01*
X97238588Y-98737103D01*
X97414565Y-98677367D01*
X97414568Y-98677366D01*
X97419955Y-98675537D01*
X97424916Y-98672759D01*
X97424922Y-98672756D01*
X97531530Y-98613052D01*
X97604442Y-98572219D01*
X97625880Y-98554390D01*
X97762645Y-98440644D01*
X97767012Y-98437012D01*
X97770644Y-98432645D01*
X97898584Y-98278813D01*
X97898585Y-98278811D01*
X97902219Y-98274442D01*
X98004059Y-98092594D01*
X98053990Y-98043721D01*
X98122418Y-98029601D01*
X98187617Y-98054717D01*
X98224630Y-98100778D01*
X98314110Y-98292667D01*
X98319508Y-98302017D01*
X98448784Y-98486643D01*
X98455719Y-98494907D01*
X98615091Y-98654279D01*
X98623357Y-98661215D01*
X98807992Y-98790498D01*
X98817324Y-98795886D01*
X99021603Y-98891143D01*
X99031736Y-98894832D01*
X99222779Y-98946022D01*
X99236653Y-98945691D01*
X99240000Y-98937875D01*
X99240000Y-98932806D01*
X99740000Y-98932806D01*
X99743910Y-98946123D01*
X99752326Y-98947333D01*
X99948264Y-98894832D01*
X99958397Y-98891143D01*
X100162676Y-98795886D01*
X100172008Y-98790498D01*
X100356643Y-98661215D01*
X100364909Y-98654279D01*
X100524281Y-98494907D01*
X100531216Y-98486643D01*
X100660492Y-98302017D01*
X100665890Y-98292667D01*
X100761143Y-98088397D01*
X100764832Y-98078264D01*
X100816022Y-97887221D01*
X100815691Y-97873347D01*
X100807875Y-97870000D01*
X99757830Y-97870000D01*
X99742831Y-97874404D01*
X99741644Y-97875774D01*
X99740000Y-97883332D01*
X99740000Y-98932806D01*
X99240000Y-98932806D01*
X99240000Y-97352170D01*
X99740000Y-97352170D01*
X99744404Y-97367169D01*
X99745774Y-97368356D01*
X99753332Y-97370000D01*
X100802806Y-97370000D01*
X100816123Y-97366090D01*
X100817333Y-97357674D01*
X100764832Y-97161736D01*
X100761143Y-97151603D01*
X100665890Y-96947333D01*
X100660492Y-96937983D01*
X100531216Y-96753357D01*
X100524281Y-96745093D01*
X100364909Y-96585721D01*
X100356643Y-96578785D01*
X100172008Y-96449502D01*
X100162676Y-96444114D01*
X99958397Y-96348857D01*
X99948264Y-96345168D01*
X99757221Y-96293978D01*
X99743347Y-96294309D01*
X99740000Y-96302125D01*
X99740000Y-97352170D01*
X99240000Y-97352170D01*
X99240000Y-96307194D01*
X99236090Y-96293877D01*
X99227674Y-96292667D01*
X99031736Y-96345168D01*
X99021603Y-96348857D01*
X98817333Y-96444110D01*
X98807983Y-96449508D01*
X98623357Y-96578784D01*
X98615093Y-96585719D01*
X98455719Y-96745093D01*
X98448784Y-96753357D01*
X98319508Y-96937983D01*
X98314110Y-96947333D01*
X98222664Y-97143438D01*
X98176491Y-97195877D01*
X98109298Y-97215029D01*
X98042417Y-97194813D01*
X97999071Y-97145878D01*
X97935165Y-97016290D01*
X97808651Y-96846867D01*
X97804481Y-96843012D01*
X97804478Y-96843009D01*
X97698552Y-96745093D01*
X97653381Y-96703337D01*
X97647574Y-96699673D01*
X97479363Y-96593539D01*
X97479361Y-96593538D01*
X97474554Y-96590505D01*
X97278160Y-96512152D01*
X97272579Y-96511042D01*
X97272576Y-96511041D01*
X97174468Y-96491527D01*
X97070775Y-96470901D01*
X97065088Y-96470827D01*
X97065083Y-96470826D01*
X96865034Y-96468207D01*
X96865029Y-96468207D01*
X96859346Y-96468133D01*
X96853742Y-96469096D01*
X96853741Y-96469096D01*
X96656550Y-96502979D01*
X96656547Y-96502980D01*
X96650953Y-96503941D01*
X96452575Y-96577127D01*
X96447697Y-96580029D01*
X96447695Y-96580030D01*
X96275740Y-96682332D01*
X96275737Y-96682334D01*
X96270856Y-96685238D01*
X96111881Y-96824655D01*
X96108362Y-96829119D01*
X96108359Y-96829122D01*
X96090782Y-96851419D01*
X95980976Y-96990708D01*
X95882523Y-97177836D01*
X95880837Y-97183267D01*
X95880835Y-97183271D01*
X95828391Y-97352170D01*
X95819820Y-97379773D01*
X95802851Y-97523140D01*
X95775425Y-97587398D01*
X95720974Y-97624346D01*
X95640225Y-97624346D01*
X95640667Y-97624063D01*
X95588057Y-97592081D01*
X95557453Y-97529271D01*
X95556232Y-97519909D01*
X95546601Y-97415100D01*
X95546081Y-97409440D01*
X95488686Y-97205931D01*
X95395165Y-97016290D01*
X95268651Y-96846867D01*
X95264481Y-96843012D01*
X95264478Y-96843009D01*
X95158552Y-96745093D01*
X95113381Y-96703337D01*
X95107574Y-96699673D01*
X94939363Y-96593539D01*
X94939361Y-96593538D01*
X94934554Y-96590505D01*
X94738160Y-96512152D01*
X94732579Y-96511042D01*
X94732576Y-96511041D01*
X94634468Y-96491527D01*
X94530775Y-96470901D01*
X94525088Y-96470827D01*
X94525083Y-96470826D01*
X94325034Y-96468207D01*
X94325029Y-96468207D01*
X94319346Y-96468133D01*
X94313742Y-96469096D01*
X94313741Y-96469096D01*
X94116550Y-96502979D01*
X94116547Y-96502980D01*
X94110953Y-96503941D01*
X93912575Y-96577127D01*
X93907697Y-96580029D01*
X93907695Y-96580030D01*
X93735740Y-96682332D01*
X93735737Y-96682334D01*
X93730856Y-96685238D01*
X93571881Y-96824655D01*
X93568362Y-96829119D01*
X93568359Y-96829122D01*
X93550782Y-96851419D01*
X93440976Y-96990708D01*
X93342523Y-97177836D01*
X93340837Y-97183267D01*
X93340835Y-97183271D01*
X93288391Y-97352170D01*
X93279820Y-97379773D01*
X93279152Y-97385418D01*
X93279151Y-97385422D01*
X93267640Y-97482681D01*
X93240213Y-97546942D01*
X93182397Y-97586173D01*
X93112549Y-97587919D01*
X93052845Y-97551625D01*
X93022241Y-97488814D01*
X93020500Y-97468106D01*
X93020500Y-96725354D01*
X93017382Y-96699154D01*
X92971939Y-96596847D01*
X92892713Y-96517759D01*
X92882242Y-96513130D01*
X92882241Y-96513129D01*
X92798853Y-96476263D01*
X92798851Y-96476262D01*
X92790327Y-96472494D01*
X92764646Y-96469500D01*
X90975354Y-96469500D01*
X90971700Y-96469935D01*
X90971698Y-96469935D01*
X90966734Y-96470526D01*
X90949154Y-96472618D01*
X90846847Y-96518061D01*
X90767759Y-96597287D01*
X90763130Y-96607758D01*
X90763129Y-96607759D01*
X90728876Y-96685238D01*
X90722494Y-96699673D01*
X90719500Y-96725354D01*
X90719500Y-98514646D01*
X82610026Y-98514646D01*
X82572385Y-98466781D01*
X82565540Y-98457168D01*
X82371299Y-98154921D01*
X82365399Y-98144702D01*
X82200766Y-97825355D01*
X82195864Y-97814621D01*
X82062330Y-97481066D01*
X82058471Y-97469914D01*
X82000530Y-97272581D01*
X81957252Y-97125184D01*
X81954471Y-97113720D01*
X81886479Y-96760928D01*
X81884800Y-96749255D01*
X81882870Y-96729035D01*
X81853403Y-96420416D01*
X81853695Y-96402077D01*
X81853417Y-96396247D01*
X81854791Y-96385484D01*
X81852400Y-96374897D01*
X81851967Y-96365812D01*
X81850500Y-96352658D01*
X81850500Y-96133789D01*
X84345996Y-96133789D01*
X84347495Y-96173708D01*
X84354071Y-96348857D01*
X84354913Y-96371295D01*
X84355990Y-96376430D01*
X84355991Y-96376435D01*
X84402639Y-96598758D01*
X84403719Y-96603904D01*
X84405648Y-96608788D01*
X84405649Y-96608792D01*
X84437320Y-96688987D01*
X84491020Y-96824963D01*
X84493741Y-96829447D01*
X84493743Y-96829451D01*
X84602593Y-97008829D01*
X84614319Y-97028153D01*
X84617766Y-97032125D01*
X84758939Y-97194813D01*
X84770090Y-97207664D01*
X84953880Y-97358362D01*
X84958441Y-97360958D01*
X84958442Y-97360959D01*
X85155875Y-97473345D01*
X85155880Y-97473347D01*
X85160433Y-97475939D01*
X85383844Y-97557034D01*
X85617725Y-97599326D01*
X85642619Y-97600500D01*
X85809680Y-97600500D01*
X85812296Y-97600278D01*
X85812297Y-97600278D01*
X85921373Y-97591023D01*
X85986823Y-97585469D01*
X86216874Y-97525760D01*
X86433576Y-97428143D01*
X86630732Y-97295409D01*
X86802705Y-97131355D01*
X86944579Y-96940670D01*
X86959737Y-96910856D01*
X87049913Y-96733493D01*
X87049915Y-96733488D01*
X87052295Y-96728807D01*
X87054475Y-96721788D01*
X87121215Y-96506848D01*
X87122775Y-96501824D01*
X87126663Y-96472494D01*
X87153315Y-96271412D01*
X87153315Y-96271408D01*
X87154004Y-96266211D01*
X87149032Y-96133789D01*
X117745996Y-96133789D01*
X117747495Y-96173708D01*
X117754071Y-96348857D01*
X117754913Y-96371295D01*
X117755990Y-96376430D01*
X117755991Y-96376435D01*
X117802639Y-96598758D01*
X117803719Y-96603904D01*
X117805648Y-96608788D01*
X117805649Y-96608792D01*
X117837320Y-96688987D01*
X117891020Y-96824963D01*
X117893741Y-96829447D01*
X117893743Y-96829451D01*
X118002593Y-97008829D01*
X118014319Y-97028153D01*
X118017766Y-97032125D01*
X118158939Y-97194813D01*
X118170090Y-97207664D01*
X118353880Y-97358362D01*
X118358441Y-97360958D01*
X118358442Y-97360959D01*
X118555875Y-97473345D01*
X118555880Y-97473347D01*
X118560433Y-97475939D01*
X118783844Y-97557034D01*
X119017725Y-97599326D01*
X119042619Y-97600500D01*
X119209680Y-97600500D01*
X119212296Y-97600278D01*
X119212297Y-97600278D01*
X119321373Y-97591023D01*
X119386823Y-97585469D01*
X119616874Y-97525760D01*
X119833576Y-97428143D01*
X120030732Y-97295409D01*
X120202705Y-97131355D01*
X120344579Y-96940670D01*
X120359737Y-96910856D01*
X120449913Y-96733493D01*
X120449915Y-96733488D01*
X120452295Y-96728807D01*
X120454475Y-96721788D01*
X120521215Y-96506848D01*
X120522775Y-96501824D01*
X120526663Y-96472494D01*
X120553315Y-96271412D01*
X120553315Y-96271408D01*
X120554004Y-96266211D01*
X120545087Y-96028705D01*
X120517700Y-95898176D01*
X120497361Y-95801242D01*
X120497360Y-95801239D01*
X120496281Y-95796096D01*
X120408980Y-95575037D01*
X120341607Y-95464009D01*
X120288408Y-95376341D01*
X120285681Y-95371847D01*
X120129910Y-95192336D01*
X119946120Y-95041638D01*
X119828687Y-94974791D01*
X119744125Y-94926655D01*
X119744120Y-94926653D01*
X119739567Y-94924061D01*
X119516156Y-94842966D01*
X119282275Y-94800674D01*
X119257381Y-94799500D01*
X119090320Y-94799500D01*
X119087704Y-94799722D01*
X119087703Y-94799722D01*
X119076484Y-94800674D01*
X118913177Y-94814531D01*
X118683126Y-94874240D01*
X118466424Y-94971857D01*
X118269268Y-95104591D01*
X118097295Y-95268645D01*
X117955421Y-95459330D01*
X117953042Y-95464008D01*
X117953042Y-95464009D01*
X117898875Y-95570549D01*
X117847705Y-95671193D01*
X117777225Y-95898176D01*
X117745996Y-96133789D01*
X87149032Y-96133789D01*
X87145087Y-96028705D01*
X87117700Y-95898176D01*
X87097361Y-95801242D01*
X87097360Y-95801239D01*
X87096281Y-95796096D01*
X87008980Y-95575037D01*
X86941607Y-95464009D01*
X86888408Y-95376341D01*
X86885681Y-95371847D01*
X86729910Y-95192336D01*
X86546120Y-95041638D01*
X86428687Y-94974791D01*
X86344125Y-94926655D01*
X86344120Y-94926653D01*
X86339567Y-94924061D01*
X86116156Y-94842966D01*
X85882275Y-94800674D01*
X85857381Y-94799500D01*
X85690320Y-94799500D01*
X85687704Y-94799722D01*
X85687703Y-94799722D01*
X85676484Y-94800674D01*
X85513177Y-94814531D01*
X85283126Y-94874240D01*
X85066424Y-94971857D01*
X84869268Y-95104591D01*
X84697295Y-95268645D01*
X84555421Y-95459330D01*
X84553042Y-95464008D01*
X84553042Y-95464009D01*
X84498875Y-95570549D01*
X84447705Y-95671193D01*
X84377225Y-95898176D01*
X84345996Y-96133789D01*
X81850500Y-96133789D01*
X81850500Y-93492611D01*
X92919394Y-93492611D01*
X92920214Y-93500039D01*
X92920214Y-93500041D01*
X92924215Y-93536277D01*
X92937999Y-93661135D01*
X92940565Y-93668147D01*
X92940566Y-93668151D01*
X92952262Y-93700111D01*
X92996266Y-93820356D01*
X93000433Y-93826558D01*
X93000435Y-93826561D01*
X93025254Y-93863495D01*
X93090830Y-93961083D01*
X93096360Y-93966115D01*
X93210702Y-94070159D01*
X93210706Y-94070162D01*
X93216233Y-94075191D01*
X93365235Y-94156092D01*
X93448915Y-94178045D01*
X93522005Y-94197220D01*
X93522007Y-94197220D01*
X93529233Y-94199116D01*
X93612178Y-94200419D01*
X93691290Y-94201662D01*
X93691293Y-94201662D01*
X93698760Y-94201779D01*
X93837521Y-94169999D01*
X93856738Y-94165598D01*
X93856739Y-94165598D01*
X93864029Y-94163928D01*
X93939111Y-94126166D01*
X94008820Y-94091106D01*
X94008822Y-94091105D01*
X94015498Y-94087747D01*
X94120944Y-93997687D01*
X94184705Y-93969116D01*
X94201476Y-93967977D01*
X94648704Y-93967977D01*
X94715743Y-93987662D01*
X94732157Y-94000263D01*
X94828175Y-94087632D01*
X94828177Y-94087634D01*
X94833710Y-94092668D01*
X94982712Y-94173569D01*
X95072864Y-94197220D01*
X95139482Y-94214697D01*
X95139484Y-94214697D01*
X95146710Y-94216593D01*
X95229655Y-94217896D01*
X95308767Y-94219139D01*
X95308770Y-94219139D01*
X95316237Y-94219256D01*
X95438686Y-94191212D01*
X95474215Y-94183075D01*
X95474216Y-94183075D01*
X95481506Y-94181405D01*
X95583958Y-94129877D01*
X95626297Y-94108583D01*
X95626299Y-94108582D01*
X95632975Y-94105224D01*
X95638657Y-94100371D01*
X95638660Y-94100369D01*
X95756218Y-93999964D01*
X95761900Y-93995111D01*
X95860838Y-93857424D01*
X95924078Y-93700111D01*
X95926127Y-93685715D01*
X95947395Y-93536277D01*
X95947395Y-93536271D01*
X95947967Y-93532255D01*
X95948122Y-93517477D01*
X95927753Y-93349157D01*
X95915810Y-93317550D01*
X95870466Y-93197550D01*
X95870464Y-93197547D01*
X95867822Y-93190554D01*
X95856105Y-93173506D01*
X95776026Y-93056990D01*
X95776023Y-93056987D01*
X95771789Y-93050826D01*
X95729817Y-93013430D01*
X95650780Y-92943010D01*
X95650778Y-92943009D01*
X95645198Y-92938037D01*
X95630824Y-92930426D01*
X95570278Y-92898369D01*
X95495358Y-92858701D01*
X95330918Y-92817396D01*
X95244725Y-92816945D01*
X95168845Y-92816547D01*
X95168844Y-92816547D01*
X95161372Y-92816508D01*
X95139712Y-92821708D01*
X95003772Y-92854345D01*
X95003770Y-92854346D01*
X94996509Y-92856089D01*
X94989876Y-92859512D01*
X94989872Y-92859514D01*
X94922942Y-92894060D01*
X94845846Y-92933852D01*
X94731104Y-93033948D01*
X94728271Y-93036419D01*
X94664813Y-93065655D01*
X94646757Y-93066977D01*
X94238750Y-93066977D01*
X94171711Y-93047292D01*
X94154818Y-93032781D01*
X94154312Y-93033349D01*
X94033303Y-92925533D01*
X94033301Y-92925532D01*
X94027721Y-92920560D01*
X94013347Y-92912949D01*
X93884489Y-92844723D01*
X93877881Y-92841224D01*
X93713441Y-92799919D01*
X93627248Y-92799468D01*
X93551368Y-92799070D01*
X93551367Y-92799070D01*
X93543895Y-92799031D01*
X93522235Y-92804231D01*
X93386295Y-92836868D01*
X93386293Y-92836869D01*
X93379032Y-92838612D01*
X93372399Y-92842035D01*
X93372395Y-92842037D01*
X93343638Y-92856880D01*
X93228369Y-92916375D01*
X93222737Y-92921288D01*
X93115997Y-93014403D01*
X93100604Y-93027831D01*
X93003113Y-93166547D01*
X92941524Y-93324513D01*
X92940548Y-93331923D01*
X92940548Y-93331925D01*
X92937501Y-93355073D01*
X92919394Y-93492611D01*
X81850500Y-93492611D01*
X81850500Y-92392611D01*
X98494394Y-92392611D01*
X98495214Y-92400039D01*
X98495214Y-92400041D01*
X98504921Y-92487967D01*
X98512999Y-92561135D01*
X98515565Y-92568147D01*
X98515566Y-92568151D01*
X98568697Y-92713336D01*
X98571266Y-92720356D01*
X98575433Y-92726558D01*
X98575435Y-92726561D01*
X98624730Y-92799919D01*
X98665830Y-92861083D01*
X98671360Y-92866115D01*
X98785702Y-92970159D01*
X98785706Y-92970162D01*
X98791233Y-92975191D01*
X98940235Y-93056092D01*
X99035585Y-93081107D01*
X99097005Y-93097220D01*
X99097007Y-93097220D01*
X99104233Y-93099116D01*
X99163515Y-93100047D01*
X99230236Y-93120782D01*
X99249248Y-93136351D01*
X99684058Y-93571161D01*
X99717543Y-93632484D01*
X99720370Y-93660139D01*
X99720369Y-93660203D01*
X99719394Y-93667611D01*
X99720214Y-93675039D01*
X99720214Y-93675040D01*
X99721393Y-93685715D01*
X99737999Y-93836135D01*
X99740565Y-93843147D01*
X99740566Y-93843151D01*
X99781453Y-93954877D01*
X99796266Y-93995356D01*
X99800433Y-94001558D01*
X99800435Y-94001561D01*
X99852311Y-94078760D01*
X99890830Y-94136083D01*
X99896360Y-94141115D01*
X100010702Y-94245159D01*
X100010706Y-94245162D01*
X100016233Y-94250191D01*
X100165235Y-94331092D01*
X100260585Y-94356107D01*
X100322005Y-94372220D01*
X100322007Y-94372220D01*
X100329233Y-94374116D01*
X100412178Y-94375419D01*
X100491290Y-94376662D01*
X100491293Y-94376662D01*
X100498760Y-94376779D01*
X100621209Y-94348735D01*
X100656738Y-94340598D01*
X100656739Y-94340598D01*
X100664029Y-94338928D01*
X100739111Y-94301166D01*
X100808820Y-94266106D01*
X100808822Y-94266105D01*
X100815498Y-94262747D01*
X100821180Y-94257894D01*
X100821183Y-94257892D01*
X100938741Y-94157487D01*
X100944423Y-94152634D01*
X101043361Y-94014947D01*
X101106601Y-93857634D01*
X101110718Y-93828707D01*
X101129918Y-93693800D01*
X101129918Y-93693794D01*
X101130490Y-93689778D01*
X101130645Y-93675000D01*
X101113371Y-93532255D01*
X101111175Y-93514105D01*
X101111174Y-93514101D01*
X101110276Y-93506680D01*
X101050345Y-93348077D01*
X101029364Y-93317550D01*
X100958549Y-93214513D01*
X100958546Y-93214510D01*
X100954312Y-93208349D01*
X100873504Y-93136351D01*
X100833303Y-93100533D01*
X100833301Y-93100532D01*
X100827721Y-93095560D01*
X100677881Y-93016224D01*
X100513441Y-92974919D01*
X100412207Y-92974389D01*
X100345271Y-92954354D01*
X100325175Y-92938072D01*
X99936394Y-92549290D01*
X99902909Y-92487967D01*
X99901312Y-92444139D01*
X99904917Y-92418803D01*
X99905490Y-92414778D01*
X99905645Y-92400000D01*
X99885276Y-92231680D01*
X99825345Y-92073077D01*
X99816657Y-92060436D01*
X99733549Y-91939513D01*
X99733546Y-91939510D01*
X99729312Y-91933349D01*
X99687340Y-91895953D01*
X99608303Y-91825533D01*
X99608301Y-91825532D01*
X99602721Y-91820560D01*
X99593350Y-91815598D01*
X99459489Y-91744723D01*
X99452881Y-91741224D01*
X99288441Y-91699919D01*
X99202248Y-91699468D01*
X99126368Y-91699070D01*
X99126367Y-91699070D01*
X99118895Y-91699031D01*
X99097235Y-91704231D01*
X98961295Y-91736868D01*
X98961293Y-91736869D01*
X98954032Y-91738612D01*
X98947399Y-91742035D01*
X98947395Y-91742037D01*
X98880465Y-91776583D01*
X98803369Y-91816375D01*
X98797737Y-91821288D01*
X98762919Y-91851662D01*
X98675604Y-91927831D01*
X98578113Y-92066547D01*
X98516524Y-92224513D01*
X98494394Y-92392611D01*
X81850500Y-92392611D01*
X81850500Y-91142611D01*
X113369394Y-91142611D01*
X113370214Y-91150039D01*
X113370214Y-91150041D01*
X113371841Y-91164778D01*
X113387999Y-91311135D01*
X113390565Y-91318147D01*
X113390566Y-91318151D01*
X113443697Y-91463336D01*
X113446266Y-91470356D01*
X113450433Y-91476558D01*
X113450435Y-91476561D01*
X113463510Y-91496018D01*
X113540830Y-91611083D01*
X113546360Y-91616115D01*
X113660702Y-91720159D01*
X113660706Y-91720162D01*
X113666233Y-91725191D01*
X113815235Y-91806092D01*
X113870384Y-91820560D01*
X113972005Y-91847220D01*
X113972007Y-91847220D01*
X113979233Y-91849116D01*
X114062178Y-91850419D01*
X114141290Y-91851662D01*
X114141293Y-91851662D01*
X114148760Y-91851779D01*
X114285072Y-91820560D01*
X114306738Y-91815598D01*
X114306739Y-91815598D01*
X114314029Y-91813928D01*
X114451628Y-91744723D01*
X114458820Y-91741106D01*
X114458822Y-91741105D01*
X114465498Y-91737747D01*
X114471180Y-91732894D01*
X114471183Y-91732892D01*
X114588741Y-91632487D01*
X114594423Y-91627634D01*
X114693361Y-91489947D01*
X114756601Y-91332634D01*
X114780490Y-91164778D01*
X114780645Y-91150000D01*
X114760276Y-90981680D01*
X114733505Y-90910832D01*
X114725500Y-90867002D01*
X114725500Y-87974318D01*
X114748802Y-87901959D01*
X114788999Y-87846019D01*
X114789003Y-87846012D01*
X114793361Y-87839947D01*
X114856601Y-87682634D01*
X114880490Y-87514778D01*
X114880645Y-87500000D01*
X114860276Y-87331680D01*
X114800345Y-87173077D01*
X114791657Y-87160436D01*
X114708549Y-87039513D01*
X114708546Y-87039510D01*
X114704312Y-87033349D01*
X114577721Y-86920560D01*
X114563347Y-86912949D01*
X114434489Y-86844723D01*
X114427881Y-86841224D01*
X114263441Y-86799919D01*
X114177248Y-86799468D01*
X114101368Y-86799070D01*
X114101367Y-86799070D01*
X114093895Y-86799031D01*
X114072235Y-86804231D01*
X113936295Y-86836868D01*
X113936293Y-86836869D01*
X113929032Y-86838612D01*
X113922399Y-86842035D01*
X113922395Y-86842037D01*
X113855465Y-86876583D01*
X113778369Y-86916375D01*
X113650604Y-87027831D01*
X113553113Y-87166547D01*
X113491524Y-87324513D01*
X113469394Y-87492611D01*
X113470214Y-87500039D01*
X113470214Y-87500041D01*
X113471841Y-87514778D01*
X113487999Y-87661135D01*
X113490565Y-87668147D01*
X113490566Y-87668151D01*
X113543697Y-87813336D01*
X113546266Y-87820356D01*
X113550433Y-87826557D01*
X113550438Y-87826567D01*
X113603421Y-87905413D01*
X113624500Y-87974573D01*
X113624500Y-90556989D01*
X113604815Y-90624028D01*
X113582015Y-90650430D01*
X113550604Y-90677831D01*
X113453113Y-90816547D01*
X113391524Y-90974513D01*
X113369394Y-91142611D01*
X81850500Y-91142611D01*
X81850500Y-85117806D01*
X116744563Y-85117806D01*
X116745112Y-85123839D01*
X116745112Y-85123843D01*
X116754395Y-85225840D01*
X116762790Y-85318089D01*
X116819572Y-85511018D01*
X116912746Y-85689243D01*
X117038763Y-85845976D01*
X117192823Y-85975248D01*
X117369058Y-86072134D01*
X117374840Y-86073968D01*
X117374842Y-86073969D01*
X117554976Y-86131111D01*
X117554978Y-86131111D01*
X117560755Y-86132944D01*
X117615287Y-86139061D01*
X117713815Y-86150113D01*
X117713821Y-86150113D01*
X117717268Y-86150500D01*
X118375606Y-86150500D01*
X118378621Y-86150204D01*
X118378629Y-86150204D01*
X118519115Y-86136429D01*
X118519117Y-86136429D01*
X118525151Y-86135837D01*
X118717679Y-86077710D01*
X118895249Y-85983294D01*
X119051099Y-85856186D01*
X119179292Y-85701227D01*
X119186203Y-85688446D01*
X119272059Y-85529658D01*
X119272060Y-85529656D01*
X119274945Y-85524320D01*
X119334415Y-85332203D01*
X119355437Y-85132194D01*
X119347484Y-85044798D01*
X119343838Y-85004741D01*
X119337210Y-84931911D01*
X119280428Y-84738982D01*
X119277617Y-84733606D01*
X119275346Y-84727984D01*
X119276705Y-84727435D01*
X119264512Y-84666039D01*
X119290113Y-84601029D01*
X119339617Y-84565100D01*
X119339028Y-84563929D01*
X119376164Y-84545251D01*
X119388033Y-84540040D01*
X119426923Y-84525345D01*
X119433084Y-84521110D01*
X119433087Y-84521109D01*
X119450459Y-84509169D01*
X119464976Y-84500583D01*
X119483823Y-84491104D01*
X119490498Y-84487747D01*
X119522108Y-84460750D01*
X119532398Y-84452854D01*
X119566651Y-84429312D01*
X119571625Y-84423729D01*
X119571631Y-84423724D01*
X119585654Y-84407985D01*
X119597704Y-84396184D01*
X119613741Y-84382487D01*
X119619423Y-84377634D01*
X119643683Y-84343871D01*
X119651781Y-84333764D01*
X119679440Y-84302721D01*
X119692808Y-84277472D01*
X119701691Y-84263145D01*
X119718361Y-84239947D01*
X119733862Y-84201386D01*
X119739326Y-84189617D01*
X119755278Y-84159488D01*
X119755279Y-84159486D01*
X119758776Y-84152881D01*
X119760598Y-84145629D01*
X119765736Y-84125177D01*
X119770946Y-84109140D01*
X119778813Y-84089570D01*
X119778814Y-84089568D01*
X119781601Y-84082634D01*
X119787459Y-84041476D01*
X119789955Y-84028757D01*
X119800081Y-83988441D01*
X119800231Y-83959875D01*
X119801466Y-83943056D01*
X119804917Y-83918803D01*
X119805490Y-83914778D01*
X119805645Y-83900000D01*
X119802649Y-83875237D01*
X119801693Y-83867340D01*
X119800797Y-83851796D01*
X119800930Y-83826370D01*
X119800930Y-83826369D01*
X119800969Y-83818895D01*
X119792274Y-83782677D01*
X119789749Y-83768642D01*
X119786174Y-83739099D01*
X119786174Y-83739098D01*
X119785276Y-83731680D01*
X119779935Y-83717544D01*
X119773648Y-83700907D01*
X119769068Y-83686021D01*
X119763134Y-83661304D01*
X119763134Y-83661303D01*
X119761388Y-83654032D01*
X119744314Y-83620951D01*
X119738508Y-83607912D01*
X119727987Y-83580069D01*
X119725345Y-83573077D01*
X119706710Y-83545963D01*
X119698712Y-83532601D01*
X119695490Y-83526358D01*
X119683625Y-83503369D01*
X119678711Y-83497736D01*
X119678709Y-83497733D01*
X119659152Y-83475315D01*
X119650403Y-83464036D01*
X119633546Y-83439509D01*
X119633544Y-83439507D01*
X119629312Y-83433349D01*
X119623736Y-83428381D01*
X119623729Y-83428373D01*
X119604747Y-83411461D01*
X119593800Y-83400400D01*
X119572169Y-83375604D01*
X119541709Y-83354197D01*
X119530522Y-83345330D01*
X119508304Y-83325534D01*
X119508303Y-83325533D01*
X119502721Y-83320560D01*
X119496118Y-83317064D01*
X119496111Y-83317059D01*
X119473642Y-83305163D01*
X119460369Y-83297029D01*
X119433453Y-83278113D01*
X119426491Y-83275398D01*
X119426486Y-83275396D01*
X119398763Y-83264587D01*
X119385784Y-83258645D01*
X119375185Y-83253033D01*
X119352881Y-83241224D01*
X119320971Y-83233209D01*
X119306140Y-83228475D01*
X119282456Y-83219241D01*
X119282455Y-83219241D01*
X119275487Y-83216524D01*
X119238574Y-83211664D01*
X119224551Y-83208989D01*
X119195691Y-83201740D01*
X119188441Y-83199919D01*
X119174106Y-83199844D01*
X119148778Y-83199711D01*
X119147408Y-83199663D01*
X119146174Y-83199500D01*
X119108708Y-83199500D01*
X119108059Y-83199498D01*
X119026369Y-83199070D01*
X119026368Y-83199070D01*
X119018895Y-83199031D01*
X118982677Y-83207726D01*
X118968648Y-83210250D01*
X118946792Y-83212895D01*
X118939099Y-83213826D01*
X118939098Y-83213826D01*
X118931680Y-83214724D01*
X118924686Y-83217367D01*
X118924685Y-83217367D01*
X118900907Y-83226352D01*
X118886021Y-83230932D01*
X118861304Y-83236866D01*
X118861303Y-83236866D01*
X118854032Y-83238612D01*
X118820952Y-83255686D01*
X118807911Y-83261492D01*
X118773077Y-83274655D01*
X118766916Y-83278889D01*
X118766915Y-83278890D01*
X118745964Y-83293290D01*
X118732604Y-83301286D01*
X118703369Y-83316375D01*
X118697736Y-83321289D01*
X118697733Y-83321291D01*
X118675315Y-83340848D01*
X118664036Y-83349597D01*
X118639509Y-83366454D01*
X118639507Y-83366456D01*
X118633349Y-83370688D01*
X118628381Y-83376264D01*
X118628373Y-83376271D01*
X118611461Y-83395253D01*
X118600400Y-83406200D01*
X118575604Y-83427831D01*
X118571306Y-83433947D01*
X118554198Y-83458289D01*
X118545331Y-83469477D01*
X118520560Y-83497279D01*
X118517064Y-83503882D01*
X118517059Y-83503889D01*
X118505163Y-83526358D01*
X118497029Y-83539631D01*
X118478113Y-83566547D01*
X118475398Y-83573509D01*
X118475396Y-83573514D01*
X118464587Y-83601237D01*
X118458645Y-83614216D01*
X118441224Y-83647119D01*
X118439404Y-83654366D01*
X118433209Y-83679028D01*
X118428475Y-83693860D01*
X118419241Y-83717544D01*
X118416524Y-83724513D01*
X118415548Y-83731928D01*
X118411664Y-83761427D01*
X118408989Y-83775449D01*
X118401740Y-83804309D01*
X118399919Y-83811559D01*
X118399842Y-83826370D01*
X118399747Y-83844459D01*
X118398688Y-83859994D01*
X118394394Y-83892611D01*
X118397286Y-83918803D01*
X118398479Y-83929613D01*
X118399226Y-83943868D01*
X118399057Y-83976149D01*
X118379022Y-84043085D01*
X118325979Y-84088562D01*
X118275059Y-84099500D01*
X117724394Y-84099500D01*
X117721379Y-84099796D01*
X117721371Y-84099796D01*
X117580885Y-84113571D01*
X117580883Y-84113571D01*
X117574849Y-84114163D01*
X117382321Y-84172290D01*
X117376970Y-84175135D01*
X117376968Y-84175136D01*
X117338938Y-84195357D01*
X117204751Y-84266706D01*
X117191546Y-84277476D01*
X117076179Y-84371567D01*
X117048901Y-84393814D01*
X116920708Y-84548773D01*
X116917822Y-84554110D01*
X116917821Y-84554112D01*
X116836656Y-84704225D01*
X116825055Y-84725680D01*
X116765585Y-84917797D01*
X116744563Y-85117806D01*
X81850500Y-85117806D01*
X81850500Y-80693111D01*
X114094394Y-80693111D01*
X114095214Y-80700539D01*
X114095214Y-80700541D01*
X114096841Y-80715278D01*
X114112999Y-80861635D01*
X114115565Y-80868647D01*
X114115566Y-80868651D01*
X114168697Y-81013836D01*
X114171266Y-81020856D01*
X114175433Y-81027057D01*
X114175438Y-81027067D01*
X114228421Y-81105913D01*
X114249500Y-81175073D01*
X114249500Y-83261328D01*
X114226951Y-83332629D01*
X114203113Y-83366547D01*
X114141524Y-83524513D01*
X114140548Y-83531923D01*
X114140548Y-83531925D01*
X114135073Y-83573514D01*
X114119394Y-83692611D01*
X114120214Y-83700039D01*
X114120214Y-83700041D01*
X114124526Y-83739099D01*
X114137999Y-83861135D01*
X114140565Y-83868147D01*
X114140566Y-83868151D01*
X114174133Y-83959875D01*
X114196266Y-84020356D01*
X114200433Y-84026558D01*
X114200435Y-84026561D01*
X114249448Y-84099500D01*
X114290830Y-84161083D01*
X114296360Y-84166115D01*
X114410702Y-84270159D01*
X114410706Y-84270162D01*
X114416233Y-84275191D01*
X114565235Y-84356092D01*
X114660585Y-84381107D01*
X114722005Y-84397220D01*
X114722007Y-84397220D01*
X114729233Y-84399116D01*
X114812178Y-84400419D01*
X114891290Y-84401662D01*
X114891293Y-84401662D01*
X114898760Y-84401779D01*
X115030675Y-84371567D01*
X115056738Y-84365598D01*
X115056739Y-84365598D01*
X115064029Y-84363928D01*
X115185726Y-84302721D01*
X115208820Y-84291106D01*
X115208822Y-84291105D01*
X115215498Y-84287747D01*
X115221180Y-84282894D01*
X115221183Y-84282892D01*
X115338741Y-84182487D01*
X115344423Y-84177634D01*
X115443361Y-84039947D01*
X115506601Y-83882634D01*
X115509823Y-83859997D01*
X115529918Y-83718800D01*
X115529918Y-83718794D01*
X115530490Y-83714778D01*
X115530645Y-83700000D01*
X115529751Y-83692611D01*
X115511175Y-83539105D01*
X115511174Y-83539101D01*
X115510276Y-83531680D01*
X115495167Y-83491696D01*
X115452989Y-83380073D01*
X115452987Y-83380070D01*
X115450345Y-83373077D01*
X115428195Y-83340848D01*
X115411845Y-83317059D01*
X115372309Y-83259534D01*
X115350500Y-83189300D01*
X115350500Y-81174818D01*
X115373802Y-81102459D01*
X115413999Y-81046519D01*
X115414003Y-81046512D01*
X115418361Y-81040447D01*
X115481601Y-80883134D01*
X115505490Y-80715278D01*
X115505645Y-80700500D01*
X115485276Y-80532180D01*
X115449000Y-80436177D01*
X115427989Y-80380573D01*
X115427987Y-80380570D01*
X115425345Y-80373577D01*
X115394455Y-80328632D01*
X115333549Y-80240013D01*
X115333546Y-80240010D01*
X115329312Y-80233849D01*
X115202721Y-80121060D01*
X115188347Y-80113449D01*
X115059489Y-80045223D01*
X115052881Y-80041724D01*
X114888441Y-80000419D01*
X114802248Y-79999968D01*
X114726368Y-79999570D01*
X114726367Y-79999570D01*
X114718895Y-79999531D01*
X114697235Y-80004731D01*
X114561295Y-80037368D01*
X114561293Y-80037369D01*
X114554032Y-80039112D01*
X114547399Y-80042535D01*
X114547395Y-80042537D01*
X114485715Y-80074373D01*
X114403369Y-80116875D01*
X114397737Y-80121788D01*
X114285166Y-80219990D01*
X114275604Y-80228331D01*
X114178113Y-80367047D01*
X114116524Y-80525013D01*
X114094394Y-80693111D01*
X81850500Y-80693111D01*
X81850500Y-79740862D01*
X82740497Y-79740862D01*
X82770134Y-79913340D01*
X82838654Y-80074373D01*
X82842921Y-80080171D01*
X82842922Y-80080173D01*
X82900092Y-80157857D01*
X82942383Y-80215324D01*
X82947874Y-80219989D01*
X82947875Y-80219990D01*
X83070261Y-80323965D01*
X83070264Y-80323967D01*
X83075755Y-80328632D01*
X83082172Y-80331909D01*
X83082174Y-80331910D01*
X83139018Y-80360936D01*
X83231616Y-80408219D01*
X83238612Y-80409931D01*
X83238615Y-80409932D01*
X83309763Y-80427341D01*
X83401606Y-80449815D01*
X83407114Y-80450157D01*
X83407116Y-80450157D01*
X83410744Y-80450382D01*
X83410748Y-80450382D01*
X83412648Y-80450500D01*
X83538822Y-80450500D01*
X83668828Y-80435343D01*
X83675595Y-80432887D01*
X83675598Y-80432886D01*
X83826557Y-80378090D01*
X83826558Y-80378089D01*
X83833331Y-80375631D01*
X83979685Y-80279677D01*
X83984637Y-80274449D01*
X83984640Y-80274447D01*
X84095087Y-80157857D01*
X84095089Y-80157855D01*
X84100040Y-80152628D01*
X84103656Y-80146403D01*
X84103658Y-80146400D01*
X84184322Y-80007525D01*
X84187939Y-80001298D01*
X84238667Y-79833807D01*
X84249503Y-79659138D01*
X84219866Y-79486660D01*
X84207047Y-79456532D01*
X84173475Y-79377634D01*
X84151346Y-79325627D01*
X84134489Y-79302721D01*
X84051888Y-79190479D01*
X84051886Y-79190477D01*
X84047617Y-79184676D01*
X83978025Y-79125553D01*
X83919739Y-79076035D01*
X83919736Y-79076033D01*
X83914245Y-79071368D01*
X83907828Y-79068091D01*
X83907826Y-79068090D01*
X83814985Y-79020683D01*
X83758384Y-78991781D01*
X83751388Y-78990069D01*
X83751385Y-78990068D01*
X83680237Y-78972659D01*
X83588394Y-78950185D01*
X83582886Y-78949843D01*
X83582884Y-78949843D01*
X83579256Y-78949618D01*
X83579252Y-78949618D01*
X83577352Y-78949500D01*
X83451178Y-78949500D01*
X83321172Y-78964657D01*
X83314405Y-78967113D01*
X83314402Y-78967114D01*
X83163443Y-79021910D01*
X83156669Y-79024369D01*
X83089886Y-79068154D01*
X83037021Y-79102814D01*
X83010315Y-79120323D01*
X83005363Y-79125551D01*
X83005360Y-79125553D01*
X82894913Y-79242143D01*
X82889960Y-79247372D01*
X82886344Y-79253597D01*
X82886342Y-79253600D01*
X82836967Y-79338606D01*
X82802061Y-79398702D01*
X82751333Y-79566193D01*
X82740497Y-79740862D01*
X81850500Y-79740862D01*
X81850500Y-77667806D01*
X116744563Y-77667806D01*
X116762790Y-77868089D01*
X116819572Y-78061018D01*
X116912746Y-78239243D01*
X117038763Y-78395976D01*
X117192823Y-78525248D01*
X117369058Y-78622134D01*
X117374840Y-78623968D01*
X117374842Y-78623969D01*
X117554976Y-78681111D01*
X117554978Y-78681111D01*
X117560755Y-78682944D01*
X117588187Y-78686021D01*
X117713815Y-78700113D01*
X117713821Y-78700113D01*
X117717268Y-78700500D01*
X118275850Y-78700500D01*
X118342889Y-78720185D01*
X118388644Y-78772989D01*
X118399848Y-78825148D01*
X118399842Y-78826370D01*
X118399747Y-78844460D01*
X118398688Y-78859994D01*
X118394394Y-78892611D01*
X118397286Y-78918803D01*
X118398479Y-78929613D01*
X118399226Y-78943862D01*
X118399031Y-78981105D01*
X118400776Y-78988373D01*
X118406712Y-79013098D01*
X118409390Y-79028443D01*
X118412178Y-79053704D01*
X118412179Y-79053709D01*
X118412999Y-79061135D01*
X118425796Y-79096105D01*
X118429918Y-79109755D01*
X118438612Y-79145968D01*
X118453702Y-79175204D01*
X118459956Y-79189451D01*
X118471266Y-79220356D01*
X118475432Y-79226555D01*
X118475433Y-79226558D01*
X118492034Y-79251263D01*
X118499300Y-79263550D01*
X118516375Y-79296631D01*
X118538008Y-79321430D01*
X118547474Y-79333766D01*
X118565830Y-79361083D01*
X118571360Y-79366115D01*
X118571361Y-79366116D01*
X118593372Y-79386144D01*
X118603351Y-79396334D01*
X118627831Y-79424396D01*
X118633947Y-79428694D01*
X118654749Y-79443314D01*
X118666903Y-79453052D01*
X118691233Y-79475191D01*
X118697801Y-79478757D01*
X118697802Y-79478758D01*
X118723964Y-79492963D01*
X118736084Y-79500478D01*
X118766547Y-79521887D01*
X118797200Y-79533838D01*
X118811323Y-79540394D01*
X118840235Y-79556092D01*
X118876262Y-79565543D01*
X118889805Y-79569944D01*
X118924513Y-79583476D01*
X118957129Y-79587770D01*
X118972409Y-79590768D01*
X118997000Y-79597219D01*
X118997004Y-79597219D01*
X119004233Y-79599116D01*
X119032688Y-79599563D01*
X119043948Y-79599740D01*
X119049883Y-79599981D01*
X119053826Y-79600500D01*
X119091346Y-79600500D01*
X119093294Y-79600515D01*
X119166290Y-79601662D01*
X119166293Y-79601662D01*
X119173760Y-79601779D01*
X119214279Y-79592499D01*
X119227053Y-79590270D01*
X119260894Y-79586175D01*
X119260897Y-79586174D01*
X119268320Y-79585276D01*
X119295049Y-79575176D01*
X119311178Y-79570307D01*
X119339029Y-79563928D01*
X119345710Y-79560568D01*
X119345712Y-79560567D01*
X119376164Y-79545251D01*
X119388033Y-79540040D01*
X119426923Y-79525345D01*
X119433084Y-79521110D01*
X119433087Y-79521109D01*
X119450459Y-79509169D01*
X119464976Y-79500583D01*
X119478531Y-79493766D01*
X119490498Y-79487747D01*
X119522108Y-79460750D01*
X119532398Y-79452854D01*
X119566651Y-79429312D01*
X119571625Y-79423729D01*
X119571631Y-79423724D01*
X119585654Y-79407985D01*
X119597704Y-79396184D01*
X119603828Y-79390954D01*
X119619423Y-79377634D01*
X119643683Y-79343871D01*
X119651781Y-79333764D01*
X119679440Y-79302721D01*
X119692808Y-79277472D01*
X119701691Y-79263145D01*
X119718361Y-79239947D01*
X119733862Y-79201386D01*
X119739326Y-79189617D01*
X119755278Y-79159488D01*
X119755279Y-79159486D01*
X119758776Y-79152881D01*
X119760598Y-79145629D01*
X119765736Y-79125177D01*
X119770946Y-79109140D01*
X119778813Y-79089570D01*
X119778814Y-79089568D01*
X119781601Y-79082634D01*
X119783205Y-79071368D01*
X119787458Y-79041481D01*
X119789955Y-79028757D01*
X119800081Y-78988441D01*
X119800231Y-78959875D01*
X119801466Y-78943056D01*
X119804917Y-78918803D01*
X119805490Y-78914778D01*
X119805645Y-78900000D01*
X119801693Y-78867340D01*
X119800797Y-78851796D01*
X119800930Y-78826370D01*
X119800930Y-78826369D01*
X119800969Y-78818895D01*
X119792274Y-78782677D01*
X119789749Y-78768642D01*
X119786174Y-78739099D01*
X119786174Y-78739098D01*
X119785276Y-78731680D01*
X119780933Y-78720185D01*
X119773648Y-78700907D01*
X119769068Y-78686021D01*
X119763134Y-78661304D01*
X119763134Y-78661303D01*
X119761388Y-78654032D01*
X119744314Y-78620951D01*
X119738508Y-78607912D01*
X119727987Y-78580069D01*
X119725345Y-78573077D01*
X119706710Y-78545963D01*
X119698712Y-78532601D01*
X119692904Y-78521348D01*
X119683625Y-78503369D01*
X119678711Y-78497736D01*
X119678709Y-78497733D01*
X119659152Y-78475315D01*
X119650403Y-78464036D01*
X119633546Y-78439509D01*
X119633544Y-78439507D01*
X119629312Y-78433349D01*
X119623736Y-78428381D01*
X119623729Y-78428373D01*
X119604747Y-78411461D01*
X119593800Y-78400400D01*
X119572169Y-78375604D01*
X119541709Y-78354197D01*
X119530522Y-78345330D01*
X119508304Y-78325534D01*
X119508303Y-78325533D01*
X119502721Y-78320560D01*
X119496118Y-78317064D01*
X119496111Y-78317059D01*
X119473642Y-78305163D01*
X119460369Y-78297029D01*
X119433453Y-78278113D01*
X119426491Y-78275398D01*
X119426486Y-78275396D01*
X119398763Y-78264587D01*
X119385784Y-78258645D01*
X119359490Y-78244723D01*
X119359488Y-78244722D01*
X119352881Y-78241224D01*
X119345626Y-78239402D01*
X119343923Y-78238748D01*
X119288390Y-78196347D01*
X119264596Y-78130654D01*
X119273787Y-78076462D01*
X119274945Y-78074320D01*
X119334415Y-77882203D01*
X119355437Y-77682194D01*
X119354535Y-77672274D01*
X119337759Y-77487946D01*
X119337210Y-77481911D01*
X119333473Y-77469212D01*
X119282141Y-77294802D01*
X119282141Y-77294801D01*
X119280428Y-77288982D01*
X119187254Y-77110757D01*
X119079999Y-76977359D01*
X119065037Y-76958750D01*
X119065036Y-76958749D01*
X119061237Y-76954024D01*
X118907177Y-76824752D01*
X118730942Y-76727866D01*
X118725160Y-76726032D01*
X118725158Y-76726031D01*
X118545024Y-76668889D01*
X118545022Y-76668889D01*
X118539245Y-76667056D01*
X118484713Y-76660939D01*
X118386185Y-76649887D01*
X118386179Y-76649887D01*
X118382732Y-76649500D01*
X117724394Y-76649500D01*
X117721379Y-76649796D01*
X117721371Y-76649796D01*
X117580885Y-76663571D01*
X117580883Y-76663571D01*
X117574849Y-76664163D01*
X117382321Y-76722290D01*
X117376970Y-76725135D01*
X117376968Y-76725136D01*
X117294711Y-76768873D01*
X117204751Y-76816706D01*
X117190734Y-76828138D01*
X117078131Y-76919975D01*
X117048901Y-76943814D01*
X116920708Y-77098773D01*
X116917822Y-77104110D01*
X116917821Y-77104112D01*
X116865539Y-77200807D01*
X116825055Y-77275680D01*
X116765585Y-77467797D01*
X116744563Y-77667806D01*
X81850500Y-77667806D01*
X81850500Y-76740862D01*
X82740497Y-76740862D01*
X82770134Y-76913340D01*
X82772957Y-76919973D01*
X82772957Y-76919975D01*
X82797374Y-76977359D01*
X82838654Y-77074373D01*
X82842921Y-77080171D01*
X82842922Y-77080173D01*
X82931700Y-77200807D01*
X82942383Y-77215324D01*
X82947874Y-77219989D01*
X82947875Y-77219990D01*
X83070261Y-77323965D01*
X83070264Y-77323967D01*
X83075755Y-77328632D01*
X83082172Y-77331909D01*
X83082174Y-77331910D01*
X83148616Y-77365837D01*
X83231616Y-77408219D01*
X83238612Y-77409931D01*
X83238615Y-77409932D01*
X83309763Y-77427341D01*
X83401606Y-77449815D01*
X83407114Y-77450157D01*
X83407116Y-77450157D01*
X83410744Y-77450382D01*
X83410748Y-77450382D01*
X83412648Y-77450500D01*
X83538822Y-77450500D01*
X83668828Y-77435343D01*
X83675595Y-77432887D01*
X83675598Y-77432886D01*
X83826557Y-77378090D01*
X83826558Y-77378089D01*
X83833331Y-77375631D01*
X83965493Y-77288982D01*
X83973656Y-77283630D01*
X83973657Y-77283629D01*
X83979685Y-77279677D01*
X83984637Y-77274449D01*
X83984640Y-77274447D01*
X84095087Y-77157857D01*
X84095089Y-77157855D01*
X84100040Y-77152628D01*
X84103656Y-77146403D01*
X84103658Y-77146400D01*
X84184322Y-77007525D01*
X84187939Y-77001298D01*
X84238667Y-76833807D01*
X84245694Y-76720539D01*
X84249057Y-76666332D01*
X84249057Y-76666329D01*
X84249503Y-76659138D01*
X84219866Y-76486660D01*
X84151346Y-76325627D01*
X84098340Y-76253600D01*
X84051888Y-76190479D01*
X84051886Y-76190477D01*
X84047617Y-76184676D01*
X83967216Y-76116370D01*
X83919739Y-76076035D01*
X83919736Y-76076033D01*
X83914245Y-76071368D01*
X83907828Y-76068091D01*
X83907826Y-76068090D01*
X83817388Y-76021910D01*
X83758384Y-75991781D01*
X83751388Y-75990069D01*
X83751385Y-75990068D01*
X83680237Y-75972659D01*
X83588394Y-75950185D01*
X83582886Y-75949843D01*
X83582884Y-75949843D01*
X83579256Y-75949618D01*
X83579252Y-75949618D01*
X83577352Y-75949500D01*
X83451178Y-75949500D01*
X83321172Y-75964657D01*
X83314405Y-75967113D01*
X83314402Y-75967114D01*
X83163443Y-76021910D01*
X83156669Y-76024369D01*
X83010315Y-76120323D01*
X83005363Y-76125551D01*
X83005360Y-76125553D01*
X82943855Y-76190479D01*
X82889960Y-76247372D01*
X82886344Y-76253597D01*
X82886342Y-76253600D01*
X82847875Y-76319827D01*
X82802061Y-76398702D01*
X82751333Y-76566193D01*
X82750887Y-76573385D01*
X82741122Y-76730791D01*
X82740497Y-76740862D01*
X81850500Y-76740862D01*
X81850500Y-70637139D01*
X81852384Y-70615606D01*
X81853252Y-70610683D01*
X81855136Y-70600000D01*
X81853252Y-70589316D01*
X81853252Y-70583407D01*
X81852098Y-70565445D01*
X81853561Y-70533789D01*
X84345996Y-70533789D01*
X84354913Y-70771295D01*
X84355990Y-70776430D01*
X84355991Y-70776435D01*
X84402639Y-70998758D01*
X84403719Y-71003904D01*
X84491020Y-71224963D01*
X84493741Y-71229447D01*
X84493743Y-71229451D01*
X84561233Y-71340670D01*
X84614319Y-71428153D01*
X84770090Y-71607664D01*
X84953880Y-71758362D01*
X84958441Y-71760958D01*
X84958442Y-71760959D01*
X85155875Y-71873345D01*
X85155880Y-71873347D01*
X85160433Y-71875939D01*
X85383844Y-71957034D01*
X85617725Y-71999326D01*
X85642619Y-72000500D01*
X85809680Y-72000500D01*
X85812296Y-72000278D01*
X85812297Y-72000278D01*
X85981590Y-71985913D01*
X85986823Y-71985469D01*
X86216874Y-71925760D01*
X86433576Y-71828143D01*
X86630732Y-71695409D01*
X86802705Y-71531355D01*
X86944579Y-71340670D01*
X86946958Y-71335991D01*
X87049913Y-71133493D01*
X87049915Y-71133488D01*
X87052295Y-71128807D01*
X87122775Y-70901824D01*
X87146063Y-70726123D01*
X87153315Y-70671412D01*
X87153315Y-70671408D01*
X87154004Y-70666211D01*
X87145087Y-70428705D01*
X87143923Y-70423153D01*
X87097361Y-70201242D01*
X87097360Y-70201239D01*
X87096281Y-70196096D01*
X87008980Y-69975037D01*
X86948808Y-69875876D01*
X86888408Y-69776341D01*
X86885681Y-69771847D01*
X86790644Y-69662326D01*
X90882667Y-69662326D01*
X90935168Y-69858264D01*
X90938857Y-69868397D01*
X91034110Y-70072667D01*
X91039508Y-70082017D01*
X91168784Y-70266643D01*
X91175719Y-70274907D01*
X91335091Y-70434279D01*
X91343357Y-70441215D01*
X91527992Y-70570498D01*
X91537324Y-70575886D01*
X91741603Y-70671143D01*
X91751736Y-70674832D01*
X91942779Y-70726022D01*
X91956653Y-70725691D01*
X91960000Y-70717875D01*
X91960000Y-70712806D01*
X92460000Y-70712806D01*
X92463910Y-70726123D01*
X92472326Y-70727333D01*
X92668264Y-70674832D01*
X92678397Y-70671143D01*
X92882676Y-70575886D01*
X92892008Y-70570498D01*
X93076643Y-70441215D01*
X93084909Y-70434279D01*
X93244281Y-70274907D01*
X93251216Y-70266643D01*
X93380492Y-70082017D01*
X93385890Y-70072667D01*
X93477656Y-69875876D01*
X93523829Y-69823437D01*
X93591022Y-69804285D01*
X93657903Y-69824501D01*
X93702648Y-69876368D01*
X93749369Y-69977714D01*
X93871405Y-70150391D01*
X94022865Y-70297937D01*
X94027588Y-70301093D01*
X94027592Y-70301096D01*
X94098663Y-70348584D01*
X94198677Y-70415411D01*
X94392953Y-70498878D01*
X94428277Y-70506871D01*
X94593638Y-70544289D01*
X94593642Y-70544290D01*
X94599186Y-70545544D01*
X94725315Y-70550500D01*
X94804789Y-70553623D01*
X94804791Y-70553623D01*
X94810470Y-70553846D01*
X94816090Y-70553031D01*
X94816092Y-70553031D01*
X95014103Y-70524320D01*
X95014104Y-70524320D01*
X95019730Y-70523504D01*
X95038588Y-70517103D01*
X95214565Y-70457367D01*
X95214568Y-70457366D01*
X95219955Y-70455537D01*
X95224916Y-70452759D01*
X95224922Y-70452756D01*
X95331530Y-70393052D01*
X95404442Y-70352219D01*
X95442165Y-70320846D01*
X95562645Y-70220644D01*
X95567012Y-70217012D01*
X95588473Y-70191208D01*
X95698584Y-70058813D01*
X95698585Y-70058811D01*
X95702219Y-70054442D01*
X95748080Y-69972552D01*
X95802756Y-69874922D01*
X95802759Y-69874916D01*
X95805537Y-69869955D01*
X95807556Y-69864009D01*
X95871675Y-69675118D01*
X95873504Y-69669730D01*
X95875954Y-69652831D01*
X95897820Y-69502033D01*
X95926921Y-69438512D01*
X95980225Y-69404346D01*
X96060974Y-69404346D01*
X96114347Y-69438736D01*
X96143296Y-69502327D01*
X96144271Y-69511707D01*
X96148796Y-69580749D01*
X96200845Y-69785690D01*
X96203219Y-69790841D01*
X96203221Y-69790845D01*
X96248538Y-69889144D01*
X96289369Y-69977714D01*
X96411405Y-70150391D01*
X96562865Y-70297937D01*
X96567588Y-70301093D01*
X96567592Y-70301096D01*
X96638663Y-70348584D01*
X96738677Y-70415411D01*
X96932953Y-70498878D01*
X96968277Y-70506871D01*
X97133638Y-70544289D01*
X97133642Y-70544290D01*
X97139186Y-70545544D01*
X97265315Y-70550500D01*
X97344789Y-70553623D01*
X97344791Y-70553623D01*
X97350470Y-70553846D01*
X97356090Y-70553031D01*
X97356092Y-70553031D01*
X97554103Y-70524320D01*
X97554104Y-70524320D01*
X97559730Y-70523504D01*
X97578588Y-70517103D01*
X97754565Y-70457367D01*
X97754568Y-70457366D01*
X97759955Y-70455537D01*
X97764916Y-70452759D01*
X97764922Y-70452756D01*
X97871530Y-70393052D01*
X97944442Y-70352219D01*
X97982165Y-70320846D01*
X98102645Y-70220644D01*
X98107012Y-70217012D01*
X98128473Y-70191208D01*
X98238584Y-70058813D01*
X98238585Y-70058811D01*
X98242219Y-70054442D01*
X98288080Y-69972552D01*
X98342756Y-69874922D01*
X98342759Y-69874916D01*
X98345537Y-69869955D01*
X98347556Y-69864009D01*
X98411675Y-69675118D01*
X98413504Y-69669730D01*
X98426406Y-69580749D01*
X98432783Y-69536769D01*
X98461884Y-69473248D01*
X98520707Y-69435543D01*
X98590577Y-69435627D01*
X98649310Y-69473471D01*
X98678259Y-69537061D01*
X98679500Y-69554562D01*
X98679500Y-70294646D01*
X98682618Y-70320846D01*
X98728061Y-70423153D01*
X98807287Y-70502241D01*
X98817758Y-70506870D01*
X98817759Y-70506871D01*
X98901147Y-70543737D01*
X98901149Y-70543738D01*
X98909673Y-70547506D01*
X98935354Y-70550500D01*
X100724646Y-70550500D01*
X100728300Y-70550065D01*
X100728302Y-70550065D01*
X100733266Y-70549474D01*
X100750846Y-70547382D01*
X100853153Y-70501939D01*
X100932241Y-70422713D01*
X100977506Y-70320327D01*
X100980500Y-70294646D01*
X100980500Y-69662326D01*
X103682667Y-69662326D01*
X103735168Y-69858264D01*
X103738857Y-69868397D01*
X103834110Y-70072667D01*
X103839508Y-70082017D01*
X103968784Y-70266643D01*
X103975719Y-70274907D01*
X104135091Y-70434279D01*
X104143357Y-70441215D01*
X104327992Y-70570498D01*
X104337324Y-70575886D01*
X104541603Y-70671143D01*
X104551736Y-70674832D01*
X104742779Y-70726022D01*
X104756653Y-70725691D01*
X104760000Y-70717875D01*
X104760000Y-70712806D01*
X105260000Y-70712806D01*
X105263910Y-70726123D01*
X105272326Y-70727333D01*
X105468264Y-70674832D01*
X105478397Y-70671143D01*
X105682676Y-70575886D01*
X105692008Y-70570498D01*
X105876643Y-70441215D01*
X105884909Y-70434279D01*
X106044281Y-70274907D01*
X106051216Y-70266643D01*
X106180492Y-70082017D01*
X106185890Y-70072667D01*
X106277656Y-69875876D01*
X106323829Y-69823437D01*
X106391022Y-69804285D01*
X106457903Y-69824501D01*
X106502648Y-69876368D01*
X106549369Y-69977714D01*
X106671405Y-70150391D01*
X106822865Y-70297937D01*
X106827588Y-70301093D01*
X106827592Y-70301096D01*
X106898663Y-70348584D01*
X106998677Y-70415411D01*
X107192953Y-70498878D01*
X107228277Y-70506871D01*
X107393638Y-70544289D01*
X107393642Y-70544290D01*
X107399186Y-70545544D01*
X107525315Y-70550500D01*
X107604789Y-70553623D01*
X107604791Y-70553623D01*
X107610470Y-70553846D01*
X107616090Y-70553031D01*
X107616092Y-70553031D01*
X107814103Y-70524320D01*
X107814104Y-70524320D01*
X107819730Y-70523504D01*
X107838588Y-70517103D01*
X108014565Y-70457367D01*
X108014568Y-70457366D01*
X108019955Y-70455537D01*
X108024916Y-70452759D01*
X108024922Y-70452756D01*
X108131530Y-70393052D01*
X108204442Y-70352219D01*
X108242165Y-70320846D01*
X108362645Y-70220644D01*
X108367012Y-70217012D01*
X108388473Y-70191208D01*
X108498584Y-70058813D01*
X108498585Y-70058811D01*
X108502219Y-70054442D01*
X108548080Y-69972552D01*
X108602756Y-69874922D01*
X108602759Y-69874916D01*
X108605537Y-69869955D01*
X108607556Y-69864009D01*
X108671675Y-69675118D01*
X108673504Y-69669730D01*
X108675954Y-69652831D01*
X108697820Y-69502033D01*
X108726921Y-69438512D01*
X108780225Y-69404346D01*
X108860974Y-69404346D01*
X108914347Y-69438736D01*
X108943296Y-69502327D01*
X108944271Y-69511707D01*
X108948796Y-69580749D01*
X109000845Y-69785690D01*
X109003219Y-69790841D01*
X109003221Y-69790845D01*
X109048538Y-69889144D01*
X109089369Y-69977714D01*
X109211405Y-70150391D01*
X109362865Y-70297937D01*
X109367588Y-70301093D01*
X109367592Y-70301096D01*
X109438663Y-70348584D01*
X109538677Y-70415411D01*
X109732953Y-70498878D01*
X109768277Y-70506871D01*
X109933638Y-70544289D01*
X109933642Y-70544290D01*
X109939186Y-70545544D01*
X110065315Y-70550500D01*
X110144789Y-70553623D01*
X110144791Y-70553623D01*
X110150470Y-70553846D01*
X110156090Y-70553031D01*
X110156092Y-70553031D01*
X110354103Y-70524320D01*
X110354104Y-70524320D01*
X110359730Y-70523504D01*
X110378588Y-70517103D01*
X110554565Y-70457367D01*
X110554568Y-70457366D01*
X110559955Y-70455537D01*
X110564916Y-70452759D01*
X110564922Y-70452756D01*
X110671530Y-70393052D01*
X110744442Y-70352219D01*
X110782165Y-70320846D01*
X110902645Y-70220644D01*
X110907012Y-70217012D01*
X110928473Y-70191208D01*
X111038584Y-70058813D01*
X111038585Y-70058811D01*
X111042219Y-70054442D01*
X111088080Y-69972552D01*
X111142756Y-69874922D01*
X111142759Y-69874916D01*
X111145537Y-69869955D01*
X111147556Y-69864009D01*
X111211675Y-69675118D01*
X111213504Y-69669730D01*
X111226406Y-69580749D01*
X111232783Y-69536769D01*
X111261884Y-69473248D01*
X111320707Y-69435543D01*
X111390577Y-69435627D01*
X111449310Y-69473471D01*
X111478259Y-69537061D01*
X111479500Y-69554562D01*
X111479500Y-70294646D01*
X111482618Y-70320846D01*
X111528061Y-70423153D01*
X111607287Y-70502241D01*
X111617758Y-70506870D01*
X111617759Y-70506871D01*
X111701147Y-70543737D01*
X111701149Y-70543738D01*
X111709673Y-70547506D01*
X111735354Y-70550500D01*
X113524646Y-70550500D01*
X113528300Y-70550065D01*
X113528302Y-70550065D01*
X113533266Y-70549474D01*
X113550846Y-70547382D01*
X113581448Y-70533789D01*
X117745996Y-70533789D01*
X117754913Y-70771295D01*
X117755990Y-70776430D01*
X117755991Y-70776435D01*
X117802639Y-70998758D01*
X117803719Y-71003904D01*
X117891020Y-71224963D01*
X117893741Y-71229447D01*
X117893743Y-71229451D01*
X117961233Y-71340670D01*
X118014319Y-71428153D01*
X118170090Y-71607664D01*
X118353880Y-71758362D01*
X118358441Y-71760958D01*
X118358442Y-71760959D01*
X118555875Y-71873345D01*
X118555880Y-71873347D01*
X118560433Y-71875939D01*
X118783844Y-71957034D01*
X119017725Y-71999326D01*
X119042619Y-72000500D01*
X119209680Y-72000500D01*
X119212296Y-72000278D01*
X119212297Y-72000278D01*
X119381590Y-71985913D01*
X119386823Y-71985469D01*
X119616874Y-71925760D01*
X119833576Y-71828143D01*
X120030732Y-71695409D01*
X120202705Y-71531355D01*
X120344579Y-71340670D01*
X120346958Y-71335991D01*
X120449913Y-71133493D01*
X120449915Y-71133488D01*
X120452295Y-71128807D01*
X120522775Y-70901824D01*
X120546063Y-70726123D01*
X120553315Y-70671412D01*
X120553315Y-70671408D01*
X120554004Y-70666211D01*
X120545087Y-70428705D01*
X120543923Y-70423153D01*
X120497361Y-70201242D01*
X120497360Y-70201239D01*
X120496281Y-70196096D01*
X120408980Y-69975037D01*
X120348808Y-69875876D01*
X120288408Y-69776341D01*
X120285681Y-69771847D01*
X120129910Y-69592336D01*
X119946120Y-69441638D01*
X119941022Y-69438736D01*
X119744125Y-69326655D01*
X119744120Y-69326653D01*
X119739567Y-69324061D01*
X119516156Y-69242966D01*
X119282275Y-69200674D01*
X119257381Y-69199500D01*
X119090320Y-69199500D01*
X119087704Y-69199722D01*
X119087703Y-69199722D01*
X119076484Y-69200674D01*
X118913177Y-69214531D01*
X118683126Y-69274240D01*
X118466424Y-69371857D01*
X118269268Y-69504591D01*
X118097295Y-69668645D01*
X117955421Y-69859330D01*
X117953042Y-69864008D01*
X117953042Y-69864009D01*
X117856222Y-70054442D01*
X117847705Y-70071193D01*
X117846146Y-70076213D01*
X117846145Y-70076216D01*
X117810439Y-70191208D01*
X117777225Y-70298176D01*
X117776534Y-70303386D01*
X117776534Y-70303388D01*
X117747602Y-70521675D01*
X117745996Y-70533789D01*
X113581448Y-70533789D01*
X113653153Y-70501939D01*
X113732241Y-70422713D01*
X113777506Y-70320327D01*
X113780500Y-70294646D01*
X113780500Y-68505354D01*
X113777382Y-68479154D01*
X113731939Y-68376847D01*
X113652713Y-68297759D01*
X113642242Y-68293130D01*
X113642241Y-68293129D01*
X113558853Y-68256263D01*
X113558851Y-68256262D01*
X113550327Y-68252494D01*
X113524646Y-68249500D01*
X111735354Y-68249500D01*
X111731700Y-68249935D01*
X111731698Y-68249935D01*
X111726734Y-68250526D01*
X111709154Y-68252618D01*
X111606847Y-68298061D01*
X111527759Y-68377287D01*
X111523130Y-68387758D01*
X111523129Y-68387759D01*
X111488876Y-68465238D01*
X111482494Y-68479673D01*
X111479500Y-68505354D01*
X111479500Y-69242727D01*
X111459815Y-69309766D01*
X111407011Y-69355521D01*
X111337853Y-69365465D01*
X111274297Y-69336440D01*
X111236523Y-69277662D01*
X111232020Y-69254073D01*
X111228508Y-69215851D01*
X111226081Y-69189440D01*
X111168686Y-68985931D01*
X111075165Y-68796290D01*
X110948651Y-68626867D01*
X110944481Y-68623012D01*
X110944478Y-68623009D01*
X110838552Y-68525093D01*
X110793381Y-68483337D01*
X110787574Y-68479673D01*
X110619363Y-68373539D01*
X110619361Y-68373538D01*
X110614554Y-68370505D01*
X110418160Y-68292152D01*
X110412579Y-68291042D01*
X110412576Y-68291041D01*
X110314468Y-68271527D01*
X110210775Y-68250901D01*
X110205088Y-68250827D01*
X110205083Y-68250826D01*
X110005034Y-68248207D01*
X110005029Y-68248207D01*
X109999346Y-68248133D01*
X109993742Y-68249096D01*
X109993741Y-68249096D01*
X109796550Y-68282979D01*
X109796547Y-68282980D01*
X109790953Y-68283941D01*
X109592575Y-68357127D01*
X109587697Y-68360029D01*
X109587695Y-68360030D01*
X109415740Y-68462332D01*
X109415737Y-68462334D01*
X109410856Y-68465238D01*
X109251881Y-68604655D01*
X109248362Y-68609119D01*
X109248359Y-68609122D01*
X109230782Y-68631419D01*
X109120976Y-68770708D01*
X109022523Y-68957836D01*
X108959820Y-69159773D01*
X108942851Y-69303140D01*
X108915425Y-69367398D01*
X108860974Y-69404346D01*
X108780225Y-69404346D01*
X108780667Y-69404063D01*
X108728057Y-69372081D01*
X108697453Y-69309271D01*
X108696232Y-69299909D01*
X108686601Y-69195100D01*
X108686081Y-69189440D01*
X108628686Y-68985931D01*
X108535165Y-68796290D01*
X108408651Y-68626867D01*
X108404481Y-68623012D01*
X108404478Y-68623009D01*
X108298552Y-68525093D01*
X108253381Y-68483337D01*
X108247574Y-68479673D01*
X108079363Y-68373539D01*
X108079361Y-68373538D01*
X108074554Y-68370505D01*
X107878160Y-68292152D01*
X107872579Y-68291042D01*
X107872576Y-68291041D01*
X107774468Y-68271527D01*
X107670775Y-68250901D01*
X107665088Y-68250827D01*
X107665083Y-68250826D01*
X107465034Y-68248207D01*
X107465029Y-68248207D01*
X107459346Y-68248133D01*
X107453742Y-68249096D01*
X107453741Y-68249096D01*
X107256550Y-68282979D01*
X107256547Y-68282980D01*
X107250953Y-68283941D01*
X107052575Y-68357127D01*
X107047697Y-68360029D01*
X107047695Y-68360030D01*
X106875740Y-68462332D01*
X106875737Y-68462334D01*
X106870856Y-68465238D01*
X106711881Y-68604655D01*
X106708362Y-68609119D01*
X106708359Y-68609122D01*
X106690782Y-68631419D01*
X106580976Y-68770708D01*
X106578325Y-68775747D01*
X106498685Y-68927117D01*
X106450050Y-68977281D01*
X106382015Y-68993187D01*
X106316181Y-68969786D01*
X106276565Y-68921786D01*
X106185890Y-68727333D01*
X106180492Y-68717983D01*
X106051216Y-68533357D01*
X106044281Y-68525093D01*
X105884909Y-68365721D01*
X105876643Y-68358785D01*
X105692008Y-68229502D01*
X105682676Y-68224114D01*
X105478397Y-68128857D01*
X105468264Y-68125168D01*
X105277221Y-68073978D01*
X105263347Y-68074309D01*
X105260000Y-68082125D01*
X105260000Y-70712806D01*
X104760000Y-70712806D01*
X104760000Y-69667830D01*
X104755596Y-69652831D01*
X104754226Y-69651644D01*
X104746668Y-69650000D01*
X103697194Y-69650000D01*
X103683877Y-69653910D01*
X103682667Y-69662326D01*
X100980500Y-69662326D01*
X100980500Y-69132779D01*
X103683978Y-69132779D01*
X103684309Y-69146653D01*
X103692125Y-69150000D01*
X104742170Y-69150000D01*
X104757169Y-69145596D01*
X104758356Y-69144226D01*
X104760000Y-69136668D01*
X104760000Y-68087194D01*
X104756090Y-68073877D01*
X104747674Y-68072667D01*
X104551736Y-68125168D01*
X104541603Y-68128857D01*
X104337333Y-68224110D01*
X104327983Y-68229508D01*
X104143357Y-68358784D01*
X104135093Y-68365719D01*
X103975719Y-68525093D01*
X103968784Y-68533357D01*
X103839508Y-68717983D01*
X103834110Y-68727333D01*
X103738857Y-68931603D01*
X103735168Y-68941736D01*
X103683978Y-69132779D01*
X100980500Y-69132779D01*
X100980500Y-68505354D01*
X100977382Y-68479154D01*
X100931939Y-68376847D01*
X100852713Y-68297759D01*
X100842242Y-68293130D01*
X100842241Y-68293129D01*
X100758853Y-68256263D01*
X100758851Y-68256262D01*
X100750327Y-68252494D01*
X100724646Y-68249500D01*
X98935354Y-68249500D01*
X98931700Y-68249935D01*
X98931698Y-68249935D01*
X98926734Y-68250526D01*
X98909154Y-68252618D01*
X98806847Y-68298061D01*
X98727759Y-68377287D01*
X98723130Y-68387758D01*
X98723129Y-68387759D01*
X98688876Y-68465238D01*
X98682494Y-68479673D01*
X98679500Y-68505354D01*
X98679500Y-69242727D01*
X98659815Y-69309766D01*
X98607011Y-69355521D01*
X98537853Y-69365465D01*
X98474297Y-69336440D01*
X98436523Y-69277662D01*
X98432020Y-69254073D01*
X98428508Y-69215851D01*
X98426081Y-69189440D01*
X98368686Y-68985931D01*
X98275165Y-68796290D01*
X98148651Y-68626867D01*
X98144481Y-68623012D01*
X98144478Y-68623009D01*
X98038552Y-68525093D01*
X97993381Y-68483337D01*
X97987574Y-68479673D01*
X97819363Y-68373539D01*
X97819361Y-68373538D01*
X97814554Y-68370505D01*
X97618160Y-68292152D01*
X97612579Y-68291042D01*
X97612576Y-68291041D01*
X97514468Y-68271527D01*
X97410775Y-68250901D01*
X97405088Y-68250827D01*
X97405083Y-68250826D01*
X97205034Y-68248207D01*
X97205029Y-68248207D01*
X97199346Y-68248133D01*
X97193742Y-68249096D01*
X97193741Y-68249096D01*
X96996550Y-68282979D01*
X96996547Y-68282980D01*
X96990953Y-68283941D01*
X96792575Y-68357127D01*
X96787697Y-68360029D01*
X96787695Y-68360030D01*
X96615740Y-68462332D01*
X96615737Y-68462334D01*
X96610856Y-68465238D01*
X96451881Y-68604655D01*
X96448362Y-68609119D01*
X96448359Y-68609122D01*
X96430782Y-68631419D01*
X96320976Y-68770708D01*
X96222523Y-68957836D01*
X96159820Y-69159773D01*
X96142851Y-69303140D01*
X96115425Y-69367398D01*
X96060974Y-69404346D01*
X95980225Y-69404346D01*
X95980667Y-69404063D01*
X95928057Y-69372081D01*
X95897453Y-69309271D01*
X95896232Y-69299909D01*
X95886601Y-69195100D01*
X95886081Y-69189440D01*
X95828686Y-68985931D01*
X95735165Y-68796290D01*
X95608651Y-68626867D01*
X95604481Y-68623012D01*
X95604478Y-68623009D01*
X95498552Y-68525093D01*
X95453381Y-68483337D01*
X95447574Y-68479673D01*
X95279363Y-68373539D01*
X95279361Y-68373538D01*
X95274554Y-68370505D01*
X95078160Y-68292152D01*
X95072579Y-68291042D01*
X95072576Y-68291041D01*
X94974468Y-68271527D01*
X94870775Y-68250901D01*
X94865088Y-68250827D01*
X94865083Y-68250826D01*
X94665034Y-68248207D01*
X94665029Y-68248207D01*
X94659346Y-68248133D01*
X94653742Y-68249096D01*
X94653741Y-68249096D01*
X94456550Y-68282979D01*
X94456547Y-68282980D01*
X94450953Y-68283941D01*
X94252575Y-68357127D01*
X94247697Y-68360029D01*
X94247695Y-68360030D01*
X94075740Y-68462332D01*
X94075737Y-68462334D01*
X94070856Y-68465238D01*
X93911881Y-68604655D01*
X93908362Y-68609119D01*
X93908359Y-68609122D01*
X93890782Y-68631419D01*
X93780976Y-68770708D01*
X93778325Y-68775747D01*
X93698685Y-68927117D01*
X93650050Y-68977281D01*
X93582015Y-68993187D01*
X93516181Y-68969786D01*
X93476565Y-68921786D01*
X93385890Y-68727333D01*
X93380492Y-68717983D01*
X93251216Y-68533357D01*
X93244281Y-68525093D01*
X93084909Y-68365721D01*
X93076643Y-68358785D01*
X92892008Y-68229502D01*
X92882676Y-68224114D01*
X92678397Y-68128857D01*
X92668264Y-68125168D01*
X92477221Y-68073978D01*
X92463347Y-68074309D01*
X92460000Y-68082125D01*
X92460000Y-70712806D01*
X91960000Y-70712806D01*
X91960000Y-69667830D01*
X91955596Y-69652831D01*
X91954226Y-69651644D01*
X91946668Y-69650000D01*
X90897194Y-69650000D01*
X90883877Y-69653910D01*
X90882667Y-69662326D01*
X86790644Y-69662326D01*
X86729910Y-69592336D01*
X86546120Y-69441638D01*
X86541022Y-69438736D01*
X86344125Y-69326655D01*
X86344120Y-69326653D01*
X86339567Y-69324061D01*
X86116156Y-69242966D01*
X85882275Y-69200674D01*
X85857381Y-69199500D01*
X85690320Y-69199500D01*
X85687704Y-69199722D01*
X85687703Y-69199722D01*
X85676484Y-69200674D01*
X85513177Y-69214531D01*
X85283126Y-69274240D01*
X85066424Y-69371857D01*
X84869268Y-69504591D01*
X84697295Y-69668645D01*
X84555421Y-69859330D01*
X84553042Y-69864008D01*
X84553042Y-69864009D01*
X84456222Y-70054442D01*
X84447705Y-70071193D01*
X84446146Y-70076213D01*
X84446145Y-70076216D01*
X84410439Y-70191208D01*
X84377225Y-70298176D01*
X84376534Y-70303386D01*
X84376534Y-70303388D01*
X84347602Y-70521675D01*
X84345996Y-70533789D01*
X81853561Y-70533789D01*
X81863858Y-70311068D01*
X81866871Y-70245916D01*
X81867927Y-70234520D01*
X81869863Y-70220644D01*
X81916106Y-69889136D01*
X81918209Y-69877885D01*
X81932353Y-69817752D01*
X81986801Y-69586253D01*
X81998048Y-69538435D01*
X82001182Y-69527419D01*
X82112005Y-69196769D01*
X82116143Y-69186089D01*
X82139682Y-69132779D01*
X90883978Y-69132779D01*
X90884309Y-69146653D01*
X90892125Y-69150000D01*
X91942170Y-69150000D01*
X91957169Y-69145596D01*
X91958356Y-69144226D01*
X91960000Y-69136668D01*
X91960000Y-68087194D01*
X91956090Y-68073877D01*
X91947674Y-68072667D01*
X91751736Y-68125168D01*
X91741603Y-68128857D01*
X91537333Y-68224110D01*
X91527983Y-68229508D01*
X91343357Y-68358784D01*
X91335093Y-68365719D01*
X91175719Y-68525093D01*
X91168784Y-68533357D01*
X91039508Y-68717983D01*
X91034110Y-68727333D01*
X90938857Y-68931603D01*
X90935168Y-68941736D01*
X90883978Y-69132779D01*
X82139682Y-69132779D01*
X82256994Y-68867091D01*
X82262099Y-68856838D01*
X82387656Y-68631419D01*
X82431789Y-68552185D01*
X82437815Y-68542452D01*
X82444046Y-68533357D01*
X82634896Y-68254750D01*
X82641799Y-68245610D01*
X82864573Y-67977334D01*
X82872289Y-67968870D01*
X83118870Y-67722289D01*
X83127334Y-67714573D01*
X83395610Y-67491799D01*
X83404750Y-67484896D01*
X83507320Y-67414634D01*
X83692458Y-67287811D01*
X83702185Y-67281789D01*
X84006838Y-67112099D01*
X84017091Y-67106994D01*
X84336089Y-66966143D01*
X84346769Y-66962005D01*
X84677419Y-66851182D01*
X84688435Y-66848048D01*
X84858160Y-66808129D01*
X85027892Y-66768208D01*
X85039136Y-66766106D01*
X85384527Y-66717926D01*
X85395916Y-66716871D01*
X85539470Y-66710234D01*
X85715445Y-66702098D01*
X85733407Y-66703252D01*
X85739316Y-66703252D01*
X85750000Y-66705136D01*
X85765609Y-66702384D01*
X85787139Y-66700500D01*
X119112861Y-66700500D01*
X119134391Y-66702384D01*
G37*
%TD.AperFunction*%
%TD*%
M02*
