%TF.GenerationSoftware,KiCad,Pcbnew,(6.0.10)*%
%TF.CreationDate,2023-05-01T12:45:21+05:45*%
%TF.ProjectId,arduino,61726475-696e-46f2-9e6b-696361645f70,rev?*%
%TF.SameCoordinates,Original*%
%TF.FileFunction,Legend,Top*%
%TF.FilePolarity,Positive*%
%FSLAX46Y46*%
G04 Gerber Fmt 4.6, Leading zero omitted, Abs format (unit mm)*
G04 Created by KiCad (PCBNEW (6.0.10)) date 2023-05-01 12:45:21*
%MOMM*%
%LPD*%
G01*
G04 APERTURE LIST*
%ADD10C,0.150000*%
%ADD11C,0.062500*%
%ADD12C,0.100000*%
%ADD13C,0.120000*%
G04 APERTURE END LIST*
D10*
X115255952Y-93952380D02*
X115446428Y-93952380D01*
X115541666Y-94000000D01*
X115636904Y-94095238D01*
X115684523Y-94285714D01*
X115684523Y-94619047D01*
X115636904Y-94809523D01*
X115541666Y-94904761D01*
X115446428Y-94952380D01*
X115255952Y-94952380D01*
X115160714Y-94904761D01*
X115065476Y-94809523D01*
X115017857Y-94619047D01*
X115017857Y-94285714D01*
X115065476Y-94095238D01*
X115160714Y-94000000D01*
X115255952Y-93952380D01*
X116113095Y-94952380D02*
X116113095Y-93952380D01*
X116684523Y-94952380D01*
X116684523Y-93952380D01*
X89323809Y-95452380D02*
X89323809Y-94452380D01*
X89752380Y-94547619D02*
X89800000Y-94500000D01*
X89895238Y-94452380D01*
X90133333Y-94452380D01*
X90228571Y-94500000D01*
X90276190Y-94547619D01*
X90323809Y-94642857D01*
X90323809Y-94738095D01*
X90276190Y-94880952D01*
X89704761Y-95452380D01*
X90323809Y-95452380D01*
X91323809Y-95357142D02*
X91276190Y-95404761D01*
X91133333Y-95452380D01*
X91038095Y-95452380D01*
X90895238Y-95404761D01*
X90800000Y-95309523D01*
X90752380Y-95214285D01*
X90704761Y-95023809D01*
X90704761Y-94880952D01*
X90752380Y-94690476D01*
X90800000Y-94595238D01*
X90895238Y-94500000D01*
X91038095Y-94452380D01*
X91133333Y-94452380D01*
X91276190Y-94500000D01*
X91323809Y-94547619D01*
X106692857Y-72379761D02*
X106835714Y-72427380D01*
X107073809Y-72427380D01*
X107169047Y-72379761D01*
X107216666Y-72332142D01*
X107264285Y-72236904D01*
X107264285Y-72141666D01*
X107216666Y-72046428D01*
X107169047Y-71998809D01*
X107073809Y-71951190D01*
X106883333Y-71903571D01*
X106788095Y-71855952D01*
X106740476Y-71808333D01*
X106692857Y-71713095D01*
X106692857Y-71617857D01*
X106740476Y-71522619D01*
X106788095Y-71475000D01*
X106883333Y-71427380D01*
X107121428Y-71427380D01*
X107264285Y-71475000D01*
X107597619Y-71427380D02*
X107835714Y-72427380D01*
X108026190Y-71713095D01*
X108216666Y-72427380D01*
X108454761Y-71427380D01*
X108835714Y-72427380D02*
X108835714Y-71427380D01*
X109073809Y-71427380D01*
X109216666Y-71475000D01*
X109311904Y-71570238D01*
X109359523Y-71665476D01*
X109407142Y-71855952D01*
X109407142Y-71998809D01*
X109359523Y-72189285D01*
X109311904Y-72284523D01*
X109216666Y-72379761D01*
X109073809Y-72427380D01*
X108835714Y-72427380D01*
X93929761Y-71552380D02*
X93929761Y-72361904D01*
X93977380Y-72457142D01*
X94025000Y-72504761D01*
X94120238Y-72552380D01*
X94310714Y-72552380D01*
X94405952Y-72504761D01*
X94453571Y-72457142D01*
X94501190Y-72361904D01*
X94501190Y-71552380D01*
X94929761Y-72266666D02*
X95405952Y-72266666D01*
X94834523Y-72552380D02*
X95167857Y-71552380D01*
X95501190Y-72552380D01*
X96405952Y-72552380D02*
X96072619Y-72076190D01*
X95834523Y-72552380D02*
X95834523Y-71552380D01*
X96215476Y-71552380D01*
X96310714Y-71600000D01*
X96358333Y-71647619D01*
X96405952Y-71742857D01*
X96405952Y-71885714D01*
X96358333Y-71980952D01*
X96310714Y-72028571D01*
X96215476Y-72076190D01*
X95834523Y-72076190D01*
X96691666Y-71552380D02*
X97263095Y-71552380D01*
X96977380Y-72552380D02*
X96977380Y-71552380D01*
X119488095Y-74827380D02*
X119488095Y-75636904D01*
X119535714Y-75732142D01*
X119583333Y-75779761D01*
X119678571Y-75827380D01*
X119869047Y-75827380D01*
X119964285Y-75779761D01*
X120011904Y-75732142D01*
X120059523Y-75636904D01*
X120059523Y-74827380D01*
X120488095Y-75779761D02*
X120630952Y-75827380D01*
X120869047Y-75827380D01*
X120964285Y-75779761D01*
X121011904Y-75732142D01*
X121059523Y-75636904D01*
X121059523Y-75541666D01*
X121011904Y-75446428D01*
X120964285Y-75398809D01*
X120869047Y-75351190D01*
X120678571Y-75303571D01*
X120583333Y-75255952D01*
X120535714Y-75208333D01*
X120488095Y-75113095D01*
X120488095Y-75017857D01*
X120535714Y-74922619D01*
X120583333Y-74875000D01*
X120678571Y-74827380D01*
X120916666Y-74827380D01*
X121059523Y-74875000D01*
X121821428Y-75303571D02*
X121964285Y-75351190D01*
X122011904Y-75398809D01*
X122059523Y-75494047D01*
X122059523Y-75636904D01*
X122011904Y-75732142D01*
X121964285Y-75779761D01*
X121869047Y-75827380D01*
X121488095Y-75827380D01*
X121488095Y-74827380D01*
X121821428Y-74827380D01*
X121916666Y-74875000D01*
X121964285Y-74922619D01*
X122011904Y-75017857D01*
X122011904Y-75113095D01*
X121964285Y-75208333D01*
X121916666Y-75255952D01*
X121821428Y-75303571D01*
X121488095Y-75303571D01*
D11*
X94102380Y-99826190D02*
X94138095Y-99838095D01*
X94197619Y-99838095D01*
X94221428Y-99826190D01*
X94233333Y-99814285D01*
X94245238Y-99790476D01*
X94245238Y-99766666D01*
X94233333Y-99742857D01*
X94221428Y-99730952D01*
X94197619Y-99719047D01*
X94150000Y-99707142D01*
X94126190Y-99695238D01*
X94114285Y-99683333D01*
X94102380Y-99659523D01*
X94102380Y-99635714D01*
X94114285Y-99611904D01*
X94126190Y-99600000D01*
X94150000Y-99588095D01*
X94209523Y-99588095D01*
X94245238Y-99600000D01*
X94495238Y-99814285D02*
X94483333Y-99826190D01*
X94447619Y-99838095D01*
X94423809Y-99838095D01*
X94388095Y-99826190D01*
X94364285Y-99802380D01*
X94352380Y-99778571D01*
X94340476Y-99730952D01*
X94340476Y-99695238D01*
X94352380Y-99647619D01*
X94364285Y-99623809D01*
X94388095Y-99600000D01*
X94423809Y-99588095D01*
X94447619Y-99588095D01*
X94483333Y-99600000D01*
X94495238Y-99611904D01*
X94721428Y-99838095D02*
X94602380Y-99838095D01*
X94602380Y-99588095D01*
X99284523Y-99550000D02*
X99260714Y-99538095D01*
X99225000Y-99538095D01*
X99189285Y-99550000D01*
X99165476Y-99573809D01*
X99153571Y-99597619D01*
X99141666Y-99645238D01*
X99141666Y-99680952D01*
X99153571Y-99728571D01*
X99165476Y-99752380D01*
X99189285Y-99776190D01*
X99225000Y-99788095D01*
X99248809Y-99788095D01*
X99284523Y-99776190D01*
X99296428Y-99764285D01*
X99296428Y-99680952D01*
X99248809Y-99680952D01*
X99403571Y-99788095D02*
X99403571Y-99538095D01*
X99546428Y-99788095D01*
X99546428Y-99538095D01*
X99665476Y-99788095D02*
X99665476Y-99538095D01*
X99725000Y-99538095D01*
X99760714Y-99550000D01*
X99784523Y-99573809D01*
X99796428Y-99597619D01*
X99808333Y-99645238D01*
X99808333Y-99680952D01*
X99796428Y-99728571D01*
X99784523Y-99752380D01*
X99760714Y-99776190D01*
X99725000Y-99788095D01*
X99665476Y-99788095D01*
X96621428Y-99826190D02*
X96657142Y-99838095D01*
X96716666Y-99838095D01*
X96740476Y-99826190D01*
X96752380Y-99814285D01*
X96764285Y-99790476D01*
X96764285Y-99766666D01*
X96752380Y-99742857D01*
X96740476Y-99730952D01*
X96716666Y-99719047D01*
X96669047Y-99707142D01*
X96645238Y-99695238D01*
X96633333Y-99683333D01*
X96621428Y-99659523D01*
X96621428Y-99635714D01*
X96633333Y-99611904D01*
X96645238Y-99600000D01*
X96669047Y-99588095D01*
X96728571Y-99588095D01*
X96764285Y-99600000D01*
X96871428Y-99838095D02*
X96871428Y-99588095D01*
X96930952Y-99588095D01*
X96966666Y-99600000D01*
X96990476Y-99623809D01*
X97002380Y-99647619D01*
X97014285Y-99695238D01*
X97014285Y-99730952D01*
X97002380Y-99778571D01*
X96990476Y-99802380D01*
X96966666Y-99826190D01*
X96930952Y-99838095D01*
X96871428Y-99838095D01*
X97109523Y-99766666D02*
X97228571Y-99766666D01*
X97085714Y-99838095D02*
X97169047Y-99588095D01*
X97252380Y-99838095D01*
X91615476Y-99588095D02*
X91770238Y-99588095D01*
X91686904Y-99683333D01*
X91722619Y-99683333D01*
X91746428Y-99695238D01*
X91758333Y-99707142D01*
X91770238Y-99730952D01*
X91770238Y-99790476D01*
X91758333Y-99814285D01*
X91746428Y-99826190D01*
X91722619Y-99838095D01*
X91651190Y-99838095D01*
X91627380Y-99826190D01*
X91615476Y-99814285D01*
X91841666Y-99588095D02*
X91925000Y-99838095D01*
X92008333Y-99588095D01*
X92067857Y-99588095D02*
X92222619Y-99588095D01*
X92139285Y-99683333D01*
X92175000Y-99683333D01*
X92198809Y-99695238D01*
X92210714Y-99707142D01*
X92222619Y-99730952D01*
X92222619Y-99790476D01*
X92210714Y-99814285D01*
X92198809Y-99826190D01*
X92175000Y-99838095D01*
X92103571Y-99838095D01*
X92079761Y-99826190D01*
X92067857Y-99814285D01*
X110230952Y-67111904D02*
X110230952Y-67361904D01*
X110064285Y-67361904D02*
X110016666Y-67361904D01*
X109992857Y-67350000D01*
X109969047Y-67326190D01*
X109957142Y-67278571D01*
X109957142Y-67195238D01*
X109969047Y-67147619D01*
X109992857Y-67123809D01*
X110016666Y-67111904D01*
X110064285Y-67111904D01*
X110088095Y-67123809D01*
X110111904Y-67147619D01*
X110123809Y-67195238D01*
X110123809Y-67278571D01*
X110111904Y-67326190D01*
X110088095Y-67350000D01*
X110064285Y-67361904D01*
X105115476Y-67350000D02*
X105139285Y-67361904D01*
X105175000Y-67361904D01*
X105210714Y-67350000D01*
X105234523Y-67326190D01*
X105246428Y-67302380D01*
X105258333Y-67254761D01*
X105258333Y-67219047D01*
X105246428Y-67171428D01*
X105234523Y-67147619D01*
X105210714Y-67123809D01*
X105175000Y-67111904D01*
X105151190Y-67111904D01*
X105115476Y-67123809D01*
X105103571Y-67135714D01*
X105103571Y-67219047D01*
X105151190Y-67219047D01*
X104996428Y-67111904D02*
X104996428Y-67361904D01*
X104853571Y-67111904D01*
X104853571Y-67361904D01*
X104734523Y-67111904D02*
X104734523Y-67361904D01*
X104675000Y-67361904D01*
X104639285Y-67350000D01*
X104615476Y-67326190D01*
X104603571Y-67302380D01*
X104591666Y-67254761D01*
X104591666Y-67219047D01*
X104603571Y-67171428D01*
X104615476Y-67147619D01*
X104639285Y-67123809D01*
X104675000Y-67111904D01*
X104734523Y-67111904D01*
X107548809Y-67135714D02*
X107560714Y-67123809D01*
X107596428Y-67111904D01*
X107620238Y-67111904D01*
X107655952Y-67123809D01*
X107679761Y-67147619D01*
X107691666Y-67171428D01*
X107703571Y-67219047D01*
X107703571Y-67254761D01*
X107691666Y-67302380D01*
X107679761Y-67326190D01*
X107655952Y-67350000D01*
X107620238Y-67361904D01*
X107596428Y-67361904D01*
X107560714Y-67350000D01*
X107548809Y-67338095D01*
X107322619Y-67111904D02*
X107441666Y-67111904D01*
X107441666Y-67361904D01*
X107239285Y-67111904D02*
X107239285Y-67361904D01*
X107096428Y-67111904D02*
X107203571Y-67254761D01*
X107096428Y-67361904D02*
X107239285Y-67219047D01*
X112934523Y-67336904D02*
X112779761Y-67336904D01*
X112863095Y-67241666D01*
X112827380Y-67241666D01*
X112803571Y-67229761D01*
X112791666Y-67217857D01*
X112779761Y-67194047D01*
X112779761Y-67134523D01*
X112791666Y-67110714D01*
X112803571Y-67098809D01*
X112827380Y-67086904D01*
X112898809Y-67086904D01*
X112922619Y-67098809D01*
X112934523Y-67110714D01*
X112708333Y-67336904D02*
X112625000Y-67086904D01*
X112541666Y-67336904D01*
X112482142Y-67336904D02*
X112327380Y-67336904D01*
X112410714Y-67241666D01*
X112375000Y-67241666D01*
X112351190Y-67229761D01*
X112339285Y-67217857D01*
X112327380Y-67194047D01*
X112327380Y-67134523D01*
X112339285Y-67110714D01*
X112351190Y-67098809D01*
X112375000Y-67086904D01*
X112446428Y-67086904D01*
X112470238Y-67098809D01*
X112482142Y-67110714D01*
X100034523Y-67361904D02*
X99879761Y-67361904D01*
X99963095Y-67266666D01*
X99927380Y-67266666D01*
X99903571Y-67254761D01*
X99891666Y-67242857D01*
X99879761Y-67219047D01*
X99879761Y-67159523D01*
X99891666Y-67135714D01*
X99903571Y-67123809D01*
X99927380Y-67111904D01*
X99998809Y-67111904D01*
X100022619Y-67123809D01*
X100034523Y-67135714D01*
X99808333Y-67361904D02*
X99725000Y-67111904D01*
X99641666Y-67361904D01*
X99582142Y-67361904D02*
X99427380Y-67361904D01*
X99510714Y-67266666D01*
X99475000Y-67266666D01*
X99451190Y-67254761D01*
X99439285Y-67242857D01*
X99427380Y-67219047D01*
X99427380Y-67159523D01*
X99439285Y-67135714D01*
X99451190Y-67123809D01*
X99475000Y-67111904D01*
X99546428Y-67111904D01*
X99570238Y-67123809D01*
X99582142Y-67135714D01*
X97440476Y-67361904D02*
X97297619Y-67361904D01*
X97369047Y-67111904D02*
X97369047Y-67361904D01*
X97238095Y-67361904D02*
X97071428Y-67111904D01*
X97071428Y-67361904D02*
X97238095Y-67111904D01*
X94766666Y-67111904D02*
X94850000Y-67230952D01*
X94909523Y-67111904D02*
X94909523Y-67361904D01*
X94814285Y-67361904D01*
X94790476Y-67350000D01*
X94778571Y-67338095D01*
X94766666Y-67314285D01*
X94766666Y-67278571D01*
X94778571Y-67254761D01*
X94790476Y-67242857D01*
X94814285Y-67230952D01*
X94909523Y-67230952D01*
X94683333Y-67361904D02*
X94516666Y-67111904D01*
X94516666Y-67361904D02*
X94683333Y-67111904D01*
X92365476Y-67400000D02*
X92389285Y-67411904D01*
X92425000Y-67411904D01*
X92460714Y-67400000D01*
X92484523Y-67376190D01*
X92496428Y-67352380D01*
X92508333Y-67304761D01*
X92508333Y-67269047D01*
X92496428Y-67221428D01*
X92484523Y-67197619D01*
X92460714Y-67173809D01*
X92425000Y-67161904D01*
X92401190Y-67161904D01*
X92365476Y-67173809D01*
X92353571Y-67185714D01*
X92353571Y-67269047D01*
X92401190Y-67269047D01*
X92246428Y-67161904D02*
X92246428Y-67411904D01*
X92103571Y-67161904D01*
X92103571Y-67411904D01*
X91984523Y-67161904D02*
X91984523Y-67411904D01*
X91925000Y-67411904D01*
X91889285Y-67400000D01*
X91865476Y-67376190D01*
X91853571Y-67352380D01*
X91841666Y-67304761D01*
X91841666Y-67269047D01*
X91853571Y-67221428D01*
X91865476Y-67197619D01*
X91889285Y-67173809D01*
X91925000Y-67161904D01*
X91984523Y-67161904D01*
D10*
X88435714Y-78052380D02*
X87864285Y-78052380D01*
X88150000Y-78052380D02*
X88150000Y-77052380D01*
X88054761Y-77195238D01*
X87959523Y-77290476D01*
X87864285Y-77338095D01*
X87325000Y-78675000D02*
X87050000Y-78375000D01*
X87325000Y-78675000D02*
X87600000Y-78375000D01*
X87325000Y-76825000D02*
X87325000Y-78675000D01*
%TO.C,D1*%
X114652380Y-93438095D02*
X113652380Y-93438095D01*
X113652380Y-93200000D01*
X113700000Y-93057142D01*
X113795238Y-92961904D01*
X113890476Y-92914285D01*
X114080952Y-92866666D01*
X114223809Y-92866666D01*
X114414285Y-92914285D01*
X114509523Y-92961904D01*
X114604761Y-93057142D01*
X114652380Y-93200000D01*
X114652380Y-93438095D01*
X114652380Y-91914285D02*
X114652380Y-92485714D01*
X114652380Y-92200000D02*
X113652380Y-92200000D01*
X113795238Y-92295238D01*
X113890476Y-92390476D01*
X113938095Y-92485714D01*
%TO.C,R2*%
X92733333Y-95202380D02*
X92400000Y-94726190D01*
X92161904Y-95202380D02*
X92161904Y-94202380D01*
X92542857Y-94202380D01*
X92638095Y-94250000D01*
X92685714Y-94297619D01*
X92733333Y-94392857D01*
X92733333Y-94535714D01*
X92685714Y-94630952D01*
X92638095Y-94678571D01*
X92542857Y-94726190D01*
X92161904Y-94726190D01*
X93114285Y-94297619D02*
X93161904Y-94250000D01*
X93257142Y-94202380D01*
X93495238Y-94202380D01*
X93590476Y-94250000D01*
X93638095Y-94297619D01*
X93685714Y-94392857D01*
X93685714Y-94488095D01*
X93638095Y-94630952D01*
X93066666Y-95202380D01*
X93685714Y-95202380D01*
%TO.C,Y1*%
X87126190Y-82676190D02*
X87602380Y-82676190D01*
X86602380Y-83009523D02*
X87126190Y-82676190D01*
X86602380Y-82342857D01*
X87602380Y-81485714D02*
X87602380Y-82057142D01*
X87602380Y-81771428D02*
X86602380Y-81771428D01*
X86745238Y-81866666D01*
X86840476Y-81961904D01*
X86888095Y-82057142D01*
%TO.C,C12*%
X97707142Y-88367857D02*
X97754761Y-88415476D01*
X97802380Y-88558333D01*
X97802380Y-88653571D01*
X97754761Y-88796428D01*
X97659523Y-88891666D01*
X97564285Y-88939285D01*
X97373809Y-88986904D01*
X97230952Y-88986904D01*
X97040476Y-88939285D01*
X96945238Y-88891666D01*
X96850000Y-88796428D01*
X96802380Y-88653571D01*
X96802380Y-88558333D01*
X96850000Y-88415476D01*
X96897619Y-88367857D01*
X97802380Y-87415476D02*
X97802380Y-87986904D01*
X97802380Y-87701190D02*
X96802380Y-87701190D01*
X96945238Y-87796428D01*
X97040476Y-87891666D01*
X97088095Y-87986904D01*
X96897619Y-87034523D02*
X96850000Y-86986904D01*
X96802380Y-86891666D01*
X96802380Y-86653571D01*
X96850000Y-86558333D01*
X96897619Y-86510714D01*
X96992857Y-86463095D01*
X97088095Y-86463095D01*
X97230952Y-86510714D01*
X97802380Y-87082142D01*
X97802380Y-86463095D01*
%TO.C,C13*%
X94482142Y-91067857D02*
X94529761Y-91115476D01*
X94577380Y-91258333D01*
X94577380Y-91353571D01*
X94529761Y-91496428D01*
X94434523Y-91591666D01*
X94339285Y-91639285D01*
X94148809Y-91686904D01*
X94005952Y-91686904D01*
X93815476Y-91639285D01*
X93720238Y-91591666D01*
X93625000Y-91496428D01*
X93577380Y-91353571D01*
X93577380Y-91258333D01*
X93625000Y-91115476D01*
X93672619Y-91067857D01*
X94577380Y-90115476D02*
X94577380Y-90686904D01*
X94577380Y-90401190D02*
X93577380Y-90401190D01*
X93720238Y-90496428D01*
X93815476Y-90591666D01*
X93863095Y-90686904D01*
X93577380Y-89782142D02*
X93577380Y-89163095D01*
X93958333Y-89496428D01*
X93958333Y-89353571D01*
X94005952Y-89258333D01*
X94053571Y-89210714D01*
X94148809Y-89163095D01*
X94386904Y-89163095D01*
X94482142Y-89210714D01*
X94529761Y-89258333D01*
X94577380Y-89353571D01*
X94577380Y-89639285D01*
X94529761Y-89734523D01*
X94482142Y-89782142D01*
%TO.C,C6*%
X95957142Y-78766666D02*
X96004761Y-78814285D01*
X96052380Y-78957142D01*
X96052380Y-79052380D01*
X96004761Y-79195238D01*
X95909523Y-79290476D01*
X95814285Y-79338095D01*
X95623809Y-79385714D01*
X95480952Y-79385714D01*
X95290476Y-79338095D01*
X95195238Y-79290476D01*
X95100000Y-79195238D01*
X95052380Y-79052380D01*
X95052380Y-78957142D01*
X95100000Y-78814285D01*
X95147619Y-78766666D01*
X95052380Y-77909523D02*
X95052380Y-78100000D01*
X95100000Y-78195238D01*
X95147619Y-78242857D01*
X95290476Y-78338095D01*
X95480952Y-78385714D01*
X95861904Y-78385714D01*
X95957142Y-78338095D01*
X96004761Y-78290476D01*
X96052380Y-78195238D01*
X96052380Y-78004761D01*
X96004761Y-77909523D01*
X95957142Y-77861904D01*
X95861904Y-77814285D01*
X95623809Y-77814285D01*
X95528571Y-77861904D01*
X95480952Y-77909523D01*
X95433333Y-78004761D01*
X95433333Y-78195238D01*
X95480952Y-78290476D01*
X95528571Y-78338095D01*
X95623809Y-78385714D01*
%TO.C,C5*%
X101383333Y-88932142D02*
X101335714Y-88979761D01*
X101192857Y-89027380D01*
X101097619Y-89027380D01*
X100954761Y-88979761D01*
X100859523Y-88884523D01*
X100811904Y-88789285D01*
X100764285Y-88598809D01*
X100764285Y-88455952D01*
X100811904Y-88265476D01*
X100859523Y-88170238D01*
X100954761Y-88075000D01*
X101097619Y-88027380D01*
X101192857Y-88027380D01*
X101335714Y-88075000D01*
X101383333Y-88122619D01*
X102288095Y-88027380D02*
X101811904Y-88027380D01*
X101764285Y-88503571D01*
X101811904Y-88455952D01*
X101907142Y-88408333D01*
X102145238Y-88408333D01*
X102240476Y-88455952D01*
X102288095Y-88503571D01*
X102335714Y-88598809D01*
X102335714Y-88836904D01*
X102288095Y-88932142D01*
X102240476Y-88979761D01*
X102145238Y-89027380D01*
X101907142Y-89027380D01*
X101811904Y-88979761D01*
X101764285Y-88932142D01*
%TO.C,R5*%
X113258333Y-79427380D02*
X112925000Y-78951190D01*
X112686904Y-79427380D02*
X112686904Y-78427380D01*
X113067857Y-78427380D01*
X113163095Y-78475000D01*
X113210714Y-78522619D01*
X113258333Y-78617857D01*
X113258333Y-78760714D01*
X113210714Y-78855952D01*
X113163095Y-78903571D01*
X113067857Y-78951190D01*
X112686904Y-78951190D01*
X114163095Y-78427380D02*
X113686904Y-78427380D01*
X113639285Y-78903571D01*
X113686904Y-78855952D01*
X113782142Y-78808333D01*
X114020238Y-78808333D01*
X114115476Y-78855952D01*
X114163095Y-78903571D01*
X114210714Y-78998809D01*
X114210714Y-79236904D01*
X114163095Y-79332142D01*
X114115476Y-79379761D01*
X114020238Y-79427380D01*
X113782142Y-79427380D01*
X113686904Y-79379761D01*
X113639285Y-79332142D01*
%TO.C,R3*%
X97498333Y-94202380D02*
X97165000Y-93726190D01*
X96926904Y-94202380D02*
X96926904Y-93202380D01*
X97307857Y-93202380D01*
X97403095Y-93250000D01*
X97450714Y-93297619D01*
X97498333Y-93392857D01*
X97498333Y-93535714D01*
X97450714Y-93630952D01*
X97403095Y-93678571D01*
X97307857Y-93726190D01*
X96926904Y-93726190D01*
X97831666Y-93202380D02*
X98450714Y-93202380D01*
X98117380Y-93583333D01*
X98260238Y-93583333D01*
X98355476Y-93630952D01*
X98403095Y-93678571D01*
X98450714Y-93773809D01*
X98450714Y-94011904D01*
X98403095Y-94107142D01*
X98355476Y-94154761D01*
X98260238Y-94202380D01*
X97974523Y-94202380D01*
X97879285Y-94154761D01*
X97831666Y-94107142D01*
%TO.C,C4*%
X99808333Y-74277142D02*
X99760714Y-74324761D01*
X99617857Y-74372380D01*
X99522619Y-74372380D01*
X99379761Y-74324761D01*
X99284523Y-74229523D01*
X99236904Y-74134285D01*
X99189285Y-73943809D01*
X99189285Y-73800952D01*
X99236904Y-73610476D01*
X99284523Y-73515238D01*
X99379761Y-73420000D01*
X99522619Y-73372380D01*
X99617857Y-73372380D01*
X99760714Y-73420000D01*
X99808333Y-73467619D01*
X100665476Y-73705714D02*
X100665476Y-74372380D01*
X100427380Y-73324761D02*
X100189285Y-74039047D01*
X100808333Y-74039047D01*
%TO.C,R4*%
X90807380Y-76226666D02*
X90331190Y-76560000D01*
X90807380Y-76798095D02*
X89807380Y-76798095D01*
X89807380Y-76417142D01*
X89855000Y-76321904D01*
X89902619Y-76274285D01*
X89997857Y-76226666D01*
X90140714Y-76226666D01*
X90235952Y-76274285D01*
X90283571Y-76321904D01*
X90331190Y-76417142D01*
X90331190Y-76798095D01*
X90140714Y-75369523D02*
X90807380Y-75369523D01*
X89759761Y-75607619D02*
X90474047Y-75845714D01*
X90474047Y-75226666D01*
%TO.C,C10*%
X106657142Y-87582142D02*
X106609523Y-87629761D01*
X106466666Y-87677380D01*
X106371428Y-87677380D01*
X106228571Y-87629761D01*
X106133333Y-87534523D01*
X106085714Y-87439285D01*
X106038095Y-87248809D01*
X106038095Y-87105952D01*
X106085714Y-86915476D01*
X106133333Y-86820238D01*
X106228571Y-86725000D01*
X106371428Y-86677380D01*
X106466666Y-86677380D01*
X106609523Y-86725000D01*
X106657142Y-86772619D01*
X107609523Y-87677380D02*
X107038095Y-87677380D01*
X107323809Y-87677380D02*
X107323809Y-86677380D01*
X107228571Y-86820238D01*
X107133333Y-86915476D01*
X107038095Y-86963095D01*
X108228571Y-86677380D02*
X108323809Y-86677380D01*
X108419047Y-86725000D01*
X108466666Y-86772619D01*
X108514285Y-86867857D01*
X108561904Y-87058333D01*
X108561904Y-87296428D01*
X108514285Y-87486904D01*
X108466666Y-87582142D01*
X108419047Y-87629761D01*
X108323809Y-87677380D01*
X108228571Y-87677380D01*
X108133333Y-87629761D01*
X108085714Y-87582142D01*
X108038095Y-87486904D01*
X107990476Y-87296428D01*
X107990476Y-87058333D01*
X108038095Y-86867857D01*
X108085714Y-86772619D01*
X108133333Y-86725000D01*
X108228571Y-86677380D01*
%TO.C,C7*%
X92907142Y-86316666D02*
X92954761Y-86364285D01*
X93002380Y-86507142D01*
X93002380Y-86602380D01*
X92954761Y-86745238D01*
X92859523Y-86840476D01*
X92764285Y-86888095D01*
X92573809Y-86935714D01*
X92430952Y-86935714D01*
X92240476Y-86888095D01*
X92145238Y-86840476D01*
X92050000Y-86745238D01*
X92002380Y-86602380D01*
X92002380Y-86507142D01*
X92050000Y-86364285D01*
X92097619Y-86316666D01*
X92002380Y-85983333D02*
X92002380Y-85316666D01*
X93002380Y-85745238D01*
%TO.C,C2*%
X112807142Y-92516666D02*
X112854761Y-92564285D01*
X112902380Y-92707142D01*
X112902380Y-92802380D01*
X112854761Y-92945238D01*
X112759523Y-93040476D01*
X112664285Y-93088095D01*
X112473809Y-93135714D01*
X112330952Y-93135714D01*
X112140476Y-93088095D01*
X112045238Y-93040476D01*
X111950000Y-92945238D01*
X111902380Y-92802380D01*
X111902380Y-92707142D01*
X111950000Y-92564285D01*
X111997619Y-92516666D01*
X111997619Y-92135714D02*
X111950000Y-92088095D01*
X111902380Y-91992857D01*
X111902380Y-91754761D01*
X111950000Y-91659523D01*
X111997619Y-91611904D01*
X112092857Y-91564285D01*
X112188095Y-91564285D01*
X112330952Y-91611904D01*
X112902380Y-92183333D01*
X112902380Y-91564285D01*
%TO.C,R1*%
X115902380Y-96966666D02*
X115426190Y-97300000D01*
X115902380Y-97538095D02*
X114902380Y-97538095D01*
X114902380Y-97157142D01*
X114950000Y-97061904D01*
X114997619Y-97014285D01*
X115092857Y-96966666D01*
X115235714Y-96966666D01*
X115330952Y-97014285D01*
X115378571Y-97061904D01*
X115426190Y-97157142D01*
X115426190Y-97538095D01*
X115902380Y-96014285D02*
X115902380Y-96585714D01*
X115902380Y-96300000D02*
X114902380Y-96300000D01*
X115045238Y-96395238D01*
X115140476Y-96490476D01*
X115188095Y-96585714D01*
%TO.C,C8*%
X97633333Y-77207142D02*
X97585714Y-77254761D01*
X97442857Y-77302380D01*
X97347619Y-77302380D01*
X97204761Y-77254761D01*
X97109523Y-77159523D01*
X97061904Y-77064285D01*
X97014285Y-76873809D01*
X97014285Y-76730952D01*
X97061904Y-76540476D01*
X97109523Y-76445238D01*
X97204761Y-76350000D01*
X97347619Y-76302380D01*
X97442857Y-76302380D01*
X97585714Y-76350000D01*
X97633333Y-76397619D01*
X98204761Y-76730952D02*
X98109523Y-76683333D01*
X98061904Y-76635714D01*
X98014285Y-76540476D01*
X98014285Y-76492857D01*
X98061904Y-76397619D01*
X98109523Y-76350000D01*
X98204761Y-76302380D01*
X98395238Y-76302380D01*
X98490476Y-76350000D01*
X98538095Y-76397619D01*
X98585714Y-76492857D01*
X98585714Y-76540476D01*
X98538095Y-76635714D01*
X98490476Y-76683333D01*
X98395238Y-76730952D01*
X98204761Y-76730952D01*
X98109523Y-76778571D01*
X98061904Y-76826190D01*
X98014285Y-76921428D01*
X98014285Y-77111904D01*
X98061904Y-77207142D01*
X98109523Y-77254761D01*
X98204761Y-77302380D01*
X98395238Y-77302380D01*
X98490476Y-77254761D01*
X98538095Y-77207142D01*
X98585714Y-77111904D01*
X98585714Y-76921428D01*
X98538095Y-76826190D01*
X98490476Y-76778571D01*
X98395238Y-76730952D01*
%TO.C,C11*%
X94957142Y-82557142D02*
X94909523Y-82604761D01*
X94766666Y-82652380D01*
X94671428Y-82652380D01*
X94528571Y-82604761D01*
X94433333Y-82509523D01*
X94385714Y-82414285D01*
X94338095Y-82223809D01*
X94338095Y-82080952D01*
X94385714Y-81890476D01*
X94433333Y-81795238D01*
X94528571Y-81700000D01*
X94671428Y-81652380D01*
X94766666Y-81652380D01*
X94909523Y-81700000D01*
X94957142Y-81747619D01*
X95909523Y-82652380D02*
X95338095Y-82652380D01*
X95623809Y-82652380D02*
X95623809Y-81652380D01*
X95528571Y-81795238D01*
X95433333Y-81890476D01*
X95338095Y-81938095D01*
X96861904Y-82652380D02*
X96290476Y-82652380D01*
X96576190Y-82652380D02*
X96576190Y-81652380D01*
X96480952Y-81795238D01*
X96385714Y-81890476D01*
X96290476Y-81938095D01*
%TO.C,SW1*%
X84279761Y-86083333D02*
X84327380Y-85940476D01*
X84327380Y-85702380D01*
X84279761Y-85607142D01*
X84232142Y-85559523D01*
X84136904Y-85511904D01*
X84041666Y-85511904D01*
X83946428Y-85559523D01*
X83898809Y-85607142D01*
X83851190Y-85702380D01*
X83803571Y-85892857D01*
X83755952Y-85988095D01*
X83708333Y-86035714D01*
X83613095Y-86083333D01*
X83517857Y-86083333D01*
X83422619Y-86035714D01*
X83375000Y-85988095D01*
X83327380Y-85892857D01*
X83327380Y-85654761D01*
X83375000Y-85511904D01*
X83327380Y-85178571D02*
X84327380Y-84940476D01*
X83613095Y-84750000D01*
X84327380Y-84559523D01*
X83327380Y-84321428D01*
X84327380Y-83416666D02*
X84327380Y-83988095D01*
X84327380Y-83702380D02*
X83327380Y-83702380D01*
X83470238Y-83797619D01*
X83565476Y-83892857D01*
X83613095Y-83988095D01*
%TO.C,C9*%
X109957142Y-78991666D02*
X110004761Y-79039285D01*
X110052380Y-79182142D01*
X110052380Y-79277380D01*
X110004761Y-79420238D01*
X109909523Y-79515476D01*
X109814285Y-79563095D01*
X109623809Y-79610714D01*
X109480952Y-79610714D01*
X109290476Y-79563095D01*
X109195238Y-79515476D01*
X109100000Y-79420238D01*
X109052380Y-79277380D01*
X109052380Y-79182142D01*
X109100000Y-79039285D01*
X109147619Y-78991666D01*
X110052380Y-78515476D02*
X110052380Y-78325000D01*
X110004761Y-78229761D01*
X109957142Y-78182142D01*
X109814285Y-78086904D01*
X109623809Y-78039285D01*
X109242857Y-78039285D01*
X109147619Y-78086904D01*
X109100000Y-78134523D01*
X109052380Y-78229761D01*
X109052380Y-78420238D01*
X109100000Y-78515476D01*
X109147619Y-78563095D01*
X109242857Y-78610714D01*
X109480952Y-78610714D01*
X109576190Y-78563095D01*
X109623809Y-78515476D01*
X109671428Y-78420238D01*
X109671428Y-78229761D01*
X109623809Y-78134523D01*
X109576190Y-78086904D01*
X109480952Y-78039285D01*
%TO.C,C1*%
X110108333Y-87757142D02*
X110060714Y-87804761D01*
X109917857Y-87852380D01*
X109822619Y-87852380D01*
X109679761Y-87804761D01*
X109584523Y-87709523D01*
X109536904Y-87614285D01*
X109489285Y-87423809D01*
X109489285Y-87280952D01*
X109536904Y-87090476D01*
X109584523Y-86995238D01*
X109679761Y-86900000D01*
X109822619Y-86852380D01*
X109917857Y-86852380D01*
X110060714Y-86900000D01*
X110108333Y-86947619D01*
X111060714Y-87852380D02*
X110489285Y-87852380D01*
X110775000Y-87852380D02*
X110775000Y-86852380D01*
X110679761Y-86995238D01*
X110584523Y-87090476D01*
X110489285Y-87138095D01*
%TO.C,U1*%
X100988095Y-90652380D02*
X100988095Y-91461904D01*
X101035714Y-91557142D01*
X101083333Y-91604761D01*
X101178571Y-91652380D01*
X101369047Y-91652380D01*
X101464285Y-91604761D01*
X101511904Y-91557142D01*
X101559523Y-91461904D01*
X101559523Y-90652380D01*
X102559523Y-91652380D02*
X101988095Y-91652380D01*
X102273809Y-91652380D02*
X102273809Y-90652380D01*
X102178571Y-90795238D01*
X102083333Y-90890476D01*
X101988095Y-90938095D01*
%TO.C,C3*%
X92657142Y-79816666D02*
X92704761Y-79864285D01*
X92752380Y-80007142D01*
X92752380Y-80102380D01*
X92704761Y-80245238D01*
X92609523Y-80340476D01*
X92514285Y-80388095D01*
X92323809Y-80435714D01*
X92180952Y-80435714D01*
X91990476Y-80388095D01*
X91895238Y-80340476D01*
X91800000Y-80245238D01*
X91752380Y-80102380D01*
X91752380Y-80007142D01*
X91800000Y-79864285D01*
X91847619Y-79816666D01*
X91752380Y-79483333D02*
X91752380Y-78864285D01*
X92133333Y-79197619D01*
X92133333Y-79054761D01*
X92180952Y-78959523D01*
X92228571Y-78911904D01*
X92323809Y-78864285D01*
X92561904Y-78864285D01*
X92657142Y-78911904D01*
X92704761Y-78959523D01*
X92752380Y-79054761D01*
X92752380Y-79340476D01*
X92704761Y-79435714D01*
X92657142Y-79483333D01*
%TO.C,FB1*%
X93903571Y-86908333D02*
X93903571Y-87241666D01*
X94427380Y-87241666D02*
X93427380Y-87241666D01*
X93427380Y-86765476D01*
X93903571Y-86051190D02*
X93951190Y-85908333D01*
X93998809Y-85860714D01*
X94094047Y-85813095D01*
X94236904Y-85813095D01*
X94332142Y-85860714D01*
X94379761Y-85908333D01*
X94427380Y-86003571D01*
X94427380Y-86384523D01*
X93427380Y-86384523D01*
X93427380Y-86051190D01*
X93475000Y-85955952D01*
X93522619Y-85908333D01*
X93617857Y-85860714D01*
X93713095Y-85860714D01*
X93808333Y-85908333D01*
X93855952Y-85955952D01*
X93903571Y-86051190D01*
X93903571Y-86384523D01*
X94427380Y-84860714D02*
X94427380Y-85432142D01*
X94427380Y-85146428D02*
X93427380Y-85146428D01*
X93570238Y-85241666D01*
X93665476Y-85336904D01*
X93713095Y-85432142D01*
%TO.C,U2*%
X101788095Y-76202380D02*
X101788095Y-77011904D01*
X101835714Y-77107142D01*
X101883333Y-77154761D01*
X101978571Y-77202380D01*
X102169047Y-77202380D01*
X102264285Y-77154761D01*
X102311904Y-77107142D01*
X102359523Y-77011904D01*
X102359523Y-76202380D01*
X102788095Y-76297619D02*
X102835714Y-76250000D01*
X102930952Y-76202380D01*
X103169047Y-76202380D01*
X103264285Y-76250000D01*
X103311904Y-76297619D01*
X103359523Y-76392857D01*
X103359523Y-76488095D01*
X103311904Y-76630952D01*
X102740476Y-77202380D01*
X103359523Y-77202380D01*
D12*
%TO.C,D1*%
X114225000Y-95210000D02*
G75*
G03*
X114225000Y-95210000I-50000J0D01*
G01*
D10*
%TO.C,J4*%
X123200000Y-85550000D02*
X123200000Y-85250000D01*
X117075000Y-83200000D02*
X117500000Y-83200000D01*
X120650000Y-77250000D02*
X119250000Y-77250000D01*
X117500000Y-83200000D02*
X117500000Y-84200000D01*
X123200000Y-77550000D02*
X123200000Y-77250000D01*
X123050000Y-85550000D02*
X123200000Y-85550000D01*
X119250000Y-85550000D02*
X120650000Y-85550000D01*
X123200000Y-77250000D02*
X123050000Y-77250000D01*
X117500000Y-79600000D02*
X117500000Y-78600000D01*
X117075000Y-82475000D02*
X117075000Y-83200000D01*
%TO.C,G\u002A\u002A\u002A*%
G36*
X84547339Y-89816832D02*
G01*
X84563161Y-89840773D01*
X84588273Y-89881331D01*
X84622767Y-89938658D01*
X84666734Y-90012910D01*
X84720263Y-90104240D01*
X84783447Y-90212802D01*
X84856376Y-90338749D01*
X84939141Y-90482236D01*
X84984083Y-90560333D01*
X85032986Y-90651506D01*
X85071865Y-90739097D01*
X85102170Y-90827977D01*
X85125346Y-90923022D01*
X85142843Y-91029105D01*
X85154590Y-91134377D01*
X85159766Y-91256232D01*
X85153847Y-91381487D01*
X85137432Y-91501809D01*
X85123667Y-91564760D01*
X85087658Y-91672034D01*
X85033465Y-91783804D01*
X84962262Y-91898191D01*
X84875219Y-92013312D01*
X84773508Y-92127289D01*
X84773043Y-92127771D01*
X84679627Y-92217654D01*
X84587895Y-92290503D01*
X84493645Y-92348791D01*
X84392672Y-92394990D01*
X84280774Y-92431574D01*
X84237795Y-92442676D01*
X84220328Y-92446258D01*
X84198476Y-92449346D01*
X84170565Y-92451990D01*
X84134921Y-92454246D01*
X84089871Y-92456165D01*
X84033740Y-92457801D01*
X83964855Y-92459206D01*
X83881542Y-92460434D01*
X83782128Y-92461537D01*
X83664938Y-92462569D01*
X83591702Y-92463130D01*
X83012245Y-92467388D01*
X83048266Y-92403028D01*
X83070421Y-92363684D01*
X83100798Y-92310116D01*
X83138714Y-92243508D01*
X83183486Y-92165048D01*
X83234432Y-92075921D01*
X83290870Y-91977313D01*
X83352116Y-91870409D01*
X83417490Y-91756396D01*
X83486308Y-91636460D01*
X83557888Y-91511786D01*
X83631548Y-91383560D01*
X83706605Y-91252968D01*
X83782377Y-91121196D01*
X83858181Y-90989430D01*
X83933336Y-90858856D01*
X84007158Y-90730660D01*
X84078966Y-90606027D01*
X84148077Y-90486143D01*
X84213809Y-90372195D01*
X84275479Y-90265368D01*
X84332404Y-90166848D01*
X84383904Y-90077821D01*
X84429294Y-89999472D01*
X84467893Y-89932988D01*
X84499019Y-89879555D01*
X84521988Y-89840359D01*
X84536119Y-89816584D01*
X84540718Y-89809353D01*
X84547339Y-89816832D01*
G37*
G36*
X85644179Y-87920401D02*
G01*
X85646812Y-87923705D01*
X85654032Y-87935898D01*
X85670771Y-87964692D01*
X85696511Y-88009186D01*
X85730736Y-88068477D01*
X85772928Y-88141665D01*
X85822568Y-88227847D01*
X85879140Y-88326122D01*
X85942126Y-88435589D01*
X86011007Y-88555345D01*
X86085267Y-88684490D01*
X86164388Y-88822121D01*
X86247852Y-88967337D01*
X86335141Y-89119236D01*
X86425739Y-89276918D01*
X86519126Y-89439479D01*
X86614786Y-89606019D01*
X86712202Y-89775636D01*
X86810854Y-89947428D01*
X86910226Y-90120494D01*
X87009801Y-90293932D01*
X87109060Y-90466840D01*
X87207485Y-90638317D01*
X87304560Y-90807462D01*
X87399767Y-90973372D01*
X87492587Y-91135147D01*
X87582504Y-91291884D01*
X87668999Y-91442681D01*
X87751556Y-91586638D01*
X87829656Y-91722853D01*
X87902782Y-91850424D01*
X87970415Y-91968449D01*
X88032040Y-92076027D01*
X88087137Y-92172256D01*
X88135190Y-92256234D01*
X88175680Y-92327061D01*
X88208090Y-92383834D01*
X88231902Y-92425652D01*
X88246600Y-92451613D01*
X88251664Y-92460816D01*
X88251664Y-92460820D01*
X88241898Y-92462377D01*
X88214278Y-92463583D01*
X88171327Y-92464454D01*
X88115566Y-92465009D01*
X88049515Y-92465267D01*
X87975695Y-92465244D01*
X87896628Y-92464959D01*
X87814834Y-92464431D01*
X87732835Y-92463676D01*
X87653151Y-92462714D01*
X87578304Y-92461563D01*
X87510814Y-92460239D01*
X87453203Y-92458763D01*
X87407992Y-92457150D01*
X87377702Y-92455420D01*
X87368790Y-92454496D01*
X87210749Y-92422602D01*
X87048556Y-92372271D01*
X86884087Y-92304533D01*
X86719215Y-92220417D01*
X86555815Y-92120950D01*
X86395761Y-92007164D01*
X86240928Y-91880087D01*
X86122971Y-91770424D01*
X86088184Y-91736311D01*
X86056876Y-91705462D01*
X86028300Y-91676753D01*
X86001709Y-91649059D01*
X85976358Y-91621257D01*
X85951500Y-91592221D01*
X85926389Y-91560829D01*
X85900279Y-91525954D01*
X85872423Y-91486473D01*
X85842076Y-91441262D01*
X85808491Y-91389196D01*
X85770923Y-91329150D01*
X85728624Y-91260002D01*
X85680848Y-91180625D01*
X85626850Y-91089896D01*
X85565883Y-90986691D01*
X85497201Y-90869884D01*
X85420057Y-90738353D01*
X85333706Y-90590972D01*
X85284972Y-90507791D01*
X85209005Y-90378062D01*
X85136013Y-90253259D01*
X85066647Y-90134504D01*
X85001560Y-90022921D01*
X84941404Y-89919634D01*
X84886832Y-89825766D01*
X84838495Y-89742439D01*
X84797045Y-89670778D01*
X84763136Y-89611905D01*
X84737419Y-89566945D01*
X84720546Y-89537019D01*
X84713169Y-89523252D01*
X84712887Y-89522460D01*
X84718058Y-89512914D01*
X84732581Y-89486903D01*
X84755748Y-89445680D01*
X84786849Y-89390501D01*
X84825176Y-89322619D01*
X84870019Y-89243288D01*
X84920669Y-89153764D01*
X84976418Y-89055299D01*
X85036556Y-88949149D01*
X85100374Y-88836568D01*
X85167163Y-88718809D01*
X85173170Y-88708222D01*
X85251458Y-88570266D01*
X85320336Y-88449007D01*
X85380429Y-88343410D01*
X85432364Y-88252435D01*
X85476766Y-88175049D01*
X85514261Y-88110212D01*
X85545475Y-88056890D01*
X85571033Y-88014044D01*
X85591563Y-87980639D01*
X85607689Y-87955638D01*
X85620038Y-87938003D01*
X85629236Y-87926699D01*
X85635908Y-87920688D01*
X85640680Y-87918934D01*
X85644179Y-87920401D01*
G37*
D13*
%TO.C,R2*%
X95043641Y-95355000D02*
X94736359Y-95355000D01*
X95043641Y-94595000D02*
X94736359Y-94595000D01*
%TO.C,Y1*%
X87900000Y-79200000D02*
X87900000Y-83200000D01*
X91200000Y-79200000D02*
X87900000Y-79200000D01*
%TO.C,C12*%
X97110000Y-85302164D02*
X97110000Y-85517836D01*
X96390000Y-85302164D02*
X96390000Y-85517836D01*
%TO.C,J3*%
X111360000Y-70730000D02*
X103680000Y-70730000D01*
X103680000Y-68070000D02*
X103680000Y-70730000D01*
X111360000Y-68070000D02*
X103680000Y-68070000D01*
X113960000Y-68070000D02*
X113960000Y-69400000D01*
X112630000Y-68070000D02*
X113960000Y-68070000D01*
X111360000Y-68070000D02*
X111360000Y-70730000D01*
%TO.C,C13*%
X95560000Y-87912164D02*
X95560000Y-88127836D01*
X94840000Y-87912164D02*
X94840000Y-88127836D01*
%TO.C,C6*%
X97110000Y-79772164D02*
X97110000Y-79987836D01*
X96390000Y-79772164D02*
X96390000Y-79987836D01*
%TO.C,C5*%
X98672164Y-88960000D02*
X98887836Y-88960000D01*
X98672164Y-88240000D02*
X98887836Y-88240000D01*
%TO.C,R5*%
X113805000Y-80571359D02*
X113805000Y-80878641D01*
X113045000Y-80571359D02*
X113045000Y-80878641D01*
%TO.C,R3*%
X97761359Y-95370000D02*
X98068641Y-95370000D01*
X97761359Y-94610000D02*
X98068641Y-94610000D01*
%TO.C,C4*%
X99834420Y-75860000D02*
X100115580Y-75860000D01*
X99834420Y-74840000D02*
X100115580Y-74840000D01*
%TO.C,R4*%
X91145000Y-76213641D02*
X91145000Y-75906359D01*
X91905000Y-76213641D02*
X91905000Y-75906359D01*
%TO.C,C10*%
X105582836Y-88090000D02*
X105367164Y-88090000D01*
X105582836Y-88810000D02*
X105367164Y-88810000D01*
%TO.C,C7*%
X92040000Y-83962164D02*
X92040000Y-84177836D01*
X92760000Y-83962164D02*
X92760000Y-84177836D01*
%TO.C,C2*%
X113185000Y-94838748D02*
X113185000Y-95361252D01*
X111715000Y-94838748D02*
X111715000Y-95361252D01*
%TO.C,R1*%
X114580000Y-96246359D02*
X114580000Y-96553641D01*
X113820000Y-96246359D02*
X113820000Y-96553641D01*
%TO.C,C8*%
X99912164Y-77220000D02*
X100127836Y-77220000D01*
X99912164Y-76500000D02*
X100127836Y-76500000D01*
%TO.C,C11*%
X96507836Y-83440000D02*
X96292164Y-83440000D01*
X96507836Y-84160000D02*
X96292164Y-84160000D01*
%TO.C,SW1*%
X83895000Y-74750000D02*
X83105000Y-74750000D01*
X83105000Y-81650000D02*
X83895000Y-81650000D01*
X84945000Y-79600000D02*
X84945000Y-79800000D01*
X82095000Y-75350000D02*
X82095000Y-81050000D01*
X84945000Y-76600000D02*
X84945000Y-78300000D01*
%TO.C,C9*%
X108040000Y-79892164D02*
X108040000Y-80107836D01*
X108760000Y-79892164D02*
X108760000Y-80107836D01*
%TO.C,J1*%
X99830000Y-68070000D02*
X101160000Y-68070000D01*
X98560000Y-70730000D02*
X90880000Y-70730000D01*
X90880000Y-68070000D02*
X90880000Y-70730000D01*
X98560000Y-68070000D02*
X90880000Y-68070000D01*
X101160000Y-68070000D02*
X101160000Y-69400000D01*
X98560000Y-68070000D02*
X98560000Y-70730000D01*
%TO.C,J2*%
X93140000Y-96290000D02*
X100820000Y-96290000D01*
X93140000Y-98950000D02*
X100820000Y-98950000D01*
X100820000Y-98950000D02*
X100820000Y-96290000D01*
X93140000Y-98950000D02*
X93140000Y-96290000D01*
X91870000Y-98950000D02*
X90540000Y-98950000D01*
X90540000Y-98950000D02*
X90540000Y-97620000D01*
%TO.C,C1*%
X110688748Y-89835000D02*
X111211252Y-89835000D01*
X110688748Y-88365000D02*
X111211252Y-88365000D01*
%TO.C,U1*%
X105040000Y-90440000D02*
X105040000Y-91700000D01*
X108800000Y-90440000D02*
X105040000Y-90440000D01*
X105040000Y-97260000D02*
X105040000Y-96000000D01*
X111050000Y-97260000D02*
X105040000Y-97260000D01*
%TO.C,C3*%
X92760000Y-81692164D02*
X92760000Y-81907836D01*
X92040000Y-81692164D02*
X92040000Y-81907836D01*
%TO.C,U2*%
X98940000Y-86210000D02*
X98940000Y-85760000D01*
X106160000Y-86210000D02*
X106160000Y-85760000D01*
X105710000Y-78990000D02*
X106160000Y-78990000D01*
X105710000Y-86210000D02*
X106160000Y-86210000D01*
X98940000Y-78990000D02*
X98940000Y-79440000D01*
X99390000Y-86210000D02*
X98940000Y-86210000D01*
X106160000Y-78990000D02*
X106160000Y-79440000D01*
X98940000Y-79440000D02*
X97650000Y-79440000D01*
X99390000Y-78990000D02*
X98940000Y-78990000D01*
%TD*%
M02*
