M48
; DRILL file {KiCad (6.0.10)} date Mon May  1 12:45:18 2023
; FORMAT={-:-/ absolute / metric / decimal}
; #@! TF.CreationDate,2023-05-01T12:45:18+05:45
; #@! TF.GenerationSoftware,Kicad,Pcbnew,(6.0.10)
; #@! TF.FileFunction,MixedPlating,1,2
FMAT,2
METRIC
; #@! TA.AperFunction,Plated,PTH,ViaDrill
T1C0.400
; #@! TA.AperFunction,Plated,PTH,ComponentDrill
T2C0.550
; #@! TA.AperFunction,Plated,PTH,ComponentDrill
T3C0.800
; #@! TA.AperFunction,Plated,PTH,ComponentDrill
T4C0.850
; #@! TA.AperFunction,Plated,PTH,ComponentDrill
T5C1.000
; #@! TA.AperFunction,NonPlated,NPTH,ComponentDrill
T6C0.800
; #@! TA.AperFunction,NonPlated,NPTH,ComponentDrill
T7C0.900
; #@! TA.AperFunction,NonPlated,NPTH,ComponentDrill
T8C2.200
%
G90
G05
T1
X87.05Y-75.275
X88.725Y-83.675
X90.4Y-78.625
X93.4Y-84.475
X93.5Y-82.125
X93.625Y-93.5
X94.1Y-88.5
X94.725Y-83.825
X95.242Y-93.517
X95.625Y-80.325
X96.025Y-86.825
X99.2Y-92.4
X99.704Y-83.611
X100.2Y-88.6
X100.3Y-79.825
X100.425Y-93.675
X104.8Y-85.35
X109.4Y-80.55
X109.4Y-97.975
X110.7Y-97.975
X111.875Y-97.325
X113.05Y-97.3
X113.225Y-88.7
X113.225Y-89.775
X114.075Y-91.15
X114.175Y-87.5
X114.2Y-97.9
X114.8Y-80.7
X114.825Y-83.7
X119.55Y-80.0
T3
X92.21Y-69.4
X105.01Y-69.4
T5
X91.87Y-97.62
X94.41Y-97.62
X94.75Y-69.4
X96.95Y-97.62
X97.29Y-69.4
X99.49Y-97.62
X99.83Y-69.4
X107.55Y-69.4
X110.09Y-69.4
X112.63Y-69.4
T6
X119.1Y-78.9
X119.1Y-83.9
T7
X83.495Y-76.7
X83.495Y-79.7
T8
X85.75Y-70.6
X85.75Y-96.2
X119.15Y-70.6
X119.15Y-96.2
T2
G00X121.525Y-77.525
M15
G01X122.175Y-77.525
M16
G05
G00X121.525Y-85.275
M15
G01X122.175Y-85.275
M16
G05
T4
G00X117.775Y-77.675
M15
G01X118.325Y-77.675
M16
G05
G00X117.775Y-85.125
M15
G01X118.325Y-85.125
M16
G05
T0
M30
